<svg width="60" height="60" viewBox="0 0 60 60" fill="none" xmlns="http://www.w3.org/2000/svg">
<g clip-path="url(#clip0_152_824)">
<path d="M46.7 35.9101L49.02 33.2601C49.3947 32.8313 49.8911 32.527 50.4432 32.3876C50.9953 32.2482 51.5767 32.2805 52.11 32.4801L52.94 22.3801C52.9705 21.7898 53.2076 21.2289 53.6097 20.7957C54.0119 20.3625 54.5536 20.0844 55.14 20.0101C55.4597 19.9794 55.7823 20.0127 56.089 20.1081C56.3957 20.2036 56.6802 20.3592 56.926 20.5659C57.1718 20.7726 57.374 21.0263 57.5206 21.312C57.6672 21.5978 57.7554 21.9099 57.78 22.2301L58.99 37.4201C59.07 38.4366 58.7588 39.4454 58.12 40.2401L47.88 52.9001C47.3103 53.6088 46.9998 54.4908 47 55.4001V58.0001C47 58.2653 46.8946 58.5197 46.7071 58.7072C46.5196 58.8947 46.2652 59.0001 46 59.0001H38C37.7348 59.0001 37.4804 58.8947 37.2929 58.7072C37.1054 58.5197 37 58.2653 37 58.0001V48.8801C36.9999 47.6692 37.4407 46.4997 38.24 45.5901L46.7 35.9101Z" fill="#FFE0B2"/>
<path d="M57.78 22.2301C57.7554 21.9099 57.6672 21.5978 57.5206 21.312C57.374 21.0263 57.1718 20.7726 56.926 20.5659C56.6802 20.3592 56.3957 20.2036 56.089 20.1081C55.7823 20.0127 55.4597 19.9794 55.14 20.0101C54.6758 20.0553 54.2365 20.2413 53.881 20.5431C53.923 20.5771 53.97 20.6031 54.01 20.6431C54.4567 21.058 54.7314 21.6254 54.78 22.2331L55.99 37.4231C56.07 38.4396 55.7588 39.4484 55.12 40.2431L44.88 52.9001C44.3103 53.6088 43.9998 54.4908 44 55.4001V58.0001C44 58.2653 43.8946 58.5197 43.7071 58.7072C43.5196 58.8947 43.2652 59.0001 43 59.0001H46C46.2652 59.0001 46.5196 58.8947 46.7071 58.7072C46.8946 58.5197 47 58.2653 47 58.0001V55.4001C46.9998 54.4908 47.3103 53.6088 47.88 52.9001L58.12 40.2401C58.7588 39.4454 59.07 38.4366 58.99 37.4201L57.78 22.2301Z" fill="#DFC49C"/>
<path d="M22.9999 48.8801V58.0001C22.9999 58.2653 22.8946 58.5197 22.707 58.7072C22.5195 58.8947 22.2651 59.0001 21.9999 59.0001H13.9999C13.7347 59.0001 13.4803 58.8947 13.2928 58.7072C13.1053 58.5197 12.9999 58.2653 12.9999 58.0001V55.4001C13.0001 54.4908 12.6896 53.6088 12.1199 52.9001L1.87991 40.2401C1.24107 39.4454 0.929871 38.4366 1.00991 37.4201L2.21991 22.2301C2.24449 21.9099 2.33268 21.5978 2.47931 21.312C2.62594 21.0263 2.82807 20.7726 3.07388 20.5659C3.3197 20.3592 3.60426 20.2036 3.91092 20.1081C4.21759 20.0127 4.54021 19.9794 4.85991 20.0101C5.44604 20.0851 5.98727 20.3634 6.38929 20.7965C6.79131 21.2296 7.02864 21.79 7.05991 22.3801L7.88991 32.4801C8.42318 32.2805 9.00462 32.2482 9.5567 32.3876C10.1088 32.527 10.6053 32.8313 10.9799 33.2601L21.7599 45.5901C22.5593 46.4997 23 47.6692 22.9999 48.8801Z" fill="#FFE0B2"/>
<path d="M36 12.0001C35.9961 12.5293 35.7841 13.0358 35.4099 13.41C35.0357 13.7842 34.5292 13.9962 34 14.0001H26C25.4701 13.9985 24.9623 13.7873 24.5875 13.4126C24.2128 13.0379 24.0016 12.5301 24 12.0001C24.0039 11.4709 24.2159 10.9645 24.5901 10.5902C24.9643 10.216 25.4708 10.004 26 10.0001H34C34.5299 10.0017 35.0377 10.2129 35.4125 10.5877C35.7872 10.9624 35.9984 11.4702 36 12.0001Z" fill="#FFAC00"/>
<path d="M35.76 6.68016C35.1578 7.86143 34.4303 8.97449 33.59 10.0002H26.41C25.5698 8.97449 24.8422 7.86143 24.24 6.68016C24.0801 6.34625 23.998 5.98039 24 5.61016C23.9867 4.94803 24.2302 4.30645 24.6795 3.81989C25.1288 3.33333 25.7489 3.03956 26.41 3.00016C26.7591 2.3623 27.2813 1.83609 27.9165 1.48222C28.5517 1.12835 29.274 0.961242 30 1.00016C31.0259 0.969448 32.0257 1.32651 32.8 2.00016C33.1236 2.28113 33.3916 2.62034 33.59 3.00016C34.0093 3.02977 34.4151 3.16083 34.7725 3.38206C35.1299 3.60328 35.4282 3.90805 35.6417 4.27012C35.8552 4.63219 35.9776 5.04072 35.9982 5.46055C36.0188 5.88037 35.9371 6.29892 35.76 6.68016Z" fill="#FFAC00"/>
<path d="M33.59 3.00012C33.3915 2.6203 33.1236 2.28109 32.8 2.00012C32.0257 1.32647 31.0259 0.969409 30 1.00012C29.4891 0.998556 28.9817 1.08481 28.5 1.25512C28.9773 1.41723 29.4188 1.67022 29.8 2.00012C30.1236 2.28109 30.3915 2.6203 30.59 3.00012C31.0093 3.02973 31.4151 3.16079 31.7725 3.38202C32.1299 3.60324 32.4282 3.90801 32.6417 4.27008C32.8552 4.63215 32.9775 5.04068 32.9981 5.46051C33.0187 5.88033 32.937 6.29888 32.76 6.68012C32.1578 7.86139 31.4303 8.97445 30.59 10.0001H33.59C34.4303 8.97445 35.1578 7.86139 35.76 6.68012C35.937 6.29888 36.0187 5.88033 35.9981 5.46051C35.9775 5.04068 35.8552 4.63215 35.6417 4.27008C35.4282 3.90801 35.1299 3.60324 34.7725 3.38202C34.4151 3.16079 34.0093 3.02973 33.59 3.00012Z" fill="#FFAC00"/>
<path d="M47.0001 33.0001C47.0092 33.9783 46.9086 34.9544 46.7001 35.9101L41.0401 42.3801C38.1501 43.5901 34.3501 44.0001 30.0001 44.0001C25.6501 44.0001 21.8501 43.5901 18.9601 42.3801L13.3001 35.9101C13.0916 34.9544 12.9909 33.9783 13.0001 33.0001C13.0001 26.3501 19.0001 17.0001 26.0001 14.0001H34.0001C40.0001 16.0001 47.0001 26.3501 47.0001 33.0001Z" fill="#FFAC00"/>
<path d="M34 14.0001H31C37 16.0001 44 26.3501 44 33.0001C44.0092 33.9783 43.9085 34.9544 43.7 35.9101L38.04 42.3801C34.9826 43.4847 31.7505 44.0268 28.5 43.9801C28.993 43.9921 29.492 43.9991 30 43.9991C34.35 43.9991 38.15 43.5891 41.04 42.3791L46.7 35.9091C46.9085 34.9537 47.0091 33.978 47 33.0001C47 26.3501 40 16.0001 34 14.0001Z" fill="#FFAC00"/>
<path d="M57.6851 19.9001C57.2028 19.4582 56.604 19.1637 55.9597 19.0512C55.3153 18.9388 54.6522 19.0132 54.0487 19.2656C53.4453 19.518 52.9267 19.9379 52.5543 20.4756C52.1818 21.0133 51.9711 21.6464 51.9471 22.3001L51.2031 31.3001C50.6482 31.2867 50.0973 31.3963 49.5898 31.6211C49.0823 31.8458 48.631 32.1802 48.2681 32.6001L48.0001 32.9161C47.9501 26.4491 42.0781 17.2831 36.2611 13.9561C36.5635 13.6142 36.7828 13.2071 36.9021 12.7665C37.0213 12.3259 37.0371 11.8637 36.9484 11.416C36.8596 10.9682 36.6687 10.547 36.3904 10.1852C36.1121 9.82342 35.754 9.53077 35.3441 9.3301C35.8447 8.62401 36.2868 7.87819 36.666 7.1001C36.9221 6.54634 37.0337 5.93671 36.9904 5.32815C36.947 4.71958 36.7501 4.13194 36.418 3.6201C36.1719 3.22041 35.8466 2.87536 35.462 2.60621C35.0774 2.33706 34.6418 2.1495 34.182 2.0551C33.709 1.39372 33.0795 0.859856 32.3497 0.501248C31.6199 0.142639 30.8126 -0.0295422 30 9.68631e-05C29.1873 -0.0293181 28.3799 0.14317 27.6501 0.502135C26.9203 0.861099 26.2909 1.39535 25.8181 2.0571C25.3583 2.1515 24.9227 2.33906 24.5381 2.60821C24.1535 2.87736 23.8282 3.22241 23.582 3.6221C23.2498 4.13387 23.0528 4.72153 23.0095 5.33013C22.9661 5.93873 23.0778 6.54839 23.334 7.1021C23.7149 7.87967 24.1588 8.62482 24.661 9.3301C24.2452 9.53431 23.883 9.83295 23.6032 10.2022C23.3234 10.5714 23.1339 11.0009 23.0497 11.4564C22.9656 11.912 22.9892 12.3809 23.1186 12.8257C23.248 13.2705 23.4796 13.6788 23.795 14.0181C17.45 17.7451 12.049 26.1881 12.005 32.9181L11.732 32.6071C11.3706 32.1854 10.9195 31.8498 10.4117 31.6249C9.90387 31.4 9.35221 31.2914 8.79705 31.3071L8.05405 22.3141C8.00725 21.4865 7.67016 20.702 7.10207 20.0984C6.53397 19.4948 5.77125 19.1109 4.94805 19.0141C4.47 18.9743 3.98887 19.033 3.53443 19.1866C3.07999 19.3402 2.66191 19.5854 2.30605 19.9071C1.67565 20.4926 1.28807 21.2934 1.22005 22.1511L0.0160451 37.3431C-0.0860475 38.6125 0.301847 39.8728 1.10005 40.8651L11.343 53.5291C11.7669 54.0608 11.9984 54.7202 12 55.4001V58.0001C12 58.5305 12.2108 59.0392 12.5858 59.4143C12.9609 59.7894 13.4696 60.0001 14 60.0001H22C22.5305 60.0001 23.0392 59.7894 23.4143 59.4143C23.7893 59.0392 24 58.5305 24 58.0001V48.8791C23.9999 47.4257 23.4722 46.0218 22.515 44.9281L21.991 44.3281C24.6314 44.8201 27.3146 45.0453 30 45.0001C32.6855 45.0453 35.3687 44.8201 38.009 44.3281L37.4851 44.9281C36.5279 46.0218 36.0002 47.4257 36 48.8791V58.0001C36 58.5305 36.2108 59.0392 36.5858 59.4143C36.9609 59.7894 37.4696 60.0001 38 60.0001H46C46.5305 60.0001 47.0392 59.7894 47.4143 59.4143C47.7893 59.0392 48.0001 58.5305 48.0001 58.0001V55.4001C48.0007 54.7208 48.2312 54.0617 48.6541 53.5301L58.9001 40.8611C59.6962 39.8694 60.0826 38.6107 59.9801 37.3431L58.7801 22.1511C58.7108 21.2899 58.3199 20.4862 57.6851 19.9001ZM26 13.0001C25.7348 13.0001 25.4805 12.8947 25.2929 12.7072C25.1054 12.5197 25 12.2653 25 12.0001C25 11.7349 25.1054 11.4805 25.2929 11.293C25.4805 11.1055 25.7348 11.0001 26 11.0001H34C34.2653 11.0001 34.5196 11.1055 34.7072 11.293C34.8947 11.4805 35 11.7349 35 12.0001C35 12.2653 34.8947 12.5197 34.7072 12.7072C34.5196 12.8947 34.2653 13.0001 34 13.0001H26ZM25.2701 4.7001C25.3862 4.49639 25.552 4.32539 25.752 4.203C25.9521 4.0806 26.1798 4.01081 26.414 4.0001C26.6041 3.99749 26.7897 3.94192 26.9499 3.83963C27.1101 3.73735 27.2387 3.59241 27.321 3.4211C27.5912 2.95851 27.9851 2.58046 28.4584 2.32943C28.9316 2.07841 29.4655 1.96435 30 2.0001C30.5325 1.9647 31.0643 2.07765 31.5363 2.3264C32.0084 2.57514 32.4022 2.94993 32.674 3.4091C32.7529 3.58504 32.881 3.73444 33.0428 3.8393C33.2046 3.94415 33.3932 3.99999 33.586 4.0001C33.8203 4.0109 34.048 4.08073 34.248 4.20312C34.448 4.3255 34.6138 4.49645 34.73 4.7001C34.8808 4.92791 34.9713 5.19021 34.9932 5.46249C35.015 5.73478 34.9675 6.00816 34.855 6.2571C34.3623 7.22726 33.7744 8.14611 33.1 9.0001H26.9C26.2258 8.14448 25.6382 7.22395 25.146 6.2521C25.0343 6.00389 24.9871 5.7315 25.0088 5.46018C25.0305 5.18886 25.1204 4.92742 25.2701 4.7001ZM22 58.0001H14V55.4001C13.998 54.263 13.6102 53.1602 12.9 52.2721L2.65705 39.6111C2.17932 39.0161 1.94777 38.2606 2.01005 37.5001L3.21005 22.3091C3.23698 21.9502 3.39964 21.6151 3.66493 21.3719C3.93021 21.1287 4.27819 20.9958 4.63805 21.0001C4.68205 21.0001 4.72705 21.0001 4.77105 21.0061C5.12316 21.0589 5.44541 21.2341 5.68115 21.5009C5.91689 21.7678 6.05105 22.1092 6.06005 22.4651L6.83805 31.8871C6.36748 32.1801 5.96671 32.5725 5.66384 33.0368C5.36098 33.501 5.16336 34.026 5.08485 34.5747C5.00634 35.1234 5.04883 35.6827 5.20934 36.2133C5.36986 36.7439 5.64452 37.2329 6.01405 37.6461L12.253 44.6641C12.4307 44.8567 12.6768 44.9719 12.9384 44.9849C13.2001 44.998 13.4564 44.9078 13.6523 44.7338C13.8481 44.5598 13.9679 44.3159 13.9858 44.0545C14.0037 43.7931 13.9184 43.5352 13.748 43.3361L7.50905 36.3171C7.31432 36.0966 7.17615 35.832 7.10645 35.5462C7.03675 35.2604 7.03762 34.9619 7.10897 34.6765C7.18032 34.391 7.32002 34.1273 7.51603 33.9079C7.71203 33.6885 7.95845 33.52 8.23405 33.4171C8.57827 33.288 8.95378 33.2673 9.31008 33.358C9.66638 33.4486 9.98638 33.6462 10.227 33.9241L21.01 46.2441C21.6479 46.9738 21.9997 47.9099 22 48.8791V58.0001ZM30 43.0001C25.428 43.0001 22.009 42.5161 19.542 41.5301L14.242 35.4691C14.0778 34.6565 13.9967 33.8292 14 33.0001C14 26.4941 19.919 17.8111 26.2281 15.0001H33.808C39.31 16.9471 46 26.7901 46 33.0001C46.0044 33.8291 45.9243 34.6563 45.7611 35.4691L40.461 41.5301C37.991 42.5161 34.572 43.0001 30 43.0001ZM57.3461 39.6071L47.1 52.2791C46.3911 53.1652 46.0034 54.2653 46 55.4001V58.0001H38V48.8791C38.0004 47.9099 38.3522 46.9738 38.9901 46.2441L49.7731 33.9201C49.9419 33.7253 50.1506 33.5691 50.3851 33.4619C50.6195 33.3548 50.8743 33.2993 51.1321 33.2991C51.4818 33.2987 51.8242 33.3994 52.1181 33.5891C52.4119 33.7788 52.6447 34.0494 52.7883 34.3683C52.9319 34.6872 52.9802 35.0408 52.9275 35.3866C52.8748 35.7323 52.7232 36.0555 52.4911 36.3171L46.252 43.3361C46.162 43.4338 46.0922 43.5485 46.047 43.6734C46.0017 43.7983 45.9818 43.9311 45.9884 44.0638C45.995 44.1965 46.028 44.3266 46.0855 44.4464C46.1429 44.5662 46.2237 44.6734 46.3231 44.7617C46.4224 44.8499 46.5384 44.9175 46.6641 44.9604C46.7899 45.0034 46.9229 45.0208 47.0555 45.0117C47.1881 45.0026 47.3175 44.9672 47.4363 44.9075C47.555 44.8478 47.6607 44.7651 47.7471 44.6641L53.9861 37.6461C54.3556 37.2329 54.6302 36.7439 54.7908 36.2133C54.9513 35.6827 54.9938 35.1234 54.9152 34.5747C54.8367 34.026 54.6391 33.501 54.3363 33.0368C54.0334 32.5725 53.6326 32.1801 53.1621 31.8871L53.9411 22.4541C53.9518 22.1 54.0867 21.7609 54.3221 21.4962C54.5576 21.2315 54.8786 21.058 55.2291 21.0061C55.4171 20.9867 55.6071 21.0052 55.7879 21.0604C55.9687 21.1157 56.1366 21.2065 56.2817 21.3277C56.4269 21.4489 56.5462 21.5979 56.6329 21.7659C56.7195 21.9339 56.7716 22.1176 56.7861 22.3061L57.9901 37.5001C58.0525 38.2589 57.8221 39.0129 57.3461 39.6071Z" fill="#1F1F1F"/>
<path d="M30 25.0001C30.5304 25.0001 31.0391 25.2108 31.4142 25.5859C31.7893 25.961 32 26.4697 32 27.0001C32 27.2653 32.1054 27.5197 32.2929 27.7072C32.4804 27.8948 32.7348 28.0001 33 28.0001C33.2652 28.0001 33.5196 27.8948 33.7071 27.7072C33.8946 27.5197 34 27.2653 34 27.0001C33.9967 26.1159 33.7005 25.2577 33.1577 24.5597C32.6149 23.8617 31.8561 23.3632 31 23.1421V22.0001C31 21.7349 30.8946 21.4806 30.7071 21.293C30.5196 21.1055 30.2652 21.0001 30 21.0001C29.7348 21.0001 29.4804 21.1055 29.2929 21.293C29.1054 21.4806 29 21.7349 29 22.0001V23.1421C28.0584 23.3845 27.2376 23.9622 26.6916 24.7668C26.1457 25.5714 25.9122 26.5475 26.035 27.5121C26.1577 28.4766 26.6283 29.3632 27.3583 30.0054C28.0883 30.6476 29.0277 31.0013 30 31.0001C30.3956 31.0001 30.7822 31.1174 31.1111 31.3372C31.44 31.5569 31.6964 31.8693 31.8478 32.2348C31.9991 32.6002 32.0387 33.0023 31.9616 33.3903C31.8844 33.7783 31.6939 34.1346 31.4142 34.4143C31.1345 34.694 30.7781 34.8845 30.3902 34.9617C30.0022 35.0389 29.6001 34.9993 29.2346 34.8479C28.8692 34.6965 28.5568 34.4402 28.3371 34.1113C28.1173 33.7824 28 33.3957 28 33.0001C28 32.7349 27.8946 32.4806 27.7071 32.293C27.5196 32.1055 27.2652 32.0001 27 32.0001C26.7348 32.0001 26.4804 32.1055 26.2929 32.293C26.1054 32.4806 26 32.7349 26 33.0001C26.0033 33.8843 26.2995 34.7425 26.8423 35.4406C27.3851 36.1386 28.1439 36.6371 29 36.8581V38.0001C29 38.2653 29.1054 38.5197 29.2929 38.7072C29.4804 38.8948 29.7348 39.0001 30 39.0001C30.2652 39.0001 30.5196 38.8948 30.7071 38.7072C30.8946 38.5197 31 38.2653 31 38.0001V36.8581C31.9416 36.6158 32.7624 36.0381 33.3084 35.2335C33.8543 34.4289 34.0878 33.4527 33.965 32.4882C33.8423 31.5236 33.3717 30.637 32.6417 29.9948C31.9117 29.3526 30.9723 28.9989 30 29.0001C29.4696 29.0001 28.9609 28.7894 28.5858 28.4143C28.2107 28.0393 28 27.5306 28 27.0001C28 26.4697 28.2107 25.961 28.5858 25.5859C28.9609 25.2108 29.4696 25.0001 30 25.0001Z" fill="#1F1F1F"/>
</g>
<defs>
<clipPath id="clip0_152_824">
<rect width="60" height="60" fill="white"/>
</clipPath>
</defs>
</svg>
