<svg width="122" height="62" viewBox="0 0 122 62" fill="none" xmlns="http://www.w3.org/2000/svg">
<path d="M9.51253 13.3279C8.76004 11.4028 9.08672 9.18927 9.77987 7.3276C10.5091 5.36863 11.779 3.41504 13.677 2.38477C13.7711 4.44913 13.1447 6.48869 12.4602 8.32782C11.8446 9.98203 11.0893 11.7444 9.84205 13.1124C9.6504 14.149 9.50353 15.1828 9.40025 16.2117C9.81362 15.1247 10.4839 14.1339 11.3203 13.3372C12.397 12.3113 13.9988 11.5198 15.5024 11.9879C15.062 13.6609 14.0581 15.2647 12.8693 16.3897C11.9336 17.2753 10.6983 18.41 9.2433 18.4546C9.18337 19.9688 9.21725 21.4692 9.34102 22.9492C9.54629 21.8661 9.98608 20.8462 10.6215 20.0867C11.4945 19.0431 12.7889 17.768 14.4419 17.9813C14.3516 19.6747 13.6806 21.4096 12.7462 22.7133C12.0037 23.7493 11.0234 25.0696 9.63205 25.4107C9.85484 26.865 10.1652 28.2952 10.5589 29.6946C10.5627 28.623 10.7978 27.5713 11.2642 26.7278C11.9216 25.5382 12.9454 24.0547 14.6004 23.9387C14.843 25.6 14.5143 27.416 13.8512 28.8603C13.3213 30.0148 12.6147 31.4871 11.3269 32.0962C11.8677 33.6019 12.5077 35.0654 13.2414 36.4781C12.9838 35.2605 12.9941 33.9775 13.299 32.8231C13.7191 31.2316 14.7621 29.5598 16.4364 29.0747C17.0283 30.8317 16.9467 32.7925 16.6028 34.5784C16.3199 36.0487 15.7639 37.7757 14.5176 38.7308C15.3324 40.0544 16.2338 41.3247 17.2168 42.5333C16.6886 41.3479 16.4261 40.0516 16.567 38.8646C16.7721 37.1355 17.2548 35.2858 19.0093 34.3639C20.0047 36.0927 20.2354 38.0323 20.3199 39.9479C20.3883 41.4966 20.1667 43.4068 19.0982 44.6667C20.2735 45.8968 21.5417 47.0481 22.8963 48.1098C22.0218 46.9805 21.4094 45.6554 21.2797 44.3449C21.0966 42.4934 21.1861 40.4552 22.8184 39.0964C24.2145 40.5641 25.0475 42.7257 25.4558 44.6031C25.8168 46.263 26.1937 48.2277 25.3341 49.8613C27.058 50.994 28.8983 51.9919 30.844 52.837C29.4749 51.8549 28.3542 50.5075 27.8202 49.1163C27.1205 47.2927 26.6877 45.1197 28.0507 43.2933C29.8768 44.4707 31.2189 46.4795 32.2763 48.3116C33.1836 49.8837 34.1228 52.0534 33.6568 53.9257C34.7341 54.2937 35.8392 54.6168 36.9707 54.8924L36.9034 55.172C35.7676 54.8953 34.6583 54.5711 33.5766 54.2021C32.8188 56.4564 30.3363 57.2011 28.3286 57.53C25.468 57.9984 22.0618 57.0907 19.6197 55.2622C20.9086 53.4285 23.5385 53.2425 25.5215 53.1022L25.5473 53.1004C27.7198 52.9467 30.0694 53.152 32.254 53.7234C29.7303 52.7563 27.3688 51.5404 25.1913 50.1109L25.1592 50.162C23.966 52.1096 21.5703 52.1856 19.6898 52.0624C17.1381 51.8952 14.1921 50.3334 12.4871 48.1745C14.0908 46.758 16.4596 47.1545 18.2951 47.4616L18.304 47.4631C20.3525 47.8058 22.591 48.5537 24.4701 49.7051C24.2911 49.5632 24.1159 49.4131 23.9457 49.2557C22.1188 47.9445 20.4335 46.4779 18.9043 44.8787C18.8865 44.8966 18.8685 44.9144 18.8504 44.932C17.3634 46.4378 15.1977 46.0435 13.5076 45.5535C11.2459 44.8977 8.90028 42.9193 7.77622 40.6481C9.5181 39.6656 11.6006 40.4752 13.2205 41.1156C14.9984 41.8184 16.8794 42.9428 18.3258 44.3761C18.1766 44.1867 18.0344 43.9889 17.9 43.7842C16.5556 42.2568 15.3462 40.6214 14.2831 38.896L14.2298 38.9296C12.5476 40.0223 10.6417 39.231 9.13114 38.4528C7.08307 37.3977 5.43726 35.0789 4.72611 32.7985C6.54296 32.2127 8.33802 33.3625 9.73344 34.273C11.2596 35.2689 12.8056 36.6891 13.8667 38.3179C13.7888 38.1575 13.7162 37.9934 13.6493 37.8262C12.6297 36.0356 11.7635 34.1558 11.0623 32.2058L11.0262 32.2182L11.0232 32.2193C9.4937 32.8046 7.79044 31.8946 6.68 30.8967C5.13664 29.5098 4.04883 27.3776 3.79381 25.2945C5.38846 25.0865 6.89084 26.3284 7.918 27.3877C9.10034 28.6068 10.1615 30.0477 10.8139 31.6482C10.7663 31.4743 10.7254 31.2978 10.6911 31.1194C10.0974 29.2869 9.64768 27.3971 9.35121 25.4651L9.32811 25.468L9.32029 25.4693C7.70326 25.741 6.20823 24.5035 5.31502 23.3025C4.06186 21.6172 3.41585 19.2847 3.57777 17.1706C5.18852 17.284 6.41504 18.8265 7.2104 20.0742C8.13097 21.5187 8.89436 23.1535 9.22873 24.8637C9.21855 24.7277 9.21251 24.5908 9.21038 24.4535C8.96484 22.4872 8.8773 20.4805 8.95737 18.4491L8.95275 18.4488C7.30872 18.3892 6.09369 16.8527 5.4664 15.4898C4.56881 13.5394 4.4243 11.0741 5.02341 8.99635C6.59034 9.43905 7.46388 11.2484 7.97948 12.6411C8.57396 14.2469 8.98888 15.9983 8.9922 17.7395C9.07772 16.2787 9.24994 14.8063 9.51253 13.3279Z" fill="white"/>
<path d="M41.8927 9.72363V16.6984C41.8927 19.7661 39.1327 21.242 34.9495 21.242C31.0395 21.242 28.2363 19.7806 28.2363 16.3366V9.72363H32.132V16.3366C32.132 17.5666 33.1814 18.3335 35.1077 18.3335C36.9477 18.3335 38.0403 17.5377 38.0403 16.3511V9.72363H41.8927Z" fill="white"/>
<path d="M54.8671 18.0586V21.0829H44.1001V9.72363H47.9958V18.0586H54.8671Z" fill="white"/>
<path d="M66.4447 12.5743V9.72363H52.9751V12.5743H57.7333V21.0829H61.6722V12.5743H66.4447Z" fill="white"/>
<path fill-rule="evenodd" clip-rule="evenodd" d="M80.2629 10.8814C80.7805 11.4167 81.0257 12.1547 81.0257 13.182C81.0257 14.0648 80.8101 14.8173 80.45 15.3237C80.0473 15.8736 79.429 16.3366 78.6674 16.4524L82.0751 21.0829H77.7909L74.9873 17.0746H71.4945V21.0829H67.6562V9.72363H76.6408C78.4234 9.72363 79.5877 10.1578 80.2629 10.8814ZM77.1584 14.1372C77.2591 13.9635 77.2875 13.7319 77.2875 13.5439C77.2875 13.3268 77.2591 13.0952 77.1584 12.9506C76.957 12.5743 76.5543 12.4731 75.9502 12.4731H71.5088V14.5423H76.0225C76.6408 14.5423 77.0151 14.4266 77.1584 14.1372Z" fill="white"/>
<path fill-rule="evenodd" clip-rule="evenodd" d="M87.2609 18.9848H93.3562L94.3476 21.0829H98.5027L92.8102 9.72363H88.1671L82.144 21.0829H86.2115L87.2609 18.9848ZM92.1338 16.4379H88.5259L89.9497 13.7031L90.3808 12.6611L90.7835 13.6885L92.1338 16.4379Z" fill="white"/>
<path fill-rule="evenodd" clip-rule="evenodd" d="M79.852 23.2227C77.4404 23.2227 76.1719 24.3732 76.1719 26.0639C76.1719 27.9722 77.5032 28.9402 79.852 28.9402C82.4377 28.9402 83.525 27.8178 83.525 26.0639C83.525 24.282 82.2979 23.2227 79.852 23.2227ZM79.852 27.5302C78.4792 27.5302 78.0812 26.962 78.0812 26.085C78.0812 25.2222 78.5136 24.6539 79.8449 24.6539C81.3018 24.6539 81.6287 25.2923 81.6287 26.085C81.6287 26.9269 81.2319 27.5302 79.852 27.5302Z" fill="white"/>
<path d="M72.5976 28.8553V25.5931H68.9596V26.7788H70.904C70.8902 26.87 70.8204 27.0454 70.7298 27.1505C70.5277 27.3891 69.991 27.5995 69.2941 27.5995C68.5693 27.5995 68.1024 27.4101 67.8515 27.1155C67.6843 26.898 67.5867 26.5893 67.5867 26.1263C67.5867 25.6422 67.6843 25.3126 67.8724 25.0951C68.1442 24.7864 68.6041 24.6531 69.2802 24.6531C69.8866 24.6531 70.3047 24.7933 70.4999 24.9687C70.6253 25.074 70.7228 25.2214 70.7438 25.3195H72.5488C72.5419 25.1441 72.4861 24.8635 72.3885 24.6601C71.9564 23.7762 70.9528 23.25 69.2454 23.25C67.7609 23.25 66.7643 23.7059 66.2138 24.3935C65.8513 24.8635 65.6841 25.4528 65.6841 26.1123C65.6841 26.8419 65.8792 27.4662 66.1998 27.8802C66.7434 28.5888 67.7121 28.9395 68.876 28.9395C69.9005 28.9395 70.6044 28.694 71.0504 28.3222L71.0992 28.8553H72.5976Z" fill="white"/>
<path d="M53.6128 25.5236C55.0275 25.6779 55.6339 26.1831 55.6339 27.1442C55.6339 28.3087 54.5048 28.94 52.2816 28.94C50.2118 28.94 49.3197 28.3508 48.9781 27.5791C48.9015 27.3967 48.8667 27.1722 48.8457 27.0319H50.8529C50.8669 27.116 50.9157 27.2423 50.9853 27.3265C51.1526 27.53 51.6195 27.6492 52.414 27.6492C53.4386 27.6492 53.6825 27.5019 53.6825 27.2284C53.6825 26.9336 53.4316 26.8705 52.5046 26.7723C52.1353 26.7372 51.5498 26.6811 51.306 26.6601C49.5358 26.4987 48.8806 25.9445 48.8806 24.9974C48.8806 24.0152 50.0375 23.2646 52.1492 23.2646C54.024 23.2646 54.8951 23.8259 55.2576 24.5274C55.369 24.7379 55.4387 24.9763 55.4596 25.1447H53.4524C53.4455 25.0675 53.4176 24.9904 53.341 24.8921C53.1876 24.6887 52.7973 24.5554 52.1004 24.5554C51.1177 24.5554 50.8599 24.6747 50.8599 24.9272C50.8599 25.2079 51.1875 25.2711 52.2816 25.3903C52.7067 25.4253 53.3828 25.4955 53.6128 25.5236Z" fill="white"/>
<path fill-rule="evenodd" clip-rule="evenodd" d="M33.6042 23.8186C33.9735 24.1133 34.1825 24.6114 34.1825 25.3339C34.1825 25.9233 34.0363 26.3652 33.7574 26.6739C33.3811 27.1088 32.7608 27.3053 31.9524 27.3123C31.7014 27.3194 29.5549 27.3123 29.5549 27.3123V28.8557H27.6802V23.3486H31.9245C32.6772 23.3486 33.2487 23.5029 33.6042 23.8186ZM32.2173 25.7619C32.2729 25.6637 32.3009 25.5374 32.3009 25.362C32.3009 25.1797 32.266 25.0253 32.2033 24.9411C32.0848 24.7657 31.8618 24.6815 31.4994 24.6815H29.541V26.0285H31.4854C31.8757 26.0285 32.1057 25.9373 32.2173 25.7619Z" fill="white"/>
<path fill-rule="evenodd" clip-rule="evenodd" d="M41.0408 23.9099C41.2918 24.1694 41.4102 24.5272 41.4102 25.0253C41.4102 25.4532 41.3056 25.818 41.1314 26.0635C40.9363 26.3301 40.6367 26.5546 40.2672 26.6108L41.919 28.8557H39.8421L38.4831 26.9124H36.7895V28.8557H34.9287V23.3486H39.2846C40.1488 23.3486 40.7133 23.5591 41.0408 23.9099ZM39.5355 25.4883C39.5843 25.4042 39.5981 25.2919 39.5981 25.2006C39.5981 25.0955 39.5843 24.9832 39.5355 24.9131C39.4379 24.7306 39.2428 24.6815 38.9501 24.6815H36.7965V25.6847H38.9849C39.2846 25.6847 39.4658 25.6286 39.5355 25.4883Z" fill="white"/>
<path d="M48.2807 28.8557V27.4877H44.357V26.7721H48.1204V25.4322H44.357V24.7236H48.2319V23.3486H42.5171V28.8557H48.2807Z" fill="white"/>
<path d="M62.4155 24.7306V23.3486H55.8853V24.7306H58.192V28.8557H60.1016V24.7306H62.4155Z" fill="white"/>
<path d="M64.9268 23.3486V28.8557H63.0103V23.3486H64.9268Z" fill="white"/>
<path d="M75.415 23.3486V28.8557H73.498V23.3486H75.415Z" fill="white"/>
<path d="M90.9195 23.3486V26.73C90.9195 28.2173 89.5811 28.9329 87.5533 28.9329C85.6581 28.9329 84.2983 28.2243 84.2983 26.5546V23.3486H86.1876V26.5546C86.1876 27.1509 86.6957 27.5228 87.6302 27.5228C88.5222 27.5228 89.0516 27.137 89.0516 26.5617V23.3486H90.9195Z" fill="white"/>
<path d="M98.4435 27.1442C98.4435 26.1831 97.837 25.6779 96.4228 25.5236C96.1918 25.4955 95.5166 25.4253 95.0914 25.3903C93.997 25.2711 93.6689 25.2079 93.6689 24.9272C93.6689 24.6747 93.9271 24.5554 94.9102 24.5554C95.6067 24.5554 95.9975 24.6887 96.1503 24.8921C96.2273 24.9904 96.2546 25.0675 96.2617 25.1447H98.2693C98.248 24.9763 98.1781 24.7379 98.0668 24.5274C97.7043 23.8259 96.8338 23.2646 94.9588 23.2646C92.8468 23.2646 91.6896 24.0152 91.6896 24.9974C91.6896 25.9445 92.3458 26.4987 94.1154 26.6601L94.2291 26.6702L94.4186 26.6876L95.3141 26.7723C96.2415 26.8705 96.4914 26.9336 96.4914 27.2284C96.4914 27.5019 96.2486 27.6492 95.2241 27.6492C94.4293 27.6492 93.9626 27.53 93.7944 27.3265C93.7257 27.2423 93.676 27.116 93.6629 27.0319H91.6553C91.6766 27.1722 91.7109 27.3967 91.7879 27.5791C92.1291 28.3508 93.021 28.94 95.0914 28.94C97.3147 28.94 98.4435 28.3087 98.4435 27.1442Z" fill="white"/>
<path fill-rule="evenodd" clip-rule="evenodd" d="M49.708 30.9639C48.1408 30.9639 47.3164 31.7117 47.3164 32.8105C47.3164 34.0506 48.1815 34.6798 49.708 34.6798C51.3885 34.6798 52.095 33.9504 52.095 32.8105C52.095 31.6524 51.2979 30.9639 49.708 30.9639ZM49.708 33.7634C48.8157 33.7634 48.5575 33.394 48.5575 32.8241C48.5575 32.2634 48.8383 31.894 49.7035 31.894C50.6501 31.894 50.8631 32.3089 50.8631 32.8241C50.8631 33.3713 50.6048 33.7634 49.708 33.7634Z" fill="white"/>
<path d="M40.9928 33.5136C40.9928 32.8889 40.5988 32.5605 39.6793 32.4603C39.5298 32.442 39.0905 32.3965 38.8141 32.3737C38.103 32.2961 37.8901 32.2551 37.8901 32.0728C37.8901 31.9086 38.0577 31.8311 38.6964 31.8311C39.1493 31.8311 39.4029 31.9177 39.5027 32.0499C39.5524 32.1138 39.5705 32.1639 39.5751 32.2141H40.8796C40.866 32.1046 40.8207 31.9496 40.7482 31.8129C40.5127 31.3569 39.9465 30.9922 38.728 30.9922C37.3557 30.9922 36.6038 31.48 36.6038 32.1183C36.6038 32.7339 37.0295 33.0941 38.18 33.1989C38.3386 33.2126 38.719 33.2491 38.9591 33.2719C39.5615 33.3357 39.7245 33.3768 39.7245 33.5683C39.7245 33.7461 39.566 33.8418 38.9002 33.8418C38.3838 33.8418 38.0804 33.7643 37.9716 33.6321C37.9264 33.5773 37.8946 33.4953 37.8856 33.4406H36.5811C36.5947 33.5318 36.6173 33.6776 36.6672 33.7963C36.8891 34.2977 37.4689 34.6807 38.8141 34.6807C40.2591 34.6807 40.9928 34.2704 40.9928 33.5136Z" fill="white"/>
<path fill-rule="evenodd" clip-rule="evenodd" d="M31.9488 33.6129C31.9488 33.8591 31.8808 34.1008 31.745 34.2604C31.5366 34.5158 31.1471 34.6251 30.6444 34.6251H27.4873V31.0459H30.5583C31.0475 31.0459 31.36 31.1645 31.5321 31.3423C31.6861 31.4973 31.7541 31.7025 31.7541 31.935C31.7541 32.1676 31.6997 32.3591 31.582 32.5004C31.4868 32.619 31.3238 32.7101 31.1517 32.733C31.4053 32.7648 31.6454 32.8925 31.7812 33.0703C31.8945 33.2025 31.9488 33.4032 31.9488 33.6129ZM30.4224 32.3591C30.4677 32.3089 30.4949 32.2359 30.4949 32.1494C30.4949 32.0627 30.4677 31.9897 30.4088 31.9397C30.3454 31.8803 30.2276 31.8575 30.0555 31.8575H28.674V32.4411H30.0872C30.2412 32.4411 30.359 32.4184 30.4224 32.3591ZM30.2186 33.8136C30.4314 33.8136 30.5583 33.7862 30.6308 33.7179C30.676 33.6722 30.6941 33.6039 30.6941 33.5172C30.6941 33.426 30.6715 33.3577 30.6171 33.3029C30.5493 33.2437 30.4314 33.2163 30.2322 33.2163H28.674V33.8136H30.2186Z" fill="white"/>
<path d="M36.2136 33.7361V34.6251H32.4678V31.0459H36.1819V31.9397H33.6635V32.4001H36.1094V33.271H33.6635V33.7361H36.2136Z" fill="white"/>
<path d="M45.4003 31.0459V31.9442H43.8965V34.6251H42.6555V31.9442H41.1562V31.0459H45.4003Z" fill="white"/>
<path d="M56.2401 31.0459V31.9532H53.8259V32.4594H56.1268V33.3577H53.8259V34.6251H52.6074V31.0459H56.2401Z" fill="white"/>
<path d="M62.3769 31.9442V31.0459H58.1328V31.9442H59.6321V34.6251H60.8732V31.9442H62.3769Z" fill="white"/>
<path d="M67.0075 31.0459V34.6251H65.7935V33.3257H63.9726V34.6251H62.7588V31.0459H63.9726V32.3499H65.7935V31.0459H67.0075Z" fill="white"/>
<path d="M71.472 34.6251V33.7361H68.9218V33.271H71.3677V32.4001H68.9218V31.9397H71.4402V31.0459H67.7261V34.6251H71.472Z" fill="white"/>
<path d="M78.9814 31.0459H80.154L78.8546 34.6251H77.5233C77.5233 34.6251 76.8114 32.4868 76.8067 32.4274C76.8031 32.4868 76.0865 34.6251 76.0865 34.6251H74.7599L73.4282 31.0459H74.7457C74.7457 31.0459 75.5168 33.2983 75.5168 33.353C75.5168 33.2983 76.2275 31.0459 76.2275 31.0459H77.5008C77.5008 31.0459 78.2162 33.2983 78.2162 33.353C78.2162 33.2983 78.9814 31.0459 78.9814 31.0459Z" fill="white"/>
<path fill-rule="evenodd" clip-rule="evenodd" d="M82.4803 30.9639C80.9133 30.9639 80.0889 31.7117 80.0889 32.8105C80.0889 34.0506 80.9535 34.6798 82.4803 34.6798C84.1611 34.6798 84.867 33.9504 84.867 32.8105C84.867 31.6524 84.0699 30.9639 82.4803 30.9639ZM82.4803 33.7634C81.5884 33.7634 81.3302 33.394 81.3302 32.8241C81.3302 32.2634 81.6109 31.894 82.4756 31.894C83.4231 31.894 83.6352 32.3089 83.6352 32.8241C83.6352 33.3713 83.377 33.7634 82.4803 33.7634Z" fill="white"/>
<path fill-rule="evenodd" clip-rule="evenodd" d="M89.3526 31.4107C89.5148 31.5795 89.5918 31.812 89.5918 32.1357C89.5918 32.4138 89.5243 32.6509 89.4106 32.8105C89.2839 32.9838 89.0896 33.1297 88.8492 33.1661L89.9223 34.6251H88.5732L87.6896 33.3622H86.5892V34.6251H85.3799V31.0459H88.2108C88.7722 31.0459 89.1394 31.1828 89.3526 31.4107ZM88.3742 32.4366C88.405 32.3819 88.4145 32.3089 88.4145 32.2497C88.4145 32.1812 88.405 32.1084 88.3742 32.0627C88.3103 31.9442 88.1835 31.9122 87.9928 31.9122H86.594V32.5643H88.0153C88.2108 32.5643 88.328 32.5278 88.3742 32.4366Z" fill="white"/>
<path d="M93.7043 34.6251V33.6722H91.5391V31.0459H90.312V34.6251H93.7043Z" fill="white"/>
<path fill-rule="evenodd" clip-rule="evenodd" d="M98.5075 32.7694C98.5075 33.3257 98.453 33.6266 98.2907 33.9093C98.0455 34.3606 97.5611 34.6251 96.7047 34.6251H94.1865V31.0459H96.6775C97.5291 31.0459 98.0325 31.2876 98.2812 31.7025C98.4577 31.9807 98.5075 32.277 98.5075 32.7694ZM96.4737 33.7452C96.8587 33.7452 97.0766 33.654 97.2081 33.4534C97.2898 33.3302 97.3123 33.043 97.3123 32.7923C97.3076 32.5643 97.2804 32.3226 97.2081 32.2132C97.0671 31.9989 96.8551 31.9214 96.4832 31.9214H95.4006V33.7452H96.4737Z" fill="white"/>
<path d="M49.919 52.0332H48.0421C48.0421 52.0332 46.8174 55.637 46.8174 55.7245C46.8174 55.637 45.6724 52.0332 45.6724 52.0332H43.6359C43.6359 52.0332 42.4981 55.637 42.4981 55.7245C42.4981 55.637 41.2662 52.0332 41.2662 52.0332H39.1572L41.2878 57.7597H43.4112C43.4112 57.7597 44.5563 54.3384 44.5635 54.2436C44.5708 54.3384 45.7085 57.7597 45.7085 57.7597H47.8391L49.919 52.0332Z" fill="white"/>
<path d="M52.4876 57.7597V52.0332H50.4946V57.7597H52.4876Z" fill="white"/>
<path d="M60.2394 52.0332V57.7597H58.2971L55.4781 54.5719V57.7597H53.6084V52.0332H55.652L58.384 55.1482V52.0332H60.2394Z" fill="white"/>
<path d="M68.0031 57.7597V52.0332H66.1478V55.1482L63.4158 52.0332H61.3721V57.7597H63.2418V54.5719L66.0609 57.7597H68.0031Z" fill="white"/>
<path d="M75.1296 56.3372V57.7597H69.1357V52.0332H75.0787V53.463H71.049V54.1999H74.9626V55.5932H71.049V56.3372H75.1296Z" fill="white"/>
<path fill-rule="evenodd" clip-rule="evenodd" d="M82.7894 53.7767C82.7894 53.2588 82.6662 52.8868 82.4056 52.6168C82.0645 52.2521 81.4782 52.0332 80.5792 52.0332H76.0498V57.7597H77.9852V55.739H79.7465L81.1596 57.7597H83.3189L81.6014 55.4254C81.9852 55.367 82.2967 55.1336 82.5004 54.8564C82.6804 54.6011 82.7894 54.2217 82.7894 53.7767ZM80.9049 53.9591C80.9049 54.0539 80.8907 54.1707 80.8398 54.2582C80.7675 54.4041 80.5792 54.4624 80.2677 54.4624H77.9923V53.4193H80.231C80.5354 53.4193 80.7391 53.4703 80.8398 53.66C80.8907 53.733 80.9049 53.8497 80.9049 53.9591Z" fill="white"/>
<path d="M44.1324 41.9301L43.3465 39.4951L42.5605 41.9301H40.0171L42.0747 43.4349L41.2889 45.8698L43.3465 44.365L45.404 45.8698L44.6182 43.4349L46.6758 41.9301H44.1324Z" fill="white"/>
<path d="M52.4202 39.4932L53.2222 41.9281H55.8175L53.7179 43.433L54.5199 45.8678L52.4202 44.363L50.3206 45.8678L51.1226 43.433L49.0229 41.9281H51.6182L52.4202 39.4932Z" fill="white"/>
<path d="M62.2237 41.9281L61.4218 39.4932L60.6198 41.9281H58.0244L60.1241 43.433L59.3221 45.8678L61.4218 44.363L63.5214 45.8678L62.7194 43.433L64.8191 41.9281H62.2237Z" fill="white"/>
<path d="M70.4232 39.4932L71.2252 41.9281H73.8205L71.7209 43.433L72.5229 45.8678L70.4232 44.363L68.3236 45.8678L69.1256 43.433L67.0259 41.9281H69.6213L70.4232 39.4932Z" fill="white"/>
<path d="M80.283 41.9281L79.4965 39.4932L78.71 41.9281H76.167L78.2244 43.433L77.4391 45.8678L79.4965 44.363L81.5539 45.8678L80.7686 43.433L82.8261 41.9281H80.283Z" fill="white"/>
<path d="M113.28 13.3809C114.032 11.4559 113.705 9.24212 113.012 7.38045C112.283 5.42161 111.013 3.46777 109.115 2.4375C109.021 4.50198 109.647 6.54142 110.332 8.38056C110.948 10.0346 111.702 11.7969 112.95 13.1648C113.141 14.2012 113.288 15.2347 113.391 16.2634C112.978 15.1768 112.309 14.1865 111.473 13.39C110.396 12.3641 108.793 11.5726 107.29 12.0407C107.731 13.7136 108.734 15.3175 109.923 16.4426C110.859 17.3281 112.094 18.4627 113.549 18.5074C113.609 20.0218 113.575 21.5223 113.451 23.0024C113.246 21.9193 112.806 20.8994 112.17 20.1399C111.297 19.0962 110.003 17.8212 108.35 18.0346C108.44 19.7279 109.112 21.4628 110.046 22.7665C110.788 23.8025 111.769 25.1229 113.16 25.4641C112.938 26.9181 112.627 28.348 112.233 29.7473C112.229 28.6759 111.995 27.6242 111.528 26.7806C110.871 25.5912 109.846 24.1076 108.192 23.9916C107.949 25.6528 108.278 27.4688 108.941 28.9132C109.471 30.0677 110.178 31.5399 111.465 32.1491C110.924 33.655 110.285 35.1189 109.55 36.5317C109.808 35.3138 109.798 34.0306 109.493 32.8758C109.073 31.2843 108.031 29.6125 106.356 29.1274C105.763 30.8846 105.845 32.8453 106.19 34.6311C106.473 36.1016 107.028 37.8285 108.275 38.7837C107.46 40.108 106.558 41.3789 105.574 42.5881C106.103 41.4022 106.365 40.1051 106.224 38.9177C106.019 37.1884 105.537 35.3388 103.783 34.4171C102.787 36.1459 102.556 38.0855 102.472 40.0012C102.403 41.55 102.625 43.4603 103.694 44.7203C102.518 45.9501 101.251 47.101 99.8968 48.1624C100.771 47.0331 101.383 45.7081 101.512 44.3978C101.696 42.5462 101.607 40.5081 99.9738 39.1493C98.5785 40.617 97.7446 42.7785 97.3372 44.6559C96.9759 46.3157 96.5992 48.2805 97.458 49.9141C95.7346 51.0471 93.8939 52.0451 91.9478 52.8905C93.3171 51.9083 94.4376 50.5606 94.9718 49.1692C95.6718 47.3456 96.1041 45.1725 94.742 43.3462C92.9155 44.5236 91.5735 46.5323 90.5158 48.3645C89.6085 49.9367 88.6692 52.1065 89.1359 53.9788C88.058 54.3468 86.9529 54.6699 85.8218 54.9455L85.8893 55.2251C87.024 54.9484 88.1339 54.6242 89.2153 54.2552C89.9733 56.5094 92.456 57.2543 94.4636 57.583C97.3241 58.0515 100.731 57.1439 103.173 55.3153C101.883 53.4816 99.2536 53.2956 97.2708 53.1553L97.2448 53.1535C95.0725 52.9998 92.7225 53.2051 90.5383 53.7766C93.0612 52.8095 95.4231 51.5934 97.6013 50.1638L97.6309 50.2115C98.8237 52.1623 101.221 52.2386 103.102 52.1154C105.654 51.9482 108.6 50.3864 110.305 48.2275C108.701 46.8113 106.333 47.2075 104.497 47.5145L104.488 47.5162C102.44 47.8588 100.202 48.6063 98.3238 49.7573C98.5027 49.6156 98.6768 49.4657 98.8474 49.3084C100.674 47.9975 102.358 46.5311 103.887 44.9322C103.909 44.9535 103.93 44.9745 103.951 44.9954C105.439 46.4895 107.598 46.0953 109.285 45.6063C111.547 44.9505 113.892 42.9721 115.016 40.7009C113.274 39.7185 111.192 40.5279 109.573 41.1684C107.792 41.8719 105.91 42.9975 104.463 44.4327C104.612 44.2431 104.755 44.045 104.89 43.8399C106.235 42.3117 107.445 40.6753 108.509 38.9488L108.555 38.9776L108.567 38.9851C110.248 40.0739 112.152 39.2833 113.661 38.5056C115.709 37.4506 117.356 35.1318 118.066 32.8514C116.25 32.2656 114.455 33.4153 113.06 34.3259C111.532 35.3223 109.985 36.7435 108.924 38.3735C109.002 38.2127 109.075 38.0482 109.143 37.8806C110.163 36.0894 111.028 34.2092 111.73 32.2587L111.766 32.2711L111.772 32.2735C113.301 32.8561 115.003 31.9468 116.113 30.9495C117.655 29.5626 118.744 27.4304 118.999 25.3473C117.404 25.1394 115.901 26.3813 114.874 27.4404C113.692 28.6604 112.63 30.1023 111.977 31.704C112.026 31.5292 112.067 31.3517 112.102 31.1722C112.695 29.3399 113.145 27.4502 113.441 25.5184L113.486 25.5244C115.097 25.7869 116.587 24.553 117.478 23.3553C118.731 21.67 119.377 19.3375 119.214 17.2233C117.605 17.3368 116.377 18.8792 115.583 20.1271C114.661 21.5723 113.897 23.208 113.563 24.9193C113.574 24.7824 113.58 24.6448 113.582 24.5068C113.827 22.5403 113.915 20.5335 113.834 18.5021C115.48 18.444 116.698 16.9064 117.326 15.5429C118.223 13.5926 118.367 11.1272 117.769 9.04956C116.202 9.49227 115.328 11.3014 114.813 12.6941C114.218 14.2999 113.804 16.0515 113.8 17.7928C113.715 16.3319 113.542 14.8594 113.28 13.3809Z" fill="white"/>
</svg>
