<svg width="76" height="62" viewBox="0 0 76 62" fill="none" xmlns="http://www.w3.org/2000/svg">
<path d="M25.2094 21.3081C25.2094 21.1506 25.2094 18.8594 25.2094 18.8594H23.8562C23.8562 18.8594 23.8562 21.115 23.8562 21.1862C23.8562 21.6028 23.4725 21.8822 22.8262 21.8822C22.1496 21.8822 21.781 21.6129 21.781 21.1811C21.781 21.11 21.781 18.8594 21.781 18.8594H20.4126C20.4126 18.8594 20.4126 20.9982 20.4126 21.1811C20.4126 22.3902 21.3972 22.9033 22.7707 22.9033C24.24 22.9033 25.2094 22.3851 25.2094 21.3081Z" fill="white"/>
<path d="M29.7668 22.8474V21.7857H27.3533V18.8594H25.9849V22.8474H29.7668Z" fill="white"/>
<path d="M33.8333 19.8603V18.8594H29.1021V19.8603H30.7733V22.8474H32.1568V19.8603H33.8333Z" fill="white"/>
<path d="M35.6527 22.8474V18.8594H34.2642V22.8474H35.6527Z" fill="white"/>
<path d="M42.0232 22.8474V18.8594H40.3114L39.2309 21.2523L38.2009 18.8594H36.4336V22.8474H37.7212V20.6934L38.6502 22.8474H39.8015L40.7406 20.6934V22.8474H42.0232Z" fill="white"/>
<path d="M44.1676 22.1108H46.3086L46.657 22.8474H48.1162L46.1167 18.8594H44.4858L42.3701 22.8474H43.799L44.1676 22.1108ZM45.8794 21.2166H44.612L45.1119 20.2564L45.2634 19.8907L45.4048 20.2514L45.8794 21.2166Z" fill="white"/>
<path d="M52.4082 19.8603V18.8594H47.6772V19.8603H49.3485V22.8474H50.7321V19.8603H52.4082Z" fill="white"/>
<path d="M57.0093 22.8474V21.8568H54.1676V21.3385H56.8933V20.3682H54.1676V19.8551H56.9744V18.8594H52.8345V22.8474H57.0093Z" fill="white"/>
<path d="M30.7317 24.9678H29.4239C29.4239 24.9678 28.5705 27.4774 28.5705 27.5384C28.5705 27.4774 27.7728 24.9678 27.7728 24.9678H26.3539C26.3539 24.9678 25.5612 27.4774 25.5612 27.5384C25.5612 27.4774 24.7028 24.9678 24.7028 24.9678H23.2334L24.718 28.9558H26.1974C26.1974 28.9558 26.9952 26.5732 27.0002 26.5071C27.0053 26.5732 27.798 28.9558 27.798 28.9558H29.2825L30.7317 24.9678Z" fill="white"/>
<path d="M32.5214 28.9558V24.9678H31.1328V28.9558H32.5214Z" fill="white"/>
<path d="M37.9224 28.9558V24.9678H36.6298V27.1371L34.7262 24.9678H33.3022V28.9558H34.605V26.7357L36.5692 28.9558H37.9224Z" fill="white"/>
<path d="M43.3315 28.9558V24.9678H42.0389V27.1371L40.1353 24.9678H38.7114V28.9558H40.0141V26.7357L41.9783 28.9558H43.3315Z" fill="white"/>
<path d="M48.2969 28.9558V27.9652H45.4542V27.4469H48.1807V26.4766H45.4542V25.9635H48.2616V24.9678H44.1211V28.9558H48.2969Z" fill="white"/>
<path d="M53.6345 26.1819C53.6345 25.8213 53.5482 25.5621 53.3664 25.3742C53.1292 25.1202 52.7204 24.9678 52.0939 24.9678H48.9385V28.9558H50.2867V27.5486H51.5136L52.4986 28.9558H54.0032L52.8067 27.3301C53.0737 27.2895 53.2914 27.1269 53.4321 26.9339C53.5585 26.7561 53.6345 26.4918 53.6345 26.1819ZM52.3219 26.3089C52.3219 26.3751 52.3116 26.4563 52.2757 26.5173C52.2254 26.6188 52.0939 26.6595 51.8772 26.6595H50.2917V25.933H51.8515C52.0641 25.933 52.2059 25.9686 52.2757 26.1007C52.3116 26.1515 52.3219 26.2328 52.3219 26.3089Z" fill="white"/>
<path d="M25.7785 32.8794C25.7785 32.8142 25.7785 30.9307 25.7785 30.9307H25.3057C25.3057 30.9307 25.3057 32.8065 25.3057 32.8487C25.3057 33.3013 24.8825 33.5584 24.2724 33.5584C23.5519 33.5584 23.1972 33.2822 23.1972 32.8449C23.1972 32.8026 23.1972 30.9307 23.1972 30.9307H22.7207C22.7207 30.9307 22.7207 32.7567 22.7207 32.8295C22.7207 33.6275 23.3384 33.9803 24.2534 33.9803C25.1989 33.9803 25.7785 33.6044 25.7785 32.8794Z" fill="white"/>
<path d="M29.1706 33.942V33.5009H27.1079V30.9307H26.6313V33.942H29.1706Z" fill="white"/>
<path d="M31.8786 31.368V30.9307H28.6987V31.368H30.0484V33.942H30.5289V31.368H31.8786Z" fill="white"/>
<path d="M35.2676 31.7822C35.2676 31.5674 35.2218 31.4101 35.1418 31.2835C35.0007 31.0725 34.73 30.9307 34.2801 30.9307H32.3433V33.942H32.8122V32.6722H34.1771L35.0121 33.942H35.5611L34.6576 32.5916C34.8863 32.5649 35.0655 32.4344 35.1608 32.2656C35.2295 32.1505 35.2676 31.9818 35.2676 31.7822ZM34.7948 31.8206C34.7948 31.905 34.7758 32.0086 34.7415 32.0777C34.6805 32.1889 34.5394 32.2464 34.3106 32.2502H32.816C32.816 32.2426 32.816 31.3603 32.816 31.3603H34.2229C34.5089 31.3603 34.6614 31.4293 34.7415 31.5598C34.7758 31.6211 34.7948 31.7247 34.7948 31.8206Z" fill="white"/>
<path d="M36.6242 33.1978H38.4887L38.8699 33.942H39.3809L37.8633 30.9307H37.3029L35.7358 33.942H36.2353L36.6242 33.1978ZM38.2904 32.772H36.8301L37.4363 31.6173L37.5698 31.3373L37.7032 31.6173L38.2904 32.772Z" fill="white"/>
<path d="M44.2166 33.6543C44.3348 33.5162 44.3882 33.3206 44.3882 33.1096C44.3882 32.9101 44.331 32.7106 44.2128 32.5878C44.0946 32.4728 43.904 32.3769 43.6942 32.3577C43.8163 32.3385 43.9116 32.2618 43.9764 32.1812C44.0794 32.0623 44.1403 31.8705 44.1403 31.6787C44.1403 31.4753 44.0794 31.2912 43.9497 31.1646C43.8087 31.0227 43.5684 30.9307 43.2329 30.9307H41.2197V33.942H43.3816C43.7858 33.942 44.0679 33.8385 44.2166 33.6543ZM43.6484 31.7746C43.6484 31.9088 43.6065 32.0278 43.5341 32.0968C43.4616 32.1774 43.3396 32.2119 43.21 32.2119H41.6849V31.3449H43.1223C43.2977 31.3449 43.4311 31.3794 43.5226 31.4639C43.6027 31.5405 43.6484 31.6518 43.6484 31.7746ZM43.801 33.3627C43.7056 33.4702 43.5417 33.5239 43.3015 33.5239H41.6849V32.6301H43.313C43.5341 32.6301 43.6866 32.6761 43.7782 32.7643C43.862 32.8449 43.8964 32.9485 43.8964 33.0674C43.8964 33.1901 43.8697 33.2937 43.801 33.3627Z" fill="white"/>
<path d="M47.8495 33.942V33.5009H45.5238V32.6416H47.758V32.2042H45.5238V31.368H47.8228V30.9307H45.0586V33.942H47.8495Z" fill="white"/>
<path d="M51.5742 33.0523C51.5742 32.5613 51.2506 32.3081 50.4537 32.216C50.3198 32.1969 50.03 32.1662 49.8737 32.147C49.134 32.0587 48.9091 31.959 48.9091 31.702C48.9091 31.4527 49.1569 31.3107 49.9042 31.3107C50.4835 31.3107 50.7813 31.4258 50.9302 31.6329C50.9723 31.6905 50.9949 31.7596 51.0062 31.8132H51.5166C51.5023 31.725 51.4673 31.6022 51.4139 31.5025C51.2085 31.1458 50.7854 30.8887 49.9042 30.8887C48.8519 30.8849 48.4173 31.2686 48.4173 31.7442C48.4173 32.2198 48.7566 32.4615 49.6374 32.5652C49.7899 32.5843 50.0605 32.615 50.194 32.6304C50.8768 32.7147 51.0904 32.8183 51.0904 33.106C51.0904 33.3708 50.846 33.5626 50.0643 33.5626C49.4239 33.5626 49.0806 33.4474 48.9434 33.225C48.9015 33.1636 48.8748 33.0677 48.871 33.0025H48.3677C48.3792 33.1405 48.4173 33.2902 48.4859 33.4091C48.6842 33.7736 49.1493 33.9846 50.0491 33.9846C51.1243 33.9846 51.5742 33.6354 51.5742 33.0523Z" fill="white"/>
<path d="M54.9932 31.368V30.9307H51.8135V31.368H53.163V33.942H53.6436V31.368H54.9932Z" fill="white"/>
<path d="M21.3714 36.5596C21.3714 36.2527 21.3104 36.0455 21.2074 35.8882C21.0626 35.6618 20.7804 35.543 20.2885 35.543H18.3975V38.5543H18.8702V37.5722C18.8702 37.5722 20.2047 37.5722 20.2695 37.5722C20.7309 37.5684 21.0473 37.461 21.2151 37.2155C21.3218 37.0659 21.3714 36.8511 21.3714 36.5596ZM20.891 36.5596C20.891 36.7129 20.8757 36.828 20.8262 36.9048C20.7385 37.0467 20.5593 37.1349 20.1894 37.1349C20.1551 37.1349 18.8702 37.1349 18.8702 37.1349V35.9726H20.2047C20.5517 35.9726 20.7309 36.0531 20.8262 36.2104C20.8719 36.2794 20.891 36.4061 20.891 36.5596Z" fill="white"/>
<path d="M24.8222 38.5543V38.1132H22.4964V37.2539H24.7307V36.8166H22.4964V35.9803H24.7955V35.543H22.0312V38.5543H24.8222Z" fill="white"/>
<path d="M28.4595 36.3945C28.4595 36.1797 28.4138 36.0224 28.3337 35.8959C28.1926 35.6848 27.922 35.543 27.472 35.543H25.5352V38.5543H26.0041V37.2846H27.3691L28.2041 38.5543H28.7531L27.8495 37.204C28.0783 37.1772 28.2575 37.0467 28.3528 36.8779C28.4214 36.7628 28.4595 36.5941 28.4595 36.3945ZM27.9868 36.4329C27.9868 36.5173 27.9677 36.6209 27.9334 36.69C27.8724 36.8012 27.7312 36.8587 27.5025 36.8625H26.0079C26.0079 36.8549 26.0079 35.9726 26.0079 35.9726H27.4148C27.7007 35.9726 27.8533 36.0417 27.9334 36.1721C27.9677 36.2334 27.9868 36.337 27.9868 36.4329Z" fill="white"/>
<path d="M31.9943 35.9803V35.543H29.333V38.5543H29.8057V37.2731H31.8952V36.8242H29.8057V35.9803H31.9943Z" fill="white"/>
<path d="M34.1643 35.4893C33.5275 35.4893 33.0891 35.6465 32.7764 35.9765C32.5133 36.2335 32.3989 36.5903 32.3989 37.0391C32.3989 37.5301 32.5476 37.8984 32.8222 38.1477C33.1158 38.4431 33.5656 38.5965 34.1643 38.5965C34.7819 38.5965 35.2623 38.4431 35.5483 38.1323C35.7961 37.8792 35.9257 37.5186 35.9257 37.0352C35.9257 36.5672 35.8151 36.2104 35.5521 35.9573C35.2509 35.6427 34.8009 35.4893 34.1643 35.4893ZM34.1643 38.1669C33.7448 38.1669 33.4474 38.0749 33.2225 37.8907C32.9938 37.7028 32.8832 37.415 32.8832 37.0467C32.8832 36.7015 32.9785 36.4138 33.1615 36.2411C33.3712 36.0417 33.6914 35.9227 34.1605 35.9227C34.6446 35.9227 34.9458 36.0379 35.1708 36.2373C35.3615 36.4061 35.4453 36.7053 35.4453 37.0429C35.4453 37.3843 35.3577 37.6759 35.1632 37.8523C34.9383 38.0633 34.6218 38.1669 34.1643 38.1669Z" fill="white"/>
<path d="M39.503 36.3945C39.503 36.1797 39.4572 36.0224 39.3772 35.8959C39.236 35.6848 38.9653 35.543 38.5155 35.543H36.5786V38.5543H37.0476V37.2846H38.4125L39.2475 38.5543H39.7965L38.8929 37.204C39.1216 37.1772 39.3009 37.0467 39.3962 36.8779C39.4649 36.7628 39.503 36.5941 39.503 36.3945ZM39.0301 36.4329C39.0301 36.5173 39.0111 36.6209 38.9768 36.69C38.9158 36.8012 38.7747 36.8587 38.546 36.8625H37.0514C37.0514 36.8549 37.0514 35.9726 37.0514 35.9726H38.4583C38.7442 35.9726 38.8967 36.0417 38.9768 36.1721C39.0111 36.2334 39.0301 36.337 39.0301 36.4329Z" fill="white"/>
<path d="M44.0634 38.5543V35.543H43.4457L42.2142 38.0211L41.0055 35.543H40.3765V38.5543H40.8302V36.2373L41.9587 38.5543H42.4543L43.6097 36.2373V38.5543H44.0634Z" fill="white"/>
<path d="M45.4025 37.8101H47.267L47.6482 38.5543H48.1592L46.6416 35.543H46.0812L44.5142 38.5543H45.0136L45.4025 37.8101ZM47.0687 37.3843H45.6085L46.2146 36.2296L46.3481 35.9496L46.4815 36.2296L47.0687 37.3843Z" fill="white"/>
<path d="M51.5939 38.5543V35.543H51.1399V37.883L49.1578 35.543H48.6201V38.5543H49.0815V36.1989L51.0793 38.5543H51.5939Z" fill="white"/>
<path d="M55.7071 37.4304H55.2111C55.1957 37.5684 55.1423 37.7066 55.0468 37.8101C54.8414 38.0518 54.5137 38.1554 54.0105 38.1554C53.5874 38.1554 53.1334 38.0364 52.9157 37.7257C52.8017 37.58 52.7288 37.3652 52.7288 37.0429C52.7288 36.7552 52.7791 36.5404 52.889 36.3946C53.0718 36.0992 53.4569 35.9458 53.9992 35.9458C54.525 35.9458 54.8568 36.0915 55.0324 36.2948C55.131 36.4022 55.1885 36.5289 55.207 36.6784H55.703C55.6876 36.5097 55.6342 36.3101 55.5202 36.1414C55.2758 35.7769 54.826 35.4893 54.0023 35.4893C53.2176 35.4893 52.7483 35.7424 52.4884 36.1222C52.321 36.3408 52.2368 36.6477 52.2368 37.0391C52.2368 37.4764 52.3405 37.7987 52.5193 38.025C52.7791 38.3818 53.2782 38.5965 54.0331 38.5965C54.8075 38.5965 55.2686 38.3625 55.4976 37.9904C55.627 37.8101 55.6917 37.5953 55.7071 37.4304Z" fill="white"/>
<path d="M59.1186 38.5543V38.1132H56.7924V37.2539H59.0272V36.8166H56.7924V35.9803H59.0919V35.543H56.3271V38.5543H59.1186Z" fill="white"/>
<path d="M24.2499 41.5459L24.8201 43.3117H26.6654L25.1726 44.403L25.7428 46.1686L24.2499 45.0774L22.7571 46.1686L23.3274 44.403L21.8345 43.3117H23.6797L24.2499 41.5459Z" fill="white"/>
<path d="M30.8329 41.5459L31.4147 43.3116H33.2977L31.7744 44.4029L32.3562 46.1686L30.8329 45.0773L29.3096 46.1686L29.8915 44.4029L28.3682 43.3116H30.2511L30.8329 41.5459Z" fill="white"/>
<path d="M37.3637 41.5459L37.9456 43.3116H39.8285L38.3052 44.4029L38.8871 46.1686L37.3637 45.0773L35.8404 46.1686L36.4222 44.4029L34.8989 43.3116H36.7819L37.3637 41.5459Z" fill="white"/>
<path d="M43.8944 41.5459L44.4763 43.3116H46.3592L44.8359 44.4029L45.4177 46.1686L43.8944 45.0773L42.3712 46.1686L42.953 44.4029L41.4297 43.3116H43.3126L43.8944 41.5459Z" fill="white"/>
<path d="M50.4776 41.5459L51.0476 43.3116H52.8931L51.3998 44.4029L51.9698 46.1686L50.4776 45.0773L48.9846 46.1686L49.5549 44.4029L48.062 43.3116H49.9073L50.4776 41.5459Z" fill="white"/>
<path d="M27.4483 11.7559L27.8795 13.0909H29.2747L28.146 13.916L28.5771 15.251L27.4483 14.426L26.3196 15.251L26.7508 13.916L25.6221 13.0909H27.0173L27.4483 11.7559Z" fill="white"/>
<path d="M32.4257 11.7539L32.8656 13.089H34.2892L33.1375 13.9141L33.5774 15.2491L32.4257 14.4239L31.2738 15.2491L31.7138 13.9141L30.562 13.089H31.9857L32.4257 11.7539Z" fill="white"/>
<path d="M37.3632 11.7539L37.803 13.089H39.2267L38.075 13.9141L38.5149 15.2491L37.3632 14.4239L36.2113 15.2491L36.6513 13.9141L35.4995 13.089H36.9232L37.3632 11.7539Z" fill="white"/>
<path d="M42.3016 11.7539L42.7415 13.089H44.1652L43.0135 13.9141L43.4533 15.2491L42.3016 14.4239L41.1498 15.2491L41.5898 13.9141L40.438 13.089H41.8617L42.3016 11.7539Z" fill="white"/>
<path d="M47.2784 11.7539L47.7096 13.089H49.1048L47.9761 13.9141L48.4072 15.2491L47.2784 14.4239L46.1497 15.2491L46.5809 13.9141L45.4521 13.089H46.8473L47.2784 11.7539Z" fill="white"/>
<path fill-rule="evenodd" clip-rule="evenodd" d="M7.57572 35.7852C5.67305 23.808 11.226 11.9579 22.3426 6.86914L22.4452 7.09606C11.4404 12.1336 5.9334 23.8677 7.82036 35.7458C9.908 48.8871 20.4447 56.7683 33.3477 57.1482L33.3404 57.3975C20.3368 57.0145 9.68482 49.062 7.57572 35.7852Z" fill="white"/>
<path d="M19.9322 9.92503C17.8778 9.97215 15.4734 11.1377 14.0547 12.8308C15.1924 13.8938 17.023 13.5008 18.3404 13.2834C20.2205 12.9732 22.22 12.3722 23.9942 11.5214C23.2647 9.95903 21.2995 9.89372 19.9322 9.92503Z" fill="white"/>
<path d="M18.3168 7.37552C17.1 9.28264 15.6498 11.1781 14.0717 12.8472C12.7514 11.6002 13.5483 9.52495 14.0872 8.23442C15.0634 5.89599 17.4039 3.87944 19.8508 2.84766C20.5224 4.38495 19.0637 6.20496 18.3168 7.37552Z" fill="white"/>
<path d="M13.9876 15.2733C12.064 15.9613 10.411 17.8979 9.58105 19.8423C10.9643 20.4893 12.5367 19.5549 13.6871 18.9327C15.2667 18.0784 16.8782 16.8995 18.1462 15.5353C17.0005 14.3191 15.2609 14.818 13.9876 15.2733Z" fill="white"/>
<path d="M11.6559 13.3675C11.2348 15.5426 10.5288 17.7972 9.60165 19.852C7.98326 19.0841 8.04488 16.8845 8.11421 15.4848C8.23252 13.0956 9.56098 10.3711 11.4106 8.63965C12.5429 9.86105 11.9242 11.9819 11.6559 13.3675Z" fill="white"/>
<path d="M10.2863 22.1781C8.68341 23.4503 7.71184 25.8081 7.48682 27.9135C9.00312 28.0886 10.2151 26.7002 11.1169 25.7477C12.3448 24.4508 13.507 22.8241 14.2452 21.1223C12.7997 20.3289 11.3304 21.3493 10.2863 22.1781Z" fill="white"/>
<path d="M7.50924 21.1035C7.79506 23.3001 7.79568 25.6764 7.50975 27.9159C5.74635 27.698 5.16145 25.5676 4.81596 24.2312C4.21946 21.9244 4.61939 18.9447 5.78137 16.7021C7.23348 17.5109 7.32663 19.6995 7.50924 21.1035Z" fill="white"/>
<path d="M9.0282 29.7146C7.75982 31.584 7.31379 34.5136 7.8842 36.8684C9.5603 36.4691 10.3912 34.5598 11.0583 33.2114C11.945 31.4193 12.6944 29.3286 12.9626 27.2773C11.1447 26.8966 9.86369 28.4831 9.0282 29.7146Z" fill="white"/>
<path d="M5.69873 29.5254C6.68694 31.8274 7.45813 34.361 7.90941 36.8625C5.98712 37.278 4.60361 35.2471 3.79986 33.9004C2.3689 31.5033 1.95203 28.1802 2.47623 25.3125C4.23563 25.6675 5.09658 28.1232 5.69873 29.5254Z" fill="white"/>
<path d="M9.91546 37.8484C9.23444 40.1161 9.70779 43.1991 11.0867 45.331C12.602 44.3384 12.8117 42.1537 13.0264 40.5873C13.3096 38.5202 13.4429 36.2304 13.0911 34.0869C11.153 34.3358 10.3703 36.3334 9.91546 37.8484Z" fill="white"/>
<path d="M6.54765 38.819C8.24799 40.782 9.81647 43.0202 11.11 45.3162C9.35564 46.4181 7.29697 44.9127 6.04841 43.8473C3.83342 41.9574 2.39517 38.7453 2.0542 35.717C3.89751 35.4678 5.52196 37.6347 6.54765 38.819Z" fill="white"/>
<path d="M13.4889 45.5667C13.635 48.2063 15.3431 50.9762 17.6173 52.5527C18.7156 51.0398 18.0272 48.7217 17.6526 47.1036C17.1482 44.9251 16.4501 42.6565 15.4127 40.6436C13.6037 41.6054 13.3927 43.8283 13.4889 45.5667Z" fill="white"/>
<path d="M10.4305 47.7959C12.8944 49.1735 15.3513 50.799 17.6356 52.5287C16.2676 54.3412 13.5333 53.6185 11.8383 53.0359C8.85124 52.0092 6.18827 49.3029 4.79736 46.2962C6.56087 45.3823 8.975 46.9822 10.4305 47.7959Z" fill="white"/>
<path d="M20.5065 52.015C21.9854 54.7304 25.3553 56.5019 28.5289 56.9283C28.8704 54.9542 26.7475 52.9997 25.5906 51.721C23.9436 49.9006 22.2273 48.0115 20.3031 46.4375C18.8615 48.1216 19.6236 50.3938 20.5065 52.015Z" fill="white"/>
<path d="M18.3948 55.4568C21.7563 55.8084 25.1749 56.3147 28.5345 56.8984C28.2138 59.3891 24.2853 59.7911 22.5018 59.9381C18.8451 60.2397 14.7773 58.7608 11.9448 56.2711C13.3516 54.6055 16.6041 55.2696 18.3948 55.4568Z" fill="white"/>
<path d="M24.8692 4.77848C22.6123 5.42628 19.9706 6.65522 18.6655 8.9238C21.0344 8.66402 23.3625 7.81596 25.6393 7.16982C28.1897 6.44597 30.875 5.90461 33.3442 4.90548C30.64 3.81696 27.4524 4.03696 24.8692 4.77848Z" fill="white"/>
<path fill-rule="evenodd" clip-rule="evenodd" d="M68.5316 35.7458C70.4182 23.8677 64.9113 12.1338 53.9067 7.09606L54.0094 6.86914C65.1259 11.958 70.6791 23.808 68.776 35.7852C66.6675 49.062 56.0152 57.0145 43.0116 57.3975L43.0044 57.1482C55.9073 56.7683 66.4436 48.8871 68.5316 35.7458Z" fill="white"/>
<path d="M56.4198 9.92503C58.4739 9.97215 60.8781 11.1377 62.2975 12.8308C61.1595 13.8938 59.3283 13.5008 58.0117 13.2834C56.1312 12.9732 54.1316 12.3722 52.3579 11.5214C53.0871 9.95903 55.0518 9.89372 56.4198 9.92503Z" fill="white"/>
<path d="M58.0351 7.37552C59.2522 9.28264 60.7023 11.1781 62.2798 12.8472C63.6006 11.6002 62.8036 9.52495 62.2644 8.23442C61.2888 5.89599 58.9482 3.87944 56.5008 2.84766C55.8291 4.38495 57.2885 6.20496 58.0351 7.37552Z" fill="white"/>
<path d="M62.365 15.2733C64.2886 15.9613 65.9411 17.8979 66.7709 19.8423C65.3875 20.4893 63.8151 19.5549 62.6649 18.9327C61.0853 18.0784 59.4739 16.8995 58.2065 15.5353C59.3517 14.3191 61.0915 14.818 62.365 15.2733Z" fill="white"/>
<path d="M64.6966 13.3675C65.1176 15.5426 65.8232 17.7972 66.7506 19.852C68.3692 19.0841 68.3076 16.8845 68.2377 15.4848C68.1196 13.0956 66.7917 10.3711 64.942 8.63965C63.8092 9.86105 64.4285 11.9819 64.6966 13.3675Z" fill="white"/>
<path d="M66.0656 22.1781C67.6688 23.4503 68.6403 25.8081 68.8653 27.9135C67.3494 28.0886 66.1375 26.7002 65.2357 25.7477C64.0074 24.4508 62.8448 22.8241 62.1074 21.1223C63.5524 20.3289 65.0221 21.3493 66.0656 22.1781Z" fill="white"/>
<path d="M68.8435 21.1035C68.5569 23.2999 68.5569 25.6764 68.8424 27.9159C70.6058 27.698 71.1912 25.5676 71.5363 24.2312C72.133 21.9244 71.7325 18.9447 70.5709 16.7021C69.1187 17.5109 69.0252 19.6995 68.8435 21.1035Z" fill="white"/>
<path d="M67.3237 29.7146C68.5921 31.584 69.0378 34.5136 68.4678 36.8684C66.7917 36.4691 65.9608 34.5599 65.2933 33.2114C64.4069 31.4193 63.6572 29.3286 63.3892 27.2773C65.207 26.8966 66.4887 28.4831 67.3237 29.7146Z" fill="white"/>
<path d="M70.6535 29.5254C69.6655 31.8274 68.8942 34.361 68.4434 36.8625C70.3649 37.278 71.7483 35.2471 72.5525 33.9004C73.9831 31.5033 74.4001 28.1802 73.8763 25.3125C72.117 25.6675 71.2554 28.1232 70.6535 29.5254Z" fill="white"/>
<path d="M66.4363 37.8484C67.1172 40.1161 66.6448 43.1991 65.2655 45.331C63.7506 44.3384 63.5401 42.1537 63.3254 40.5873C63.043 38.5202 62.9095 36.2304 63.2607 34.0869C65.1987 34.3358 65.9813 36.3334 66.4363 37.8484Z" fill="white"/>
<path d="M69.8038 38.819C68.104 40.7821 66.5358 43.0202 65.2417 45.3162C66.9959 46.4181 69.0551 44.9127 70.3039 43.8473C72.5182 41.9574 73.9571 38.7453 74.298 35.717C72.4545 35.4678 70.8298 37.6347 69.8038 38.819Z" fill="white"/>
<path d="M62.8623 45.5667C62.7165 48.2063 61.0086 50.9762 58.7347 52.5527C57.6358 51.0398 58.3249 48.7218 58.6988 47.1036C59.203 44.9251 59.9014 42.6565 60.9387 40.6436C62.7483 41.6054 62.9589 43.8283 62.8623 45.5667Z" fill="white"/>
<path d="M65.9219 47.7959C63.458 49.1735 61.0014 50.799 58.7173 52.5287C60.0853 54.3412 62.8192 53.6185 64.5138 53.0359C67.5014 52.0092 70.1645 49.3029 71.5551 46.2962C69.7917 45.3823 67.3772 46.9822 65.9219 47.7959Z" fill="white"/>
<path d="M55.8454 52.015C54.3665 54.7304 50.9968 56.5019 47.8229 56.9283C47.4813 54.9542 49.6041 52.9997 50.7616 51.721C52.4079 49.9006 54.1241 48.0115 56.0487 46.4375C57.4907 48.1216 56.7276 50.3938 55.8454 52.015Z" fill="white"/>
<path d="M57.957 55.4568C54.5956 55.8084 51.1776 56.3147 47.8174 56.8984C48.1382 59.3891 52.067 59.7911 53.8499 59.9381C57.5072 60.2397 61.5752 58.7608 64.4067 56.2711C63.0007 54.6055 59.7481 55.2696 57.957 55.4568Z" fill="white"/>
<path d="M51.4829 4.77848C53.7393 5.42628 56.3819 6.65522 57.6862 8.9238C55.3179 8.66402 52.9896 7.81596 50.7127 7.16982C48.1624 6.44597 45.477 5.90461 43.0078 4.90548C45.7121 3.81696 48.8997 4.03696 51.4829 4.77848Z" fill="white"/>
<path d="M39.6436 3.60403L38.4857 1.0332L37.3495 3.55619L34.707 1.90782L36.405 5.49793H40.6277L42.2644 1.90782L39.6436 3.60403Z" fill="white"/>
<path d="M40.6005 6.05566H36.3711V6.68362H40.6005V6.05566Z" fill="white"/>
<path d="M38.7881 54.6338L39.4697 56.7441H41.675L39.8909 58.0482L40.5723 60.1585L38.7881 58.8543L37.004 60.1585L37.6855 58.0482L35.9014 56.7441H38.1067L38.7881 54.6338Z" fill="white"/>
</svg>
