<svg width="121" height="62" viewBox="0 0 121 62" fill="none" xmlns="http://www.w3.org/2000/svg">
<path d="M3.12793 35.8828H6.55576V52.7695H3.12793V35.8828Z" fill="white"/>
<path d="M8.54422 46.9835C8.54196 45.7706 8.89788 44.5842 9.56695 43.5746C10.236 42.565 11.1882 41.7774 12.3029 41.3117C13.4175 40.846 14.6447 40.723 15.8291 40.9582C17.0134 41.1934 18.1017 41.7764 18.9561 42.6333C19.8106 43.4901 20.3928 44.5824 20.6291 45.7718C20.8656 46.9613 20.7454 48.1944 20.2839 49.3153C19.8224 50.4361 19.0404 51.3941 18.0367 52.0682C17.0331 52.7425 15.853 53.1022 14.6458 53.1022C13.8428 53.1114 13.0463 52.9596 12.3026 52.6554C11.559 52.3514 10.8832 51.9012 10.315 51.3313C9.74669 50.7615 9.29736 50.0834 8.9933 49.3367C8.68924 48.5901 8.53656 47.7901 8.54422 46.9835ZM17.2965 46.9835C17.2831 46.4599 17.1163 45.9519 16.8169 45.5231C16.5176 45.0942 16.099 44.7637 15.6136 44.5726C15.1281 44.3814 14.5974 44.3385 14.0879 44.4489C13.5782 44.5593 13.1124 44.8182 12.7484 45.1933C12.3846 45.5683 12.1388 46.0429 12.0419 46.5576C11.9451 47.0722 12.0014 47.6042 12.2039 48.0869C12.4065 48.5695 12.7461 48.9815 13.1804 49.2712C13.6148 49.5609 14.1244 49.7155 14.6458 49.7156C15.0024 49.7257 15.3573 49.6614 15.688 49.5267C16.0187 49.392 16.318 49.19 16.5672 48.9332C16.8162 48.6765 17.0097 48.3707 17.1351 48.0352C17.2607 47.6995 17.3157 47.3415 17.2965 46.9835Z" fill="white"/>
<path d="M34.5269 41.1978V52.1954C34.5269 56.087 31.499 57.7287 28.4369 57.7287C27.3601 57.8092 26.282 57.5904 25.3206 57.0963C24.3593 56.6022 23.5518 55.8519 22.9867 54.9276L25.9346 53.2172C26.1685 53.6908 26.5386 54.0831 26.997 54.343C27.4553 54.6029 27.9808 54.7187 28.5055 54.675C28.8506 54.7329 29.2044 54.7103 29.5395 54.6089C29.8747 54.5076 30.1822 54.3304 30.4383 54.0908C30.6944 53.8511 30.8923 53.5556 31.0168 53.227C31.1413 52.8984 31.189 52.5455 31.1562 52.1954V51.1278C30.7533 51.626 30.239 52.0217 29.6554 52.2829C29.0719 52.5442 28.4352 52.6637 27.797 52.6317C26.2454 52.6317 24.7575 52.0124 23.6603 50.9102C22.5632 49.8079 21.9468 48.3128 21.9468 46.754C21.9468 45.1951 22.5632 43.7002 23.6603 42.5979C24.7575 41.4956 26.2454 40.8764 27.797 40.8764C28.4348 40.8471 29.0705 40.9678 29.6538 41.2288C30.237 41.4899 30.7515 41.8842 31.1562 42.3802V41.2322L34.5269 41.1978ZM31.1562 46.754C31.1791 46.1957 31.0351 45.6433 30.743 45.1677C30.4508 44.6923 30.0238 44.3154 29.5168 44.0858C29.0098 43.856 28.4459 43.7839 27.8978 43.8788C27.3497 43.9735 26.8423 44.2308 26.441 44.6175C26.0395 45.0044 25.7624 45.5029 25.6453 46.0491C25.528 46.5953 25.5762 47.1644 25.7834 47.6829C25.9907 48.2015 26.3475 48.6458 26.8082 48.959C27.2688 49.2723 27.8121 49.4398 28.3682 49.4403C28.7314 49.466 29.0957 49.4152 29.4379 49.2909C29.7802 49.1665 30.0927 48.9716 30.3554 48.7185C30.618 48.4654 30.825 48.1598 30.963 47.8215C31.1009 47.4831 31.1667 47.1195 31.1562 46.754Z" fill="white"/>
<path d="M36.5037 46.9835C36.5014 45.7706 36.8574 44.5842 37.5264 43.5746C38.1955 42.565 39.1477 41.7774 40.2623 41.3117C41.377 40.846 42.6042 40.723 43.7885 40.9582C44.9729 41.1934 46.0611 41.7764 46.9156 42.6333C47.77 43.4901 48.3523 44.5824 48.5887 45.7718C48.825 46.9613 48.7049 48.1944 48.2434 49.3153C47.7819 50.4361 46.9998 51.3941 45.9963 52.0682C44.9926 52.7425 43.8125 53.1022 42.6052 53.1022C41.8024 53.1114 41.0057 52.9596 40.2621 52.6554C39.5184 52.3514 38.8426 51.9012 38.2744 51.3313C37.7062 50.7615 37.2568 50.0834 36.9527 49.3367C36.6487 48.5901 36.496 47.7901 36.5037 46.9835ZM45.2561 46.9835C45.2426 46.4599 45.0757 45.9519 44.7763 45.5231C44.477 45.0942 44.0585 44.7637 43.573 44.5726C43.0877 44.3814 42.557 44.3385 42.0473 44.4489C41.5377 44.5593 41.0718 44.8182 40.7078 45.1933C40.344 45.5683 40.0982 46.0429 40.0013 46.5576C39.9045 47.0722 39.9609 47.6042 40.1633 48.0869C40.3659 48.5695 40.7055 48.9815 41.1398 49.2712C41.5742 49.5609 42.0839 49.7155 42.6052 49.7156C42.96 49.7224 43.3124 49.6558 43.6404 49.5197C43.9683 49.3835 44.2649 49.181 44.5115 48.9246C44.7581 48.6683 44.9494 48.3635 45.0736 48.0296C45.1978 47.6956 45.2521 47.3395 45.2332 46.9835H45.2561Z" fill="white"/>
<path d="M50.2949 38.0981C50.2949 37.6849 50.4169 37.2809 50.6453 36.9374C50.8739 36.5938 51.1987 36.326 51.5786 36.1678C51.9587 36.0097 52.3767 35.9683 52.7801 36.0489C53.1836 36.1295 53.5541 36.3285 53.8449 36.6207C54.1358 36.9129 54.3338 37.2852 54.414 37.6905C54.4943 38.0958 54.4531 38.5159 54.2958 38.8977C54.1384 39.2794 53.8718 39.6058 53.5299 39.8353C53.1878 40.0648 52.7858 40.1874 52.3744 40.1874C51.8239 40.1845 51.2967 39.9633 50.9073 39.5721C50.5179 39.181 50.2979 38.6514 50.2949 38.0981ZM50.6491 41.1976H54.0769V52.7692H50.6491V41.1976Z" fill="white"/>
<path d="M69.022 46.9834C69.0635 47.7483 68.9541 48.5139 68.7 49.2362C68.4458 49.9584 68.052 50.623 67.5412 51.1917C67.0303 51.7604 66.4126 52.222 65.7235 52.5499C65.0344 52.8777 64.2876 53.0655 63.526 53.1022C62.8867 53.1329 62.2483 53.0225 61.6561 52.7786C61.0638 52.5346 60.532 52.163 60.0982 51.6901V57.43H56.6704V41.1976H60.0982V42.2882C60.532 41.8153 61.0638 41.4437 61.6561 41.1997C62.2483 40.9558 62.8867 40.8454 63.526 40.8761C64.2866 40.9128 65.0325 41.1002 65.7207 41.4273C66.4091 41.7546 67.0263 42.2151 67.5369 42.7826C68.0477 43.3501 68.4417 44.0132 68.6965 44.7341C68.9514 45.455 69.062 46.2194 69.022 46.9834ZM65.5942 46.9834C65.5806 46.4446 65.41 45.9216 65.1035 45.4792C64.797 45.0369 64.3682 44.6945 63.87 44.4946C63.3719 44.2946 62.8262 44.2459 62.3008 44.3545C61.7753 44.4629 61.293 44.7239 60.9136 45.105C60.5343 45.4861 60.2746 45.9706 60.1666 46.4986C60.0587 47.0265 60.1072 47.5747 60.3061 48.0752C60.5051 48.5757 60.8459 49.0066 61.2862 49.3145C61.7265 49.6224 62.2471 49.7938 62.7833 49.8074C63.1576 49.8314 63.5326 49.7745 63.8832 49.6407C64.2338 49.5069 64.5517 49.2993 64.8159 49.0318C65.0799 48.7642 65.284 48.443 65.4144 48.0898C65.5445 47.7365 65.5982 47.3593 65.5713 46.9834H65.5942Z" fill="white"/>
<path d="M79.6942 49.3028C79.6942 51.9661 77.409 53.1026 74.8952 53.1026C73.891 53.1919 72.8832 52.9772 72.0015 52.4862C71.1199 51.9952 70.4045 51.2503 69.9478 50.3475L72.9414 48.637C73.0629 49.0546 73.323 49.4178 73.6784 49.6663C74.0339 49.9148 74.4632 50.0337 74.8952 50.0031C75.7294 50.0031 76.1407 49.739 76.1407 49.2798C76.1407 48.0056 70.4276 48.6829 70.4276 44.688C70.4276 42.1624 72.5529 40.8881 74.998 40.8881C75.9003 40.8606 76.7936 41.0759 77.5852 41.512C78.3767 41.9479 79.0378 42.5887 79.5 43.3677L76.4949 44.952C76.3622 44.6488 76.1446 44.3908 75.8688 44.2095C75.5929 44.0281 75.2707 43.9311 74.9409 43.9302C74.3468 43.9302 73.9812 44.1599 73.9812 44.5846C74.0269 45.9047 79.6942 45.0208 79.6942 49.3028Z" fill="white"/>
<path d="M92.3085 41.1982V52.7699H88.8805V51.6908C88.4818 52.1703 87.9758 52.5481 87.4039 52.7936C86.832 53.039 86.2103 53.1449 85.5898 53.1028C83.3046 53.1028 81.2822 51.4382 81.2822 48.3043V41.1982H84.71V47.7992C84.6799 48.0805 84.7126 48.365 84.8055 48.632C84.8984 48.8991 85.0493 49.142 85.2474 49.3432C85.4454 49.5444 85.6855 49.6987 85.9503 49.795C86.215 49.8914 86.4979 49.9271 86.7782 49.9C88.0351 49.9 88.9149 49.1652 88.9149 47.5237V41.1982H92.3085Z" fill="white"/>
<path d="M112.122 45.675V52.7695H108.694V45.9735C108.694 44.8256 108.134 44.0678 107.037 44.0678C105.94 44.0678 105.232 44.883 105.232 46.249V52.7695H101.804V45.9735C101.804 44.8256 101.255 44.0678 100.147 44.0678C99.0387 44.0678 98.3531 44.883 98.3531 46.249V52.7695H94.9253V41.198H98.3531V42.2656C98.7114 41.794 99.1812 41.42 99.72 41.1774C100.259 40.9348 100.849 40.8313 101.438 40.8765C102.029 40.8476 102.618 40.9732 103.147 41.2406C103.675 41.5082 104.126 41.9088 104.455 42.4033C104.837 41.8863 105.344 41.475 105.927 41.2081C106.511 40.9411 107.152 40.8269 107.791 40.8765C110.396 40.8765 112.122 42.7821 112.122 45.675Z" fill="white"/>
<path d="M115.046 41.1293C116.46 41.1293 117.606 39.9779 117.606 38.5577C117.606 37.1376 116.46 35.9863 115.046 35.9863C113.633 35.9863 112.487 37.1376 112.487 38.5577C112.487 39.9779 113.633 41.1293 115.046 41.1293Z" fill="white"/>
<path d="M41.9196 27.1237C48.5393 27.1237 53.9055 21.7321 53.9055 15.0813C53.9055 8.43058 48.5393 3.03906 41.9196 3.03906C35.2999 3.03906 29.9336 8.43058 29.9336 15.0813C29.9336 21.7321 35.2999 27.1237 41.9196 27.1237Z" fill="white"/>
<path d="M68.7136 27.1237C75.3332 27.1237 80.6995 21.7321 80.6995 15.0813C80.6995 8.43058 75.3332 3.03906 68.7136 3.03906C62.0939 3.03906 56.7275 8.43058 56.7275 15.0813C56.7275 21.7321 62.0939 27.1237 68.7136 27.1237Z" fill="white"/>
<path d="M27.1113 3.03906H3.15088V27.1121H27.1113V3.03906Z" fill="white"/>
</svg>
