<svg width="171" height="62" viewBox="0 0 171 62" fill="none" xmlns="http://www.w3.org/2000/svg">
<path d="M17.0363 26.6909C16.9883 27.8211 16.9644 29.2522 16.9644 30.9837C16.9644 32.7152 16.9883 34.1581 17.0363 35.3125C17.0842 36.4428 17.1801 37.3446 17.324 38.018C17.4918 38.6913 17.7196 39.1603 18.0075 39.4249C18.3192 39.6894 18.7268 39.8217 19.2305 39.8217C19.734 39.8217 20.1297 39.6894 20.4175 39.4249C20.7292 39.1603 20.9571 38.6913 21.101 38.018C21.2688 37.3446 21.3767 36.4428 21.4247 35.3125C21.4727 34.1581 21.4966 32.7152 21.4966 30.9837C21.4966 29.2522 21.4727 27.8211 21.4247 26.6909C21.3767 25.5365 21.2688 24.6226 21.101 23.9493C20.9571 23.2759 20.7292 22.8069 20.4175 22.5424C20.1297 22.2778 19.734 22.1455 19.2305 22.1455C18.7268 22.1455 18.3192 22.2778 18.0075 22.5424C17.7196 22.8069 17.4918 23.2759 17.324 23.9493C17.1801 24.6226 17.0842 25.5365 17.0363 26.6909Z" fill="white"/>
<path fill-rule="evenodd" clip-rule="evenodd" d="M18.3109 4.18564C9.63747 4.37177 2.74327 11.5495 2.88244 20.2485L3.05344 30.9368L2.88244 41.6251C2.74327 50.3242 9.63747 57.5019 18.3109 57.6879L28.9702 57.9167L39.6296 57.6879C48.3029 57.5019 55.1973 50.3242 55.0581 41.6251L54.8871 30.9368L55.0581 20.2485C55.1973 11.5495 48.3029 4.37177 39.6296 4.18564L28.9702 3.95703L18.3109 4.18564ZM29.3385 44.547L25.3097 48.0462L21.6407 44.078C21.3529 44.1262 21.0651 44.1623 20.7775 44.1863C20.5136 44.2343 20.2138 44.2585 19.8781 44.2585H19.2307C17.5281 44.2585 16.0892 44.03 14.9141 43.5731C13.7391 43.1161 12.7919 42.3585 12.0725 41.3004C11.3531 40.2182 10.8375 38.8353 10.5257 37.152C10.214 35.4445 10.0581 33.3882 10.0581 30.9834C10.0581 28.5784 10.214 26.5343 10.5257 24.8508C10.8375 23.1433 11.3531 21.7605 12.0725 20.7023C12.7919 19.6201 13.7391 18.8385 14.9141 18.3575C16.0892 17.8524 17.5281 17.5999 19.2307 17.5999C20.9333 17.5999 22.3721 17.8524 23.5471 18.3575C24.7222 18.8385 25.6695 19.6201 26.3889 20.7023C27.1083 21.7605 27.6239 23.1433 27.9357 24.8508C28.2474 26.5343 28.4033 28.5784 28.4033 30.9834C28.4033 33.4603 28.2354 35.5526 27.8996 37.2601C27.5639 38.9676 27.0124 40.3625 26.245 41.4447L29.3385 44.547ZM40.6932 27.3759V25.933C40.6932 24.466 40.5493 23.4679 40.2615 22.9389C39.9738 22.4098 39.5062 22.1452 38.8586 22.1452C38.3551 22.1452 37.9474 22.2775 37.6357 22.5421C37.3479 22.8066 37.1201 23.2756 36.9522 23.949C36.8083 24.6223 36.7124 25.5362 36.6644 26.6906C36.6164 27.8208 36.5925 29.2518 36.5925 30.9834C36.5925 32.7149 36.6164 34.1578 36.6644 35.3121C36.7124 36.4425 36.8083 37.3443 36.9522 38.0177C37.1201 38.691 37.3479 39.16 37.6357 39.4246C37.9474 39.6891 38.3551 39.8214 38.8586 39.8214C39.2662 39.8214 39.6021 39.7252 39.8658 39.5328C40.1297 39.3163 40.3334 38.9676 40.4773 38.4867C40.6212 38.0057 40.7171 37.3683 40.7651 36.5747C40.8371 35.7571 40.873 34.735 40.873 33.5085H47.3477V35.4205C47.3477 37.2241 47.1079 38.7032 46.6283 39.8574C46.1487 41.0118 45.5133 41.9257 44.7219 42.599C43.9305 43.2484 43.0193 43.6812 41.988 43.8977C40.981 44.1382 39.9377 44.2585 38.8586 44.2585C36.9881 44.2585 35.4535 44.03 34.2544 43.5731C33.0554 43.1161 32.1202 42.3585 31.4487 41.3004C30.7771 40.2182 30.3095 38.8353 30.0458 37.152C29.806 35.4445 29.686 33.3882 29.686 30.9834C29.686 28.5303 29.8299 26.4501 30.1177 24.7426C30.4295 23.0351 30.9451 21.6522 31.6645 20.5941C32.3839 19.5359 33.3311 18.7783 34.5061 18.3214C35.6812 17.8404 37.132 17.5999 38.8586 17.5999C40.3695 17.5999 41.6524 17.7924 42.7076 18.1772C43.7626 18.562 44.6139 19.1151 45.2615 19.8366C45.9329 20.534 46.4125 21.3877 46.7003 22.3978C47.012 23.3837 47.1679 24.5021 47.1679 25.7527V27.3759H40.6932Z" fill="white"/>
<path fill-rule="evenodd" clip-rule="evenodd" d="M86.4931 22.3415L92.3573 28.4445L98.2216 22.3415H108.41L97.4439 32.8039L108.41 43.2662H98.2216L92.3573 37.1476L86.4931 43.2662H76.289L87.2554 32.8039L76.289 22.3415H86.4931ZM85.9277 32.8039L74.0005 21.4248H86.883L92.3573 27.1221L97.8317 21.4248H110.254V21.4093H131.308C136.123 21.3599 140.198 25.3973 140.132 30.2416C140.131 31.9841 139.661 33.5903 138.721 35.0198C138.013 36.1019 137.116 36.9922 136.041 37.6692L140.531 43.4499V39.701C140.531 36.7638 142.719 34.8912 145.237 33.6494C147.78 32.3957 150.988 31.6123 153.659 30.9786L153.663 30.9777L153.694 30.9701C155.34 30.5639 156.743 30.2181 157.741 29.8452C158.246 29.6562 158.578 29.4851 158.767 29.3397C158.791 29.3212 158.81 29.3049 158.828 29.2908C158.77 29.2375 158.651 29.1579 158.418 29.0663C157.875 28.853 156.948 28.6923 155.543 28.6919C154.042 28.7074 152.766 28.8299 151.895 29.1362C151.467 29.2872 151.208 29.4592 151.062 29.6207C150.938 29.7593 150.864 29.9238 150.871 30.1819L150.893 31.1206H140.857V30.2039C140.857 28.322 141.225 26.7485 141.962 25.4593C142.702 24.1643 143.781 23.2187 145.096 22.5406C147.677 21.2099 151.233 20.8799 155.197 20.8799C159.256 20.8799 162.626 21.3496 165.012 22.559C166.22 23.1719 167.201 23.9875 167.876 25.0483C168.552 26.1118 168.884 27.3636 168.884 28.7871C168.884 31.4213 167.299 33.0992 165.356 34.1927C163.47 35.2545 161.095 35.8575 159.123 36.3399H168.542V44.1519H141.075L141.087 44.1675H130.085L126.149 39.0608H120.237V44.1675H110.682L110.699 44.183H97.831L92.3573 38.4719L86.8836 44.183H74.0005L85.9277 32.8039ZM110.254 43.7585V21.8492L98.7714 32.8039L110.254 43.7585ZM126.601 38.1441L130.536 43.2507H139.215L134.657 37.3811C134.943 37.2485 135.215 37.1019 135.477 36.9414C136.474 36.3291 137.303 35.5156 137.955 34.5165C138.796 33.2398 139.215 31.8074 139.215 30.235C139.278 25.9068 135.623 22.2792 131.314 22.3259H111.17V43.2507H119.32V38.1441H126.601ZM154.326 37.2566C154.612 36.9066 155.129 36.609 155.815 36.3399C156.624 36.0223 157.666 35.7442 158.837 35.4662C162.85 34.4853 167.968 33.1464 167.968 28.7871C167.968 23.6804 163.239 21.7966 155.197 21.7966C147.635 21.7966 142.272 23.0321 141.806 29.2871C141.784 29.5815 141.772 29.8869 141.772 30.2039H149.955C149.954 30.1693 149.954 30.1353 149.955 30.1018C150 28.2419 152.56 27.8057 155.539 27.7751C158.447 27.7751 159.785 28.429 159.785 29.3165C159.785 30.4119 157.204 31.0487 153.963 31.8479L153.875 31.8697C148.493 33.1464 141.446 34.9213 141.446 39.701V43.2351H167.625V37.2566H154.326ZM158.879 29.3611C158.879 29.3611 158.874 29.3553 158.871 29.3418C158.879 29.354 158.879 29.3611 158.879 29.3611ZM130.134 30.235C130.134 29.745 129.75 29.3614 129.26 29.3614H120.237V31.0931H129.26C129.523 31.0931 129.708 31.0131 129.872 30.8479C130.06 30.6598 130.134 30.4717 130.134 30.235ZM131.049 30.235C131.049 29.2385 130.256 28.4445 129.26 28.4445H119.32V32.0098H129.26C129.758 32.0098 130.178 31.8386 130.52 31.4961C130.878 31.138 131.049 30.7177 131.049 30.235Z" fill="#FFAC00"/>
<path d="M77.0435 58.362H80.9474V53.0013L84.8586 58.362H86.8105L90.7217 53.0013V58.362H94.6257V48.3135H89.7459L85.8346 53.3377L81.9308 48.3135H77.0435V58.362Z" fill="white"/>
<path d="M102.85 48.0674C99.0807 48.0749 95.9964 49.1664 96.0113 52.972V53.7046C95.9964 57.5027 99.0807 58.6018 102.85 58.6092C106.612 58.6018 109.697 57.5027 109.682 53.7046V52.972C109.682 49.1739 106.62 48.0674 102.85 48.0674ZM105.778 53.458C105.801 55.1028 104.444 55.4019 102.85 55.4243C101.249 55.4019 99.8927 55.1028 99.9151 53.458V53.2113C99.8927 51.5738 101.249 51.2748 102.85 51.2523C104.444 51.2748 105.801 51.5738 105.778 53.2113V53.458Z" fill="white"/>
<path d="M120.618 53.3528C120.618 54.3621 120.045 55.192 119.032 55.192H114.756V51.5135H119.032C120.045 51.5135 120.618 52.3359 120.618 53.3528ZM110.852 48.3286V58.3769H119.762C122.511 58.4144 124.553 56.0817 124.53 53.3528C124.553 50.6089 122.511 48.2911 119.762 48.3286H110.852Z" fill="white"/>
<path d="M135.399 53.4649C135.421 55.1171 134.067 55.4013 132.471 55.4237C130.87 55.4013 129.522 55.1171 129.536 53.4649V48.3135H125.632V53.7116C125.618 57.5097 128.717 58.6013 132.471 58.6086C136.226 58.6013 139.326 57.5097 139.311 53.7116V48.3135H135.399V53.4649Z" fill="white"/>
<path d="M141.068 48.3135V58.362H152.788V55.177H144.972V48.3135H141.068Z" fill="white"/>
<path d="M154.121 58.3775H165.841V55.7981H158.025V54.5121H165.841V52.187H158.025V50.9009H165.841V48.3291H154.121V58.3775Z" fill="white"/>
<path d="M79.2911 10.0333V7.91564H85.0773C85.3576 7.91564 85.6016 8.01735 85.8005 8.22999C86.0085 8.43354 86.1079 8.68312 86.1079 8.97901C86.1079 9.26579 86.0085 9.51537 85.8005 9.72815C85.6016 9.93156 85.3576 10.0333 85.0773 10.0333H79.2911ZM74.5537 4.28152V16.7097H79.2911V13.6766H86.2617C88.7661 13.7137 90.8907 11.5405 90.8545 8.97901C90.8907 6.40838 88.7661 4.25368 86.2617 4.28152H74.5537Z" fill="white"/>
<path d="M100.284 3.95703C95.7093 3.96627 91.9664 5.31641 91.9844 10.0233V10.9295C91.9664 15.6271 95.7093 16.9864 100.284 16.9956C104.849 16.9864 108.593 15.6271 108.574 10.9295V10.0233C108.574 5.32565 104.859 3.95703 100.284 3.95703ZM103.836 10.6243C103.864 12.6587 102.219 13.0286 100.284 13.0564C98.3402 13.0286 96.6948 12.6587 96.7219 10.6243V10.3192C96.6948 8.294 98.3402 7.92411 100.284 7.89641C102.219 7.92411 103.864 8.294 103.836 10.3192V10.6243Z" fill="white"/>
<path d="M127.045 12.1506L124.233 4.28125H118.899L116.079 12.1506L113.267 4.28125H107.933L113.267 16.7095H118.899L121.567 10.4954L124.233 16.7095H129.865L135.201 4.28125H129.865L127.045 12.1506Z" fill="white"/>
<path d="M135.562 16.7095H149.783V13.5192H140.299V11.9286H149.783V9.05274H140.299V7.46225H149.783V4.28125H135.562V16.7095Z" fill="white"/>
<path d="M152.306 4.27175V16.7001H157.042V13.667H161.274L163.561 16.7001H168.606L165.957 13.2139C166.753 12.8347 167.394 12.2614 167.873 11.5124C168.363 10.7542 168.606 9.90346 168.606 8.96937C168.643 6.39861 166.517 4.24405 164.014 4.27175H152.306ZM162.82 7.906C163.398 7.906 163.86 8.3776 163.86 8.96937C163.86 9.25602 163.76 9.50574 163.552 9.71838C163.354 9.92193 163.109 10.0236 162.82 10.0236H157.042V7.906H162.82Z" fill="white"/>
</svg>
