<svg width="147" height="62" viewBox="0 0 147 62" fill="none" xmlns="http://www.w3.org/2000/svg">
<path d="M73.7301 20.454C74.3346 20.4455 74.8486 20.3325 74.8402 19.7111V19.6179C74.8486 18.9993 74.3346 18.8863 73.7301 18.8779C73.1229 18.8863 72.6088 18.9993 72.6173 19.6179V19.7111C72.6088 20.3325 73.1229 20.4455 73.7301 20.454Z" fill="white"/>
<path d="M51.6307 19.2057C51.6307 19.0249 51.4867 18.8809 51.3059 18.8809H49.501V19.5277H51.3059C51.3963 19.5277 51.4725 19.4966 51.5347 19.4345C51.5996 19.3695 51.6307 19.2933 51.6307 19.2057Z" fill="white"/>
<path d="M61.7906 18.873L62.3104 19.9944H61.2681L61.7906 18.873Z" fill="white"/>
<path d="M84.98 18.873L85.4999 19.9944H84.4575L84.98 18.873Z" fill="white"/>
<path d="M48.0568 42.4857L47.2886 40.8281L46.5161 42.4857H48.0568Z" fill="white"/>
<path d="M66.1864 42.0095C66.1864 42.5732 65.8649 43.0367 65.2971 43.0367H62.9004V40.9824H65.2971C65.8649 40.9824 66.1864 41.4417 66.1864 42.0095Z" fill="white"/>
<path d="M72.2574 40.8281L73.0257 42.4857H71.4849L72.2574 40.8281Z" fill="white"/>
<path d="M81.5939 40.8408C81.8611 40.8408 82.074 41.0538 82.074 41.321C82.074 41.4504 82.0281 41.5632 81.9321 41.6592C81.8402 41.7511 81.7275 41.797 81.5939 41.797H78.9258V40.8408H81.5939Z" fill="white"/>
<path d="M90.4208 42.0095C90.4208 42.5732 90.0988 43.0367 89.5308 43.0367H87.1338V40.9824H89.5308C90.0988 40.9824 90.4208 41.4417 90.4208 42.0095Z" fill="white"/>
<path d="M37.9122 31.5474L35.1276 25.1182H30.3501V35.8335H33.8308V30.0459L36.3424 35.8335H39.4547L41.9936 30.0459V35.8335H45.4607V25.1182H40.8333L37.9122 31.5474Z" fill="white"/>
<path d="M59.6665 35.8335V33.1717H51.9815V31.7794H59.3526V29.1723H51.9815V27.7936H59.571V25.1182H48.3779V35.8335H59.6665Z" fill="white"/>
<path d="M62.6029 33.9358C63.6676 35.3145 65.5649 35.997 67.8445 35.997C69.5564 35.997 70.8112 35.6493 71.6854 35.0979C71.8358 35.003 71.975 34.902 72.1033 34.7958L72.1989 35.8332H75.1336V29.4859H68.0083V31.7928H71.8167C71.7999 31.902 71.7417 32.0734 71.658 32.2367C71.6058 32.3387 71.5436 32.4375 71.4754 32.5162C71.0796 32.9803 70.0285 33.3898 68.6635 33.3898C67.2439 33.3898 66.3293 33.0213 65.8379 32.448C65.5103 32.0248 65.3192 31.4242 65.3192 30.5233C65.3192 29.5815 65.5103 28.9399 65.8789 28.5168C66.4112 27.9162 67.3121 27.6568 68.6362 27.6568C69.8238 27.6568 70.6428 27.9298 71.025 28.2711C71.2707 28.4758 71.4618 28.7625 71.5027 28.9536H75.0381C75.0331 28.8276 75.015 28.6736 74.9846 28.5097C74.9326 28.2296 74.8447 27.9201 74.7241 27.6705C73.8778 25.9505 71.9122 24.9268 68.568 24.9268C65.6605 24.9268 63.7085 25.814 62.6302 27.1518C61.9204 28.0663 61.5928 29.2129 61.5928 30.496C61.5928 31.9156 61.975 33.1305 62.6029 33.9358Z" fill="white"/>
<path d="M65.7632 30.5232C65.7632 29.6325 65.9453 29.1174 66.2125 28.8097C66.6144 28.3574 67.3477 28.1006 68.6363 28.1006C69.7821 28.1006 70.4677 28.3684 70.7294 28.6021L70.7351 28.6071L70.7409 28.612C70.8309 28.687 70.9132 28.7794 70.9754 28.8695C71.0369 28.9585 71.0615 29.0203 71.0676 29.0419H67.5645V32.2366H71.1304C71.0027 32.3809 70.7286 32.561 70.2931 32.7057C69.8596 32.8497 69.3033 32.9458 68.6636 32.9458C67.3148 32.9458 66.5562 32.5967 66.1823 32.1673C65.9379 31.8469 65.7632 31.3555 65.7632 30.5232Z" fill="white"/>
<path d="M84.4071 29.0664L83.3901 31.008H85.3679L84.4071 29.0664Z" fill="white"/>
<path fill-rule="evenodd" clip-rule="evenodd" d="M87.2428 33.8542L88.1848 35.8335H92.1298L86.7238 25.1182H82.3151L76.5957 35.8335H80.4587L81.4551 33.8542H87.2428ZM82.6563 31.4518L84.0077 28.872L84.4172 27.8892L84.7994 28.8583L86.0828 31.4518H82.6563Z" fill="white"/>
<path fill-rule="evenodd" clip-rule="evenodd" d="M115.726 54.3875H115.72C115.644 54.3875 115.568 54.3871 115.492 54.3863V54.3875H31.9999C24.6323 54.3875 18.0604 50.9806 13.7737 45.6564H26.0751V44.0972H12.6211C10.614 41.1332 9.26909 37.6843 8.79869 33.9628H26.0751V32.4037H8.65419C8.62669 31.9394 8.61279 31.4715 8.61279 31.0004C8.61279 27.9138 9.21069 24.967 10.2971 22.2692H26.0751V20.7101H10.9925C12.6453 17.3423 15.084 14.4301 18.0697 12.2128H101.795C102.839 11.4376 103.95 10.7473 105.117 10.1521C104.802 10.3125 104.492 10.4797 104.186 10.6536H20.4604C23.8653 8.71838 27.8035 7.61328 31.9998 7.61328H115.492V7.61438C115.57 7.61361 115.648 7.61328 115.726 7.61328C128.642 7.61328 139.113 18.084 139.113 31.0004C139.113 43.9167 128.642 54.3875 115.726 54.3875ZM124.422 41.9692C125.469 38.8146 126.094 35.0677 126.094 31.0004C126.094 27.2087 125.55 23.6954 124.629 20.6808C124.516 20.3127 124.398 19.9521 124.275 19.5993C124.069 19.0117 123.848 18.4459 123.614 17.9037C123.298 17.1715 122.958 16.4823 122.597 15.8407C120.891 12.8134 118.945 11.183 117.129 10.6341V17.9037H121.905C122.309 18.7658 122.678 19.7045 123.004 20.7101H117.129V29.5971H124.509C124.526 30.0596 124.535 30.5275 124.535 31.0004C124.535 31.4733 124.526 31.9412 124.509 32.4036H117.129V41.2907H123.003C122.678 42.2963 122.309 43.235 121.905 44.0971H117.129V51.3668C118.945 50.818 120.891 49.1875 122.597 46.1601C122.958 45.5185 123.299 44.8293 123.614 44.0971C123.905 43.4231 124.175 42.7126 124.422 41.9692ZM127.56 20.7101C128.309 23.4191 128.772 26.4229 128.877 29.5971H136.259C136.042 26.3751 135.083 23.3564 133.553 20.7101H127.56ZM131.602 17.9037H126.643C125.743 15.5453 124.607 13.4939 123.295 11.8565C126.555 13.1464 129.406 15.2445 131.602 17.9037ZM114.323 10.6338V17.9037H107.837C108.153 17.1715 108.493 16.4823 108.855 15.8407C110.56 12.8129 112.507 11.1823 114.323 10.6338ZM108.156 11.8564C106.844 13.4938 105.709 15.5452 104.809 17.9037H99.8489C102.045 15.2444 104.897 13.1462 108.156 11.8564ZM103.891 20.7101H94.9109V22.2692H97.0839C96.0278 24.5193 95.3674 26.9917 95.192 29.5971H102.574C102.68 26.4229 103.142 23.4191 103.891 20.7101ZM114.323 20.7101H106.814C106.012 23.3423 105.499 26.3533 105.383 29.5971H114.323V20.7101ZM128.877 32.4036C128.772 35.5778 128.309 38.5816 127.56 41.2907H133.553C135.083 38.6444 136.042 35.6256 136.259 32.4036H128.877ZM106.814 41.2907C106.012 38.6585 105.499 35.6474 105.383 32.4036H114.323V41.2907H106.814ZM103.891 41.2907C103.142 38.5816 102.68 35.5778 102.574 32.4036H95.192C95.409 35.6256 96.3676 38.6444 97.8983 41.2907H103.891ZM126.643 44.0971C125.743 46.4555 124.607 48.5068 123.296 50.1442C126.555 48.8543 129.406 46.7562 131.602 44.0971H126.643ZM107.837 44.0971H114.323V51.3671C112.507 50.8186 110.56 49.188 108.855 46.1601C108.493 45.5185 108.153 44.8293 107.837 44.0971ZM104.809 44.0971L94.9109 44.0972V45.6563H101.277C103.229 47.5809 105.563 49.1184 108.156 50.1444C106.844 48.507 105.709 46.4556 104.809 44.0971ZM73.7298 17.6754C72.3006 17.6782 71.1312 18.0906 71.1369 19.5283V19.8051C71.1312 21.24 72.3006 21.6552 73.7298 21.658C75.1562 21.6552 76.3256 21.24 76.3199 19.8051V19.5283C76.3199 18.0934 75.159 17.6754 73.7298 17.6754ZM29.3278 17.7686V21.5648H30.8079V17.7686H29.3278ZM35.2961 19.7797L33.6296 17.7686H31.5931V21.5648H33.0732V19.2459L35.1125 21.5648H36.779V17.7686H35.2961V19.7797ZM40.5328 18.9775V21.5705H39.0528V18.9775H37.2931V17.7743H42.2925V18.9775H40.5328ZM42.7897 21.5705H47.2327V20.596H44.2697V20.1102H47.2327V19.2317H44.2697V18.7459H47.2327V17.7743H42.7897V21.5705ZM48.0207 21.5676V17.7714H51.6785C52.4609 17.763 53.1247 18.4211 53.1134 19.2063C53.1134 19.4916 53.0371 19.7514 52.8846 19.9831C52.7349 20.2118 52.5344 20.387 52.2858 20.5028L53.1134 21.5676H51.5373L50.8227 20.6412H49.5008V21.5676H48.0207ZM57.2768 19.7797L55.6103 17.7686H53.5738V21.5648H55.0539V19.2459L57.0932 21.5648H58.7597V17.7686H57.2768V19.7797ZM60.5392 21.5705H58.8727L60.9092 17.7743H62.6689L64.7054 21.5705H63.0389L62.7395 20.9208H60.8386L60.5392 21.5705ZM66.965 21.5705V18.9775H68.7247V17.7743H63.7253V18.9775H65.485V21.5705H66.965ZM69.2218 21.5648V17.7686H70.7019V21.5648H69.2218ZM78.7999 17.7686L80.4664 19.7797V17.7686H81.9493V21.5648H80.2828L78.2435 19.2459V21.5648H76.7634V17.7686H78.7999ZM82.0623 21.5705H83.7287L84.0282 20.9208H85.9289L86.2289 21.5705H87.8949L85.8589 17.7743H84.0988L82.0623 21.5705ZM88.0109 21.5648V17.7686H89.4909V20.3615H92.4539V21.5648H88.0109ZM33.1628 40.4984C32.4822 40.4984 31.6471 40.5987 31.6471 41.0454C31.6471 41.2918 32.3277 41.3252 33.2087 41.3669L33.2184 41.3674C34.7836 41.4467 36.9749 41.5577 36.9708 42.9619C36.9708 44.5653 35.1336 44.9453 33.1628 44.9453C31.1962 44.9411 29.5636 44.7031 29.3548 42.9619H31.6471C31.8976 43.3962 32.478 43.5089 33.1628 43.5089C33.8434 43.5089 34.6785 43.3962 34.6785 42.9619C34.6785 42.7156 33.9979 42.678 33.1169 42.6363L33.1071 42.6358C31.5419 42.5565 29.3506 42.4455 29.3548 41.0454C29.3548 39.4421 31.192 39.0579 33.1628 39.0579C35.1294 39.0704 36.762 39.2917 36.9708 41.0454H34.6785C34.4279 40.6028 33.8476 40.4984 33.1628 40.4984ZM41.8268 40.9828V44.8158H39.6389V40.9828H37.0376V39.2041H44.4281V40.9828H41.8268ZM42.975 44.8158H45.4385L45.8811 43.8555H48.6912L49.1338 44.8158H51.5973L48.5868 39.2041H45.9855L42.975 44.8158ZM54.779 39.1957L57.2425 42.1686V39.1957H59.4346V44.8075H56.9711L53.9564 41.3795V44.8075H51.7685V39.1957H54.779ZM60.7122 39.2041V44.8158H65.7061C67.2468 44.8367 68.3909 43.534 68.3783 42.0099C68.3909 40.4776 67.2468 39.1832 65.7061 39.2041H60.7122ZM70.4076 44.8158H67.9441L70.9546 39.2041H73.5559L76.5663 44.8158H74.1028L73.6602 43.8555H70.8502L70.4076 44.8158ZM76.7375 39.1999V44.8117H78.9255V43.4421H80.8796L81.9359 44.8117H84.2658L83.0424 43.2375C83.4099 43.0663 83.7063 42.8075 83.9276 42.4692C84.1531 42.1269 84.2658 41.7427 84.2658 41.321C84.2825 40.1602 83.3013 39.1874 82.1447 39.1999H76.7375ZM84.9464 44.8158V39.2041H89.9399C91.4809 39.1832 92.6249 40.4776 92.6129 42.0099C92.6249 43.534 91.4809 44.8367 89.9399 44.8158H84.9464ZM45.9043 36.2776H41.5494V32.163L39.7444 36.2776H36.0509L34.2744 32.1841V36.2776H29.9059V24.6745H35.4188L37.9216 30.4531L40.5471 24.6745H45.9043V36.2776ZM60.1105 36.2776H47.9341V24.6745H60.015V28.2377H52.4255V28.7286H59.7966V32.2235H52.4255V32.728H60.1105V36.2776ZM75.5775 36.2776H71.7939L71.7304 35.5887C70.7819 36.1274 69.4979 36.4414 67.8444 36.4414C65.4922 36.4414 63.4338 35.7379 62.2521 34.2086C61.5491 33.3065 61.1488 31.9878 61.1488 30.4965C61.1488 29.1378 61.4964 27.8889 62.2794 26.8801L62.2819 26.8768L62.2845 26.8737C63.4739 25.3981 65.5757 24.4834 68.5679 24.4834C71.9878 24.4834 74.1675 25.5344 75.1223 27.475L75.1231 27.4765L75.1238 27.478C75.3458 27.9378 75.4659 28.5453 75.4815 28.9363L75.4858 29.0425H75.5775V36.2776ZM81.7287 34.2983L80.7323 36.2776H75.8557L82.0489 24.6745H86.9979L92.8509 36.2776H87.9039L86.9629 34.2983H81.7287ZM29.2714 50.5676H92.8059V49.0084H29.2714V50.5676Z" fill="white"/>
<path fill-rule="evenodd" clip-rule="evenodd" d="M32 2H115.726C131.742 2 144.726 14.9837 144.726 31C144.726 47.0163 131.742 60 115.726 60H32C15.9837 60 3 47.0163 3 31C3 14.9837 15.9837 2 32 2ZM32 4.8065C17.5337 4.8065 5.8065 16.5337 5.8065 31C5.8065 45.4663 17.5337 57.1936 32 57.1936H115.726C130.192 57.1936 141.919 45.4663 141.919 31C141.919 16.5337 130.192 4.8065 115.726 4.8065H32Z" fill="white"/>
</svg>
