<svg width="60" height="60" viewBox="0 0 60 60" fill="none" xmlns="http://www.w3.org/2000/svg">
<g clip-path="url(#clip0_161_93)">
<path d="M46.7 35.91L49.02 33.26C49.3947 32.8312 49.8911 32.5268 50.4432 32.3875C50.9953 32.2481 51.5767 32.2804 52.11 32.48L52.94 22.38C52.9705 21.7896 53.2076 21.2288 53.6097 20.7956C54.0119 20.3623 54.5536 20.0843 55.14 20.01C55.4597 19.9793 55.7823 20.0126 56.089 20.108C56.3957 20.2035 56.6802 20.3591 56.926 20.5658C57.1718 20.7725 57.374 21.0261 57.5206 21.3119C57.6672 21.5976 57.7554 21.9097 57.78 22.23L58.99 37.42C59.07 38.4365 58.7588 39.4452 58.12 40.24L47.88 52.9C47.3103 53.6087 46.9998 54.4907 47 55.4V58C47 58.2652 46.8946 58.5196 46.7071 58.7071C46.5196 58.8946 46.2652 59 46 59H38C37.7348 59 37.4804 58.8946 37.2929 58.7071C37.1054 58.5196 37 58.2652 37 58V48.88C36.9999 47.6691 37.4407 46.4996 38.24 45.59L46.7 35.91Z" fill="#F6F6F6"/>
<path d="M57.78 22.23C57.7554 21.9097 57.6672 21.5976 57.5206 21.3119C57.374 21.0261 57.1718 20.7725 56.926 20.5658C56.6802 20.3591 56.3957 20.2035 56.089 20.108C55.7823 20.0126 55.4597 19.9793 55.14 20.01C54.6758 20.0552 54.2365 20.2411 53.881 20.543C53.923 20.577 53.97 20.603 54.01 20.643C54.4567 21.0579 54.7314 21.6253 54.78 22.233L55.99 37.423C56.07 38.4395 55.7588 39.4482 55.12 40.243L44.88 52.9C44.3103 53.6087 43.9998 54.4907 44 55.4V58C44 58.2652 43.8946 58.5196 43.7071 58.7071C43.5196 58.8946 43.2652 59 43 59H46C46.2652 59 46.5196 58.8946 46.7071 58.7071C46.8946 58.5196 47 58.2652 47 58V55.4C46.9998 54.4907 47.3103 53.6087 47.88 52.9L58.12 40.24C58.7588 39.4452 59.07 38.4365 58.99 37.42L57.78 22.23Z" fill="#D8DDE1"/>
<path d="M22.9999 48.88V58C22.9999 58.2652 22.8946 58.5196 22.707 58.7071C22.5195 58.8946 22.2651 59 21.9999 59H13.9999C13.7347 59 13.4803 58.8946 13.2928 58.7071C13.1053 58.5196 12.9999 58.2652 12.9999 58V55.4C13.0001 54.4907 12.6896 53.6087 12.1199 52.9L1.87991 40.24C1.24107 39.4452 0.929871 38.4365 1.00991 37.42L2.21991 22.23C2.24449 21.9097 2.33268 21.5976 2.47931 21.3119C2.62594 21.0261 2.82807 20.7725 3.07388 20.5658C3.3197 20.3591 3.60426 20.2035 3.91092 20.108C4.21759 20.0126 4.54021 19.9793 4.85991 20.01C5.44604 20.085 5.98727 20.3633 6.38929 20.7964C6.79131 21.2295 7.02864 21.7899 7.05991 22.38L7.88991 32.48C8.42318 32.2804 9.00462 32.2481 9.5567 32.3875C10.1088 32.5268 10.6053 32.8312 10.9799 33.26L21.7599 45.59C22.5593 46.4996 23 47.6691 22.9999 48.88Z" fill="#F6F6F6"/>
<path d="M36 12C35.9961 12.5292 35.7841 13.0357 35.4099 13.4099C35.0357 13.7841 34.5292 13.9961 34 14H26C25.4701 13.9984 24.9623 13.7872 24.5875 13.4125C24.2128 13.0377 24.0016 12.5299 24 12C24.0039 11.4708 24.2159 10.9643 24.5901 10.5901C24.9643 10.2159 25.4708 10.0039 26 10H34C34.5299 10.0016 35.0377 10.2128 35.4125 10.5875C35.7872 10.9623 35.9984 11.4701 36 12Z" fill="#FFAC00"/>
<path d="M35.76 6.67998C35.1578 7.86124 34.4303 8.97431 33.59 9.99998H26.41C25.5698 8.97431 24.8422 7.86124 24.24 6.67998C24.0801 6.34607 23.998 5.98021 24 5.60998C23.9867 4.94785 24.2302 4.30627 24.6795 3.8197C25.1288 3.33314 25.7489 3.03938 26.41 2.99998C26.7591 2.36211 27.2813 1.83591 27.9165 1.48204C28.5517 1.12817 29.274 0.961059 30 0.999975C31.0259 0.969265 32.0257 1.32633 32.8 1.99998C33.1236 2.28095 33.3916 2.62015 33.59 2.99998C34.0093 3.02959 34.4151 3.16065 34.7725 3.38187C35.1299 3.6031 35.4282 3.90786 35.6417 4.26993C35.8552 4.632 35.9776 5.04054 35.9982 5.46036C36.0188 5.88019 35.9371 6.29874 35.76 6.67998Z" fill="#1A685B"/>
<path d="M33.59 3C33.3915 2.62018 33.1236 2.28097 32.8 2C32.0257 1.32635 31.0259 0.969287 30 0.999997C29.4891 0.998434 28.9817 1.08469 28.5 1.255C28.9773 1.41711 29.4188 1.6701 29.8 2C30.1236 2.28097 30.3915 2.62018 30.59 3C31.0093 3.02961 31.4151 3.16067 31.7725 3.38189C32.1299 3.60312 32.4282 3.90788 32.6417 4.26996C32.8552 4.63203 32.9775 5.04056 32.9981 5.46039C33.0187 5.88021 32.937 6.29876 32.76 6.68C32.1578 7.86127 31.4303 8.97433 30.59 10H33.59C34.4303 8.97433 35.1578 7.86127 35.76 6.68C35.937 6.29876 36.0187 5.88021 35.9981 5.46039C35.9775 5.04056 35.8552 4.63203 35.6417 4.26996C35.4282 3.90788 35.1299 3.60312 34.7725 3.38189C34.4151 3.16067 34.0093 3.02961 33.59 3Z" fill="#FFAC00"/>
<path d="M47.0001 33C47.0092 33.9782 46.9086 34.9543 46.7001 35.91L41.0401 42.38C38.1501 43.59 34.3501 44 30.0001 44C25.6501 44 21.8501 43.59 18.9601 42.38L13.3001 35.91C13.0916 34.9543 12.9909 33.9782 13.0001 33C13.0001 26.35 19.0001 17 26.0001 14H34.0001C40.0001 16 47.0001 26.35 47.0001 33Z" fill="#1A685B"/>
<path d="M34 14H31C37 16 44 26.35 44 33C44.0092 33.9782 43.9085 34.9543 43.7 35.91L38.04 42.38C34.9826 43.4846 31.7505 44.0267 28.5 43.98C28.993 43.992 29.492 43.999 30 43.999C34.35 43.999 38.15 43.589 41.04 42.379L46.7 35.909C46.9085 34.9536 47.0091 33.9778 47 33C47 26.35 40 16 34 14Z" fill="#FFAC00"/>
<path d="M57.6851 19.9C57.2028 19.4581 56.604 19.1636 55.9597 19.0511C55.3153 18.9387 54.6522 19.0131 54.0487 19.2655C53.4453 19.5179 52.9267 19.9377 52.5543 20.4755C52.1818 21.0132 51.9711 21.6463 51.9471 22.3L51.2031 31.3C50.6482 31.2866 50.0973 31.3962 49.5898 31.6209C49.0823 31.8457 48.631 32.18 48.2681 32.6L48.0001 32.916C47.9501 26.449 42.0781 17.283 36.2611 13.956C36.5635 13.6141 36.7828 13.207 36.9021 12.7664C37.0213 12.3258 37.0371 11.8636 36.9484 11.4158C36.8596 10.9681 36.6687 10.5469 36.3904 10.1851C36.1121 9.8233 35.754 9.53065 35.3441 9.32998C35.8447 8.62389 36.2868 7.87807 36.666 7.09998C36.9221 6.54622 37.0337 5.93659 36.9904 5.32803C36.947 4.71946 36.7501 4.13182 36.418 3.61998C36.1719 3.22029 35.8466 2.87524 35.462 2.60609C35.0774 2.33693 34.6418 2.14938 34.182 2.05498C33.709 1.39359 33.0795 0.859734 32.3497 0.501126C31.6199 0.142517 30.8126 -0.0296643 30 -2.52072e-05C29.1873 -0.0294402 28.3799 0.143048 27.6501 0.502013C26.9203 0.860977 26.2909 1.39523 25.8181 2.05697C25.3583 2.15138 24.9227 2.33893 24.5381 2.60809C24.1535 2.87724 23.8282 3.22229 23.582 3.62198C23.2498 4.13375 23.0528 4.72141 23.0095 5.33001C22.9661 5.93861 23.0778 6.54827 23.334 7.10198C23.7149 7.87955 24.1588 8.6247 24.661 9.32998C24.2452 9.53419 23.883 9.83283 23.6032 10.202C23.3234 10.5712 23.1339 11.0008 23.0497 11.4563C22.9656 11.9118 22.9892 12.3807 23.1186 12.8255C23.248 13.2703 23.4796 13.6787 23.795 14.018C17.45 17.745 12.049 26.188 12.005 32.918L11.732 32.607C11.3706 32.1853 10.9195 31.8497 10.4117 31.6248C9.90387 31.3999 9.35221 31.2913 8.79705 31.307L8.05405 22.314C8.00725 21.4864 7.67016 20.7019 7.10207 20.0983C6.53397 19.4947 5.77125 19.1108 4.94805 19.014C4.47 18.9742 3.98887 19.0329 3.53443 19.1865C3.07999 19.3401 2.66191 19.5853 2.30605 19.907C1.67565 20.4925 1.28807 21.2933 1.22005 22.151L0.0160451 37.343C-0.0860475 38.6124 0.301847 39.8727 1.10005 40.865L11.343 53.529C11.7669 54.0606 11.9984 54.72 12 55.4V58C12 58.5304 12.2108 59.0391 12.5858 59.4142C12.9609 59.7893 13.4696 60 14 60H22C22.5305 60 23.0392 59.7893 23.4143 59.4142C23.7893 59.0391 24 58.5304 24 58V48.879C23.9999 47.4256 23.4722 46.0217 22.515 44.928L21.991 44.328C24.6314 44.82 27.3146 45.0452 30 45C32.6855 45.0452 35.3687 44.82 38.009 44.328L37.4851 44.928C36.5279 46.0217 36.0002 47.4256 36 48.879V58C36 58.5304 36.2108 59.0391 36.5858 59.4142C36.9609 59.7893 37.4696 60 38 60H46C46.5305 60 47.0392 59.7893 47.4143 59.4142C47.7893 59.0391 48.0001 58.5304 48.0001 58V55.4C48.0007 54.7207 48.2312 54.0616 48.6541 53.53L58.9001 40.861C59.6962 39.8693 60.0826 38.6105 59.9801 37.343L58.7801 22.151C58.7108 21.2897 58.3199 20.4861 57.6851 19.9ZM26 13C25.7348 13 25.4805 12.8946 25.2929 12.7071C25.1054 12.5195 25 12.2652 25 12C25 11.7348 25.1054 11.4804 25.2929 11.2929C25.4805 11.1053 25.7348 11 26 11H34C34.2653 11 34.5196 11.1053 34.7072 11.2929C34.8947 11.4804 35 11.7348 35 12C35 12.2652 34.8947 12.5195 34.7072 12.7071C34.5196 12.8946 34.2653 13 34 13H26ZM25.2701 4.69998C25.3862 4.49627 25.552 4.32526 25.752 4.20287C25.9521 4.08048 26.1798 4.01068 26.414 3.99998C26.6041 3.99736 26.7897 3.94179 26.9499 3.83951C27.1101 3.73723 27.2387 3.59229 27.321 3.42098C27.5912 2.95839 27.9851 2.58034 28.4584 2.32931C28.9316 2.07828 29.4655 1.96423 30 1.99997C30.5325 1.96458 31.0643 2.07753 31.5363 2.32627C32.0084 2.57502 32.4022 2.94981 32.674 3.40898C32.7529 3.58492 32.881 3.73432 33.0428 3.83917C33.2046 3.94403 33.3932 3.99987 33.586 3.99998C33.8203 4.01078 34.048 4.08061 34.248 4.20299C34.448 4.32538 34.6138 4.49633 34.73 4.69998C34.8808 4.92778 34.9713 5.19008 34.9932 5.46237C35.015 5.73465 34.9675 6.00804 34.855 6.25698C34.3623 7.22714 33.7744 8.14598 33.1 8.99998H26.9C26.2258 8.14436 25.6382 7.22383 25.146 6.25198C25.0343 6.00377 24.9871 5.73137 25.0088 5.46006C25.0305 5.18874 25.1204 4.92729 25.2701 4.69998ZM22 58H14V55.4C13.998 54.2629 13.6102 53.1601 12.9 52.272L2.65705 39.611C2.17932 39.016 1.94777 38.2605 2.01005 37.5L3.21005 22.309C3.23698 21.9501 3.39964 21.615 3.66493 21.3718C3.93021 21.1286 4.27819 20.9957 4.63805 21C4.68205 21 4.72705 21 4.77105 21.006C5.12316 21.0588 5.44541 21.234 5.68115 21.5008C5.91689 21.7677 6.05105 22.109 6.06005 22.465L6.83805 31.887C6.36748 32.18 5.96671 32.5724 5.66384 33.0366C5.36098 33.5009 5.16336 34.0258 5.08485 34.5746C5.00634 35.1233 5.04883 35.6826 5.20934 36.2132C5.36986 36.7437 5.64452 37.2328 6.01405 37.646L12.253 44.664C12.4307 44.8566 12.6768 44.9718 12.9384 44.9848C13.2001 44.9978 13.4564 44.9077 13.6523 44.7337C13.8481 44.5597 13.9679 44.3158 13.9858 44.0544C14.0037 43.793 13.9184 43.5351 13.748 43.336L7.50905 36.317C7.31432 36.0965 7.17615 35.8319 7.10645 35.5461C7.03675 35.2602 7.03762 34.9617 7.10897 34.6763C7.18032 34.3909 7.32002 34.1271 7.51603 33.9077C7.71203 33.6884 7.95845 33.5199 8.23405 33.417C8.57827 33.2878 8.95378 33.2672 9.31008 33.3578C9.66638 33.4485 9.98638 33.646 10.227 33.924L21.01 46.244C21.6479 46.9736 21.9997 47.9098 22 48.879V58ZM30 43C25.428 43 22.009 42.516 19.542 41.53L14.242 35.469C14.0778 34.6563 13.9967 33.8291 14 33C14 26.494 19.919 17.811 26.2281 15H33.808C39.31 16.947 46 26.79 46 33C46.0044 33.829 45.9243 34.6562 45.7611 35.469L40.461 41.53C37.991 42.516 34.572 43 30 43ZM57.3461 39.607L47.1 52.279C46.3911 53.165 46.0034 54.2652 46 55.4V58H38V48.879C38.0004 47.9098 38.3522 46.9736 38.9901 46.244L49.7731 33.92C49.9419 33.7252 50.1506 33.5689 50.3851 33.4618C50.6195 33.3547 50.8743 33.2991 51.1321 33.299C51.4818 33.2986 51.8242 33.3993 52.1181 33.589C52.4119 33.7787 52.6447 34.0492 52.7883 34.3682C52.9319 34.6871 52.9802 35.0407 52.9275 35.3865C52.8748 35.7322 52.7232 36.0554 52.4911 36.317L46.252 43.336C46.162 43.4337 46.0922 43.5483 46.047 43.6733C46.0017 43.7982 45.9818 43.9309 45.9884 44.0637C45.995 44.1964 46.028 44.3265 46.0855 44.4463C46.1429 44.5661 46.2237 44.6733 46.3231 44.7615C46.4224 44.8498 46.5384 44.9174 46.6641 44.9603C46.7899 45.0032 46.9229 45.0207 47.0555 45.0116C47.1881 45.0025 47.3175 44.9671 47.4363 44.9074C47.555 44.8477 47.6607 44.765 47.7471 44.664L53.9861 37.646C54.3556 37.2328 54.6302 36.7437 54.7908 36.2132C54.9513 35.6826 54.9938 35.1233 54.9152 34.5746C54.8367 34.0258 54.6391 33.5009 54.3363 33.0366C54.0334 32.5724 53.6326 32.18 53.1621 31.887L53.9411 22.454C53.9518 22.0999 54.0867 21.7608 54.3221 21.4961C54.5576 21.2314 54.8786 21.0579 55.2291 21.006C55.4171 20.9866 55.6071 21.0051 55.7879 21.0603C55.9687 21.1155 56.1366 21.2064 56.2817 21.3276C56.4269 21.4487 56.5462 21.5977 56.6329 21.7658C56.7195 21.9338 56.7716 22.1175 56.7861 22.306L57.9901 37.5C58.0525 38.2588 57.8221 39.0127 57.3461 39.607Z" fill="#1F1F1F"/>
<path d="M30 25C30.5304 25 31.0391 25.2107 31.4142 25.5858C31.7893 25.9609 32 26.4696 32 27C32 27.2652 32.1054 27.5196 32.2929 27.7071C32.4804 27.8946 32.7348 28 33 28C33.2652 28 33.5196 27.8946 33.7071 27.7071C33.8946 27.5196 34 27.2652 34 27C33.9967 26.1158 33.7005 25.2576 33.1577 24.5596C32.6149 23.8615 31.8561 23.363 31 23.142V22C31 21.7348 30.8946 21.4804 30.7071 21.2929C30.5196 21.1054 30.2652 21 30 21C29.7348 21 29.4804 21.1054 29.2929 21.2929C29.1054 21.4804 29 21.7348 29 22V23.142C28.0584 23.3844 27.2376 23.962 26.6916 24.7666C26.1457 25.5712 25.9122 26.5474 26.035 27.512C26.1577 28.4765 26.6283 29.3631 27.3583 30.0053C28.0883 30.6475 29.0277 31.0012 30 31C30.3956 31 30.7822 31.1173 31.1111 31.3371C31.44 31.5568 31.6964 31.8692 31.8478 32.2346C31.9991 32.6001 32.0387 33.0022 31.9616 33.3902C31.8844 33.7781 31.6939 34.1345 31.4142 34.4142C31.1345 34.6939 30.7781 34.8844 30.3902 34.9616C30.0022 35.0387 29.6001 34.9991 29.2346 34.8478C28.8692 34.6964 28.5568 34.44 28.3371 34.1111C28.1173 33.7822 28 33.3956 28 33C28 32.7348 27.8946 32.4804 27.7071 32.2929C27.5196 32.1054 27.2652 32 27 32C26.7348 32 26.4804 32.1054 26.2929 32.2929C26.1054 32.4804 26 32.7348 26 33C26.0033 33.8842 26.2995 34.7424 26.8423 35.4404C27.3851 36.1385 28.1439 36.637 29 36.858V38C29 38.2652 29.1054 38.5196 29.2929 38.7071C29.4804 38.8946 29.7348 39 30 39C30.2652 39 30.5196 38.8946 30.7071 38.7071C30.8946 38.5196 31 38.2652 31 38V36.858C31.9416 36.6156 32.7624 36.038 33.3084 35.2334C33.8543 34.4288 34.0878 33.4526 33.965 32.488C33.8423 31.5235 33.3717 30.6369 32.6417 29.9947C31.9117 29.3525 30.9723 28.9988 30 29C29.4696 29 28.9609 28.7893 28.5858 28.4142C28.2107 28.0391 28 27.5304 28 27C28 26.4696 28.2107 25.9609 28.5858 25.5858C28.9609 25.2107 29.4696 25 30 25Z" fill="white"/>
</g>
<defs>
<clipPath id="clip0_161_93">
<rect width="60" height="60" fill="white"/>
</clipPath>
</defs>
</svg>
