<svg width="20" height="20" viewBox="0 0 20 20" fill="none" xmlns="http://www.w3.org/2000/svg">
<g clip-path="url(#clip0_20_73)">
<path d="M8.79006 9.4738L4.9597 13.3038C4.72981 13.5337 4.35548 13.5337 4.1254 13.3038C3.89625 13.0746 3.89379 12.7015 4.12536 12.4694L7.95568 8.6395C8.10823 8.48698 8.10824 8.23971 7.95572 8.08715C7.80328 7.93467 7.55592 7.93459 7.40337 8.08711L3.57285 11.9172C3.34546 12.1448 2.97242 12.1506 2.73901 11.917C2.50819 11.6862 2.50904 11.313 2.73905 11.0831L7.992 5.8301L8.0145 5.20987L7.43965 5.27775L4.29756 7.53378L1.78523 10.8797C1.78523 10.8797 1.82316 11.1582 1.80437 11.2698C1.66263 12.1127 2.31313 12.8802 3.17193 12.8708C3.16322 13.654 3.80001 14.2655 4.55866 14.2566C4.54882 15.0229 5.1678 15.6443 5.92911 15.6442C6.29539 15.6442 6.63964 15.5015 6.89839 15.2425L7.58135 14.5595C7.73387 14.407 7.73387 14.1597 7.58135 14.0072C7.42883 13.8548 7.1816 13.8547 7.02896 14.0072L6.34585 14.6903C6.11607 14.9203 5.74319 14.9215 5.51201 14.6901C5.28208 14.4602 5.28114 14.0871 5.51197 13.8562L9.34229 10.0262C9.49485 9.87367 9.49485 9.6264 9.34233 9.47384C9.18997 9.32136 8.94262 9.32128 8.79006 9.4738Z" fill="white"/>
<path d="M18.3353 3.10577C16.1204 0.890901 12.5165 0.890862 10.3016 3.10577C9.52775 3.87957 9.77295 3.63593 9.72316 3.68413C9.56657 3.84555 9.57724 4.08564 9.72058 4.23246C9.86614 4.38162 10.1116 4.39607 10.2759 4.23621C10.3232 4.18891 10.7934 3.71866 10.8539 3.65816C12.7642 1.74782 15.8726 1.74782 17.783 3.65816C19.6833 5.55838 19.7112 8.65512 17.7865 10.5837L14.7802 13.4398C14.6238 13.5884 14.6175 13.8356 14.7661 13.992C14.9148 14.1485 15.1621 14.1546 15.3183 14.0061C18.5074 10.9763 18.3285 11.1464 18.3354 11.1396C20.5949 8.87993 20.5144 5.28497 18.3353 3.10577Z" fill="white"/>
<path d="M15.3254 12.0602L13.121 9.85582C12.5852 9.32 11.718 9.31996 11.1821 9.85579C10.9106 10.1273 10.7773 10.4852 10.7816 10.8418C10.0104 10.8326 9.38584 11.4565 9.39506 12.2283C8.63153 12.2192 7.99911 12.8351 8.0079 13.6149C7.24519 13.6061 6.62097 14.2188 6.62097 14.9848C6.62097 15.3511 6.76357 15.6953 7.02252 15.9543L9.22692 18.1587C9.49423 18.426 9.84528 18.5596 10.1964 18.5596C10.9593 18.5596 11.5752 17.9395 11.5663 17.1733C12.3439 17.1826 12.9617 16.5515 12.9529 15.7868C13.7296 15.7961 14.3486 15.1654 14.3394 14.3996C14.7211 14.4042 15.0707 14.2538 15.3254 13.9991C15.8612 13.4633 15.8613 12.5961 15.3254 12.0602Z" fill="#FFAC00"/>
<path d="M7.99208 5.8301L9.73583 7.57385C10.3388 8.17686 11.3019 8.18229 11.9132 7.61189C12.5584 7.00975 12.5823 5.98793 11.952 5.3577L9.93175 3.33738L9.93093 3.3382L9.69853 3.1058C7.47863 0.885431 3.88551 0.884962 1.6647 3.10584C-0.558012 5.3295 -0.551802 8.92301 1.66474 11.1396L1.80484 11.2699C1.85171 10.9912 1.98306 10.7345 2.18682 10.5308L7.43973 5.27779L7.99208 5.8301Z" fill="#FFAC00"/>
</g>
<defs>
<clipPath id="clip0_20_73">
<rect width="20" height="20" fill="white"/>
</clipPath>
</defs>
</svg>
