<svg width="156" height="50" viewBox="0 0 156 50" fill="none" xmlns="http://www.w3.org/2000/svg">
<path d="M32.4335 24.8615C32.4335 21.4511 31.812 18.686 30.569 16.5661C29.3721 14.4001 27.7147 12.8101 25.5971 11.7963C23.5254 10.7363 21.1545 10.2063 18.4844 10.2063C17.4716 10.2063 16.5048 10.2524 15.5841 10.3446C14.7094 10.3907 13.8577 10.4828 13.029 10.6211V39.3092C13.8577 39.4936 14.7784 39.6318 15.7912 39.724C16.804 39.7701 17.8169 39.7931 18.8297 39.7931C23.1111 39.7931 26.4487 38.5488 28.8426 36.0602C31.2365 33.5255 32.4335 29.7926 32.4335 24.8615ZM41.4107 24.7232C41.4107 29.7004 40.4669 33.8481 38.5794 37.1662C36.6919 40.4383 34.0678 42.8808 30.7071 44.4938C27.3464 46.1068 23.3873 46.9133 18.8297 46.9133C17.3105 46.9133 15.515 46.8211 13.4434 46.6368C11.3717 46.4985 9.4612 46.1298 7.71181 45.5307C5.45601 44.7473 4.32811 43.3878 4.32811 41.4522V7.51033C4.32811 6.63471 4.55829 5.96647 5.01866 5.50562C5.52506 5.04477 6.16958 4.67608 6.9522 4.39957C8.65556 3.89263 10.497 3.54699 12.4766 3.36265C14.5022 3.17831 16.3897 3.08614 18.1391 3.08614C22.7888 3.08614 26.84 3.89263 30.2928 5.50562C33.7916 7.07252 36.5077 9.44591 38.4413 12.6258C40.4209 15.8057 41.4107 19.8382 41.4107 24.7232Z" fill="white"/>
<path d="M8.90957 27.1605C1.78326 33.0864 0.00168807 43.4156 0.00168807 47.8395C-0.0302131 48.8272 0.397954 49.6914 0.616025 50C7.4966 42.0988 14.1314 38.0658 16.5888 37.037C27.6468 34.0741 24.0632 32.3045 20.8891 31.7901C34.8897 29.8148 33.6852 27.6749 31.3329 26.8519C36.4933 26.6049 34.7117 24.6914 33.1759 23.7654C36.8619 21.0494 39.2169 16.0494 39.9336 13.8889C42.3909 7.96296 42.1861 2.16049 41.7766 0C41.2851 0.493827 40.3431 1.02881 39.9336 1.23457C33.2987 9.87654 25.2919 14.0947 22.1178 15.1235C15.2372 17.3457 18.6366 18.5185 21.1963 18.8272C8.4181 21.5432 8.90957 23.4568 10.7526 24.0741C7.3123 24.321 8.09046 26.2346 8.90957 27.1605Z" fill="white"/>
<path d="M41.4104 1.80969C41.4104 1.80969 35.3622 8.5245 29.1856 12.8204C24.6842 15.9512 19.4703 16.9227 19.6475 17.3739C19.8702 17.9414 22.0798 18.0429 24.288 17.4602C26.2466 16.9436 28.1742 15.8233 29.1598 14.9858C27.5811 17.3047 26.0333 18.5328 21.2959 20.6189C16.5586 22.705 11.3436 22.1848 11.2263 23.2694C11.1089 24.3539 19.8463 24.0207 25.8654 20.7968C25.8654 20.7968 21.5113 23.2424 17.7673 24.1438C14.0233 25.0452 8.82926 24.8645 9.12608 25.8298C9.4229 26.7949 19.6757 26.0923 26.8146 22.662C26.8146 22.662 23.67 24.6736 19.3292 25.9019C14.9884 27.1303 11.746 26.5984 11.6676 27.4955C11.5891 28.3927 19.1036 28.8904 27.5979 24.7077C27.5979 24.7077 24.9875 26.5257 21.98 27.5142C19.3484 28.3789 16.2505 28.0488 16.3961 29.0692C16.5416 30.0897 40.0954 29.4196 41.4104 1.80969Z" fill="#FFAC00"/>
<path d="M0.619675 48.184C0.619675 48.184 6.92116 41.7055 13.2582 37.6492C17.8765 34.693 23.1238 33.9218 22.9641 33.4641C22.7633 32.8887 20.5592 32.7025 18.3303 33.2003C16.3534 33.6417 14.3841 34.6874 13.3671 35.4864C15.0335 33.2296 16.6273 32.0616 21.4413 30.1586C26.2554 28.2554 31.4464 28.9748 31.6053 27.8957C31.7642 26.8164 23.0204 26.8149 16.882 29.8059C16.882 29.8059 21.3267 27.5288 25.1026 26.7714C28.8785 26.014 34.0618 26.3934 33.8022 25.4174C33.5426 24.4416 23.2704 24.7511 16.0051 27.9056C16.0051 27.9056 19.2246 26.0158 23.6094 24.9545C27.9941 23.8933 31.2136 24.5489 31.3265 23.6555C31.4393 22.762 23.9495 21.9769 15.301 25.8313C15.301 25.8313 17.9791 24.1144 21.0225 23.242C23.6854 22.4787 26.7684 22.9271 26.662 21.9018C26.5556 20.8767 2.99342 20.6445 0.619675 48.184Z" fill="#1A685B"/>
<path d="M73.8735 31.9855C73.8735 35.044 73.2818 37.7053 72.0986 39.9694C70.9154 42.1938 69.2392 43.9216 67.0699 45.153C64.9401 46.3446 62.4159 46.9404 59.4973 46.9404C56.5786 46.9404 54.0347 46.3446 51.8655 45.153C49.6962 43.9216 48.0003 42.1938 46.7776 39.9694C45.5944 37.745 45.0027 35.0837 45.0027 31.9855C45.0027 28.927 45.6141 26.2856 46.8367 24.0612C48.0594 21.8368 49.7554 20.1288 51.9246 18.9372C54.0939 17.7058 56.6181 17.0902 59.4973 17.0902C62.3764 17.0902 64.8809 17.7058 67.0108 18.9372C69.18 20.1288 70.8562 21.8567 72.0395 24.1208C73.2621 26.3451 73.8735 28.9667 73.8735 31.9855ZM59.4973 22.9291C57.328 22.9291 55.6123 23.7236 54.3502 25.3124C53.1276 26.9012 52.5162 29.1256 52.5162 31.9855C52.5162 34.9249 53.1276 37.1889 54.3502 38.7778C55.5729 40.3269 57.2886 41.1014 59.4973 41.1014C61.6665 41.1014 63.3625 40.307 64.5851 38.7182C65.8078 37.1294 66.4191 34.8851 66.4191 31.9855C66.4191 29.1653 65.8078 26.9608 64.5851 25.372C63.3625 23.7434 61.6665 22.9291 59.4973 22.9291Z" fill="white"/>
<path d="M104.184 27.6957V33.475H96.9071V27.9936C96.9071 26.2458 96.4141 24.9748 95.4281 24.1804C94.442 23.3462 93.1208 22.9291 91.4642 22.9291C90.2416 22.9291 89.1372 23.088 88.1512 23.4058C87.2046 23.6838 86.3567 24.0215 85.6073 24.4187V33.475H78.3304V23.942C78.3304 22.9887 78.5276 22.2142 78.922 21.6184C79.3165 20.9828 79.9081 20.4069 80.6969 19.8905C81.8801 19.0961 83.3986 18.4407 85.2523 17.9243C87.1455 17.3682 89.2358 17.0902 91.5234 17.0902C95.5069 17.0902 98.603 17.9839 100.812 19.7713C103.06 21.5588 104.184 24.2002 104.184 27.6957ZM78.3304 30.5556H85.6073V45.9871C85.2917 46.1063 84.8382 46.2056 84.2466 46.285C83.655 46.4042 83.0042 46.4638 82.2942 46.4638C80.9533 46.4638 79.9475 46.2254 79.277 45.7488C78.646 45.2324 78.3304 44.3387 78.3304 43.0676V30.5556ZM96.9071 30.5556H104.184V45.9871C103.908 46.1063 103.454 46.2056 102.823 46.285C102.232 46.4042 101.601 46.4638 100.93 46.4638C99.5496 46.4638 98.5242 46.2254 97.8537 45.7488C97.2226 45.2324 96.9071 44.3387 96.9071 43.0676V30.5556Z" fill="white"/>
<path d="M121.069 41.3994C122.252 41.3994 123.317 41.2802 124.264 41.0419C125.21 40.8035 125.9 40.5454 126.334 40.2673V33.475L120.477 34.0709C118.86 34.19 117.618 34.5475 116.75 35.1433C115.922 35.6994 115.508 36.5335 115.508 37.6457C115.508 38.7976 115.961 39.7112 116.868 40.3865C117.776 41.0617 119.176 41.3994 121.069 41.3994ZM120.773 17.0902C124.638 17.0902 127.715 17.9243 130.002 19.5926C132.29 21.2211 133.434 23.803 133.434 27.3382V41.0419C133.434 41.9952 133.197 42.7499 132.724 43.306C132.29 43.8621 131.718 44.3586 131.008 44.7955C129.904 45.431 128.504 45.9474 126.808 46.3446C125.112 46.7815 123.199 47 121.069 47C117.125 47 114.029 46.2453 111.781 44.7359C109.532 43.1868 108.408 40.9028 108.408 37.8841C108.408 35.2228 109.237 33.197 110.893 31.8068C112.589 30.3768 115.034 29.503 118.229 29.1852L126.275 28.351V27.2786C126.275 25.6897 125.723 24.5378 124.619 23.8229C123.554 23.1079 122.035 22.7504 120.063 22.7504C118.525 22.7504 117.026 22.949 115.567 23.3462C114.108 23.7434 112.806 24.2201 111.662 24.7762C111.268 24.4584 110.913 24.0215 110.597 23.4654C110.282 22.9093 110.124 22.3333 110.124 21.7375C110.124 20.3076 110.913 19.255 112.491 18.5797C113.595 18.0633 114.877 17.686 116.336 17.4477C117.835 17.2093 119.314 17.0902 120.773 17.0902Z" fill="white"/>
<path d="M139.201 30.3768H146.478V37.4074C146.478 38.7182 146.852 39.6516 147.602 40.2077C148.391 40.7638 149.495 41.0419 150.915 41.0419C151.546 41.0419 152.216 40.9624 152.926 40.8035C153.676 40.6447 154.307 40.4461 154.82 40.2077C155.096 40.5255 155.352 40.9028 155.589 41.3398C155.825 41.7767 155.944 42.3129 155.944 42.9485C155.944 44.1004 155.391 45.0537 154.287 45.8084C153.222 46.5631 151.546 46.9404 149.258 46.9404C146.143 46.9404 143.677 46.2453 141.863 44.8551C140.088 43.4251 139.201 41.1213 139.201 37.9436V30.3768ZM143.638 24.2995V18.5201H155.234C155.391 18.7982 155.549 19.1954 155.707 19.7118C155.904 20.2281 156.003 20.7644 156.003 21.3205C156.003 22.3135 155.766 23.0682 155.293 23.5845C154.82 24.0612 154.208 24.2995 153.459 24.2995H143.638ZM146.478 31.9855H139.201V10.5362C139.516 10.4171 139.97 10.2979 140.562 10.1787C141.193 10.0596 141.843 10 142.514 10C143.894 10 144.9 10.2582 145.531 10.7746C146.162 11.2512 146.478 12.1251 146.478 13.3961V31.9855Z" fill="white"/>
</svg>
