<svg width="156" height="50" viewBox="0 0 156 50" fill="none" xmlns="http://www.w3.org/2000/svg">
<path d="M32.4308 24.8615C32.4308 21.4512 31.8093 18.686 30.5663 16.5661C29.3693 14.4001 27.712 12.8101 25.5943 11.7963C23.5227 10.7363 21.1518 10.2063 18.4816 10.2063C17.4688 10.2063 16.5021 10.2524 15.5813 10.3446C14.7066 10.3907 13.855 10.4828 13.0263 10.6211V39.3092C13.855 39.4936 14.7757 39.6318 15.7885 39.724C16.8013 39.7701 17.8141 39.7931 18.8269 39.7931C23.1083 39.7931 26.446 38.5488 28.8399 36.0602C31.2338 33.5255 32.4308 29.7926 32.4308 24.8615ZM41.4079 24.7232C41.4079 29.7004 40.4642 33.8481 38.5766 37.1663C36.6891 40.4383 34.0651 42.8808 30.7044 44.4938C27.3437 46.1068 23.3845 46.9133 18.8269 46.9133C17.3077 46.9133 15.5123 46.8211 13.4406 46.6368C11.369 46.4985 9.45845 46.1299 7.70906 45.5307C5.45326 44.7473 4.32536 43.3878 4.32536 41.4522V7.51033C4.32536 6.63471 4.55555 5.96647 5.01591 5.50562C5.52232 5.04477 6.16683 4.67609 6.94945 4.39957C8.65281 3.89263 10.4943 3.54699 12.4739 3.36265C14.4995 3.17831 16.387 3.08614 18.1364 3.08614C22.7861 3.08614 26.8373 3.89263 30.29 5.50562C33.7888 7.07252 36.505 9.44592 38.4385 12.6258C40.4181 15.8057 41.4079 19.8382 41.4079 24.7232Z" fill="#1F1F1F"/>
<path d="M8.90682 27.1605C1.78052 33.0864 -0.00105852 43.4156 -0.00105852 47.8395C-0.0329597 48.8272 0.395207 49.6914 0.613278 50C7.49385 42.0988 14.1287 38.0658 16.586 37.037C27.6441 34.0741 24.0605 32.3045 20.8864 31.7901C34.8869 29.8148 33.6824 27.6749 31.3301 26.8519C36.4905 26.6049 34.709 24.6914 33.1731 23.7654C36.8591 21.0494 39.2141 16.0494 39.9308 13.8889C42.3882 7.96296 42.1834 2.16049 41.7738 0C41.2824 0.493827 40.3404 1.02881 39.9308 1.23457C33.296 9.87654 25.2891 14.0947 22.1151 15.1235C15.2345 17.3457 18.6338 18.5185 21.1936 18.8272C8.41535 21.5432 8.90682 23.4568 10.7498 24.0741C7.30955 24.321 8.08771 26.2346 8.90682 27.1605Z" fill="white"/>
<path d="M41.4077 1.80969C41.4077 1.80969 35.3594 8.5245 29.1828 12.8204C24.6815 15.9512 19.4675 16.9227 19.6447 17.3739C19.8675 17.9414 22.077 18.0429 24.2853 17.4602C26.2438 16.9436 28.1715 15.8233 29.157 14.9858C27.5783 17.3047 26.0306 18.5328 21.2932 20.6189C16.5558 22.705 11.3409 22.1848 11.2235 23.2694C11.1061 24.3539 19.8436 24.0207 25.8627 20.7968C25.8627 20.7968 21.5085 23.2424 17.7646 24.1438C14.0206 25.0452 8.82652 24.8645 9.12333 25.8298C9.42015 26.7949 19.673 26.0923 26.8118 22.662C26.8118 22.662 23.6673 24.6736 19.3264 25.9019C14.9856 27.1303 11.7432 26.5984 11.6648 27.4955C11.5864 28.3927 19.1008 28.8904 27.5952 24.7077C27.5952 24.7077 24.9847 26.5257 21.9773 27.5142C19.3457 28.3789 16.2478 28.0488 16.3934 29.0692C16.5388 30.0897 40.0926 29.4196 41.4077 1.80969Z" fill="#FFAC00"/>
<path d="M0.616928 48.184C0.616928 48.184 6.91842 41.7055 13.2555 37.6492C17.8737 34.693 23.121 33.9218 22.9613 33.4641C22.7606 32.8887 20.5565 32.7025 18.3275 33.2003C16.3507 33.6417 14.3814 34.6874 13.3644 35.4864C15.0308 33.2296 16.6246 32.0616 21.4386 30.1586C26.2526 28.2554 31.4437 28.9748 31.6026 27.8957C31.7615 26.8164 23.0176 26.8149 16.8792 29.8059C16.8792 29.8059 21.3239 27.5288 25.0998 26.7714C28.8757 26.014 34.0591 26.3934 33.7994 25.4174C33.5398 24.4416 23.2676 24.7511 16.0024 27.9056C16.0024 27.9056 19.2218 26.0158 23.6066 24.9545C27.9914 23.8933 31.2108 24.5489 31.3237 23.6555C31.4366 22.762 23.9467 21.9769 15.2983 25.8313C15.2983 25.8313 17.9764 24.1144 21.0198 23.242C23.6826 22.4787 26.7656 22.9271 26.6593 21.9018C26.5528 20.8767 2.99067 20.6445 0.616928 48.184Z" fill="#1A685B"/>
<path d="M73.8707 31.9855C73.8707 35.044 73.2791 37.7053 72.0959 39.9694C70.9127 42.1938 69.2364 43.9216 67.0672 45.153C64.9374 46.3446 62.4131 46.9404 59.4945 46.9404C56.5759 46.9404 54.032 46.3446 51.8627 45.153C49.6935 43.9216 47.9975 42.1938 46.7748 39.9694C45.5916 37.745 45 35.0837 45 31.9855C45 28.927 45.6113 26.2856 46.834 24.0612C48.0567 21.8368 49.7526 20.1288 51.9219 18.9372C54.0911 17.7058 56.6153 17.0902 59.4945 17.0902C62.3737 17.0902 64.8782 17.7058 67.008 18.9372C69.1773 20.1288 70.8535 21.8567 72.0367 24.1208C73.2594 26.3451 73.8707 28.9667 73.8707 31.9855ZM59.4945 22.9291C57.3253 22.9291 55.6096 23.7236 54.3475 25.3124C53.1248 26.9012 52.5135 29.1256 52.5135 31.9855C52.5135 34.9249 53.1248 37.1889 54.3475 38.7778C55.5702 40.3269 57.2858 41.1014 59.4945 41.1014C61.6638 41.1014 63.3597 40.307 64.5824 38.7182C65.8051 37.1294 66.4164 34.8851 66.4164 31.9855C66.4164 29.1653 65.8051 26.9608 64.5824 25.372C63.3597 23.7434 61.6638 22.9291 59.4945 22.9291Z" fill="#1F1F1F"/>
<path d="M104.181 27.6957V33.475H96.9043V27.9936C96.9043 26.2458 96.4113 24.9748 95.4253 24.1804C94.4393 23.3462 93.118 22.9291 91.4615 22.9291C90.2388 22.9291 89.1345 23.088 88.1485 23.4058C87.2019 23.6838 86.3539 24.0215 85.6045 24.4187V33.475H78.3277V23.942C78.3277 22.9887 78.5249 22.2142 78.9193 21.6184C79.3137 20.9828 79.9053 20.4069 80.6941 19.8905C81.8774 19.0961 83.3958 18.4407 85.2496 17.9243C87.1427 17.3682 89.2331 17.0902 91.5207 17.0902C95.5042 17.0902 98.6003 17.9839 100.809 19.7713C103.057 21.5588 104.181 24.2002 104.181 27.6957ZM78.3277 30.5556H85.6045V45.9871C85.289 46.1063 84.8354 46.2056 84.2438 46.285C83.6522 46.4042 83.0014 46.4638 82.2915 46.4638C80.9505 46.4638 79.9448 46.2254 79.2743 45.7488C78.6432 45.2324 78.3277 44.3387 78.3277 43.0676V30.5556ZM96.9043 30.5556H104.181V45.9871C103.905 46.1063 103.452 46.2056 102.82 46.285C102.229 46.4042 101.598 46.4638 100.927 46.4638C99.5469 46.4638 98.5214 46.2254 97.8509 45.7488C97.2199 45.2324 96.9043 44.3387 96.9043 43.0676V30.5556Z" fill="#1F1F1F"/>
<path d="M121.066 41.3994C122.249 41.3994 123.314 41.2802 124.261 41.0419C125.207 40.8035 125.898 40.5454 126.332 40.2673V33.475L120.475 34.0709C118.857 34.19 117.615 34.5475 116.747 35.1433C115.919 35.6994 115.505 36.5335 115.505 37.6457C115.505 38.7976 115.959 39.7112 116.866 40.3865C117.773 41.0617 119.173 41.3994 121.066 41.3994ZM120.77 17.0902C124.636 17.0902 127.712 17.9243 130 19.5926C132.287 21.2211 133.431 23.803 133.431 27.3382V41.0419C133.431 41.9952 133.194 42.7499 132.721 43.306C132.287 43.8621 131.715 44.3586 131.005 44.7955C129.901 45.431 128.501 45.9474 126.805 46.3446C125.109 46.7815 123.196 47 121.066 47C117.122 47 114.026 46.2453 111.778 44.7359C109.53 43.1868 108.406 40.9028 108.406 37.8841C108.406 35.2228 109.234 33.197 110.89 31.8068C112.586 30.3768 115.032 29.503 118.226 29.1852L126.272 28.351V27.2786C126.272 25.6897 125.72 24.5378 124.616 23.8229C123.551 23.1079 122.032 22.7504 120.06 22.7504C118.522 22.7504 117.023 22.949 115.564 23.3462C114.105 23.7434 112.803 24.2201 111.66 24.7762C111.265 24.4584 110.91 24.0215 110.595 23.4654C110.279 22.9093 110.121 22.3333 110.121 21.7375C110.121 20.3076 110.91 19.255 112.488 18.5797C113.592 18.0633 114.874 17.686 116.333 17.4477C117.832 17.2093 119.311 17.0902 120.77 17.0902Z" fill="#1F1F1F"/>
<path d="M139.198 30.3768H146.475V37.4074C146.475 38.7182 146.85 39.6516 147.599 40.2077C148.388 40.7638 149.492 41.0419 150.912 41.0419C151.543 41.0419 152.214 40.9624 152.924 40.8035C153.673 40.6447 154.304 40.4461 154.817 40.2077C155.093 40.5255 155.349 40.9028 155.586 41.3398C155.823 41.7767 155.941 42.3129 155.941 42.9485C155.941 44.1004 155.389 45.0537 154.284 45.8084C153.219 46.5631 151.543 46.9404 149.256 46.9404C146.14 46.9404 143.675 46.2453 141.86 44.8551C140.086 43.4251 139.198 41.1213 139.198 37.9436V30.3768ZM143.635 24.2995V18.5201H155.231C155.389 18.7982 155.546 19.1954 155.704 19.7118C155.901 20.2281 156 20.7644 156 21.3205C156 22.3135 155.763 23.0682 155.29 23.5845C154.817 24.0612 154.205 24.2995 153.456 24.2995H143.635ZM146.475 31.9855H139.198V10.5362C139.514 10.4171 139.967 10.2979 140.559 10.1787C141.19 10.0596 141.841 10 142.511 10C143.892 10 144.897 10.2582 145.528 10.7746C146.16 11.2512 146.475 12.1251 146.475 13.3961V31.9855Z" fill="#1F1F1F"/>
</svg>
