<svg width="60" height="60" viewBox="0 0 60 60" fill="none" xmlns="http://www.w3.org/2000/svg">
<g clip-path="url(#clip0_52_319)">
<path d="M2.98254 27.6548V47.2242H27.082L27.0832 47.2253L38.137 39.0788V27.6548H2.98254Z" fill="#FDF8EA"/>
<path d="M55.8596 38.3183C58.1146 42.2257 56.7985 47.2474 52.8573 49.5232L46.0257 53.4675L37.823 39.2604C46.9416 33.9956 44.0856 35.6447 44.6547 35.3161C48.5779 33.0511 53.5944 34.3951 55.8596 38.3183Z" fill="#1A685B"/>
<path d="M37.8229 39.2605L46.0256 53.4676L38.6502 57.726C34.7269 59.9911 29.7104 58.6471 27.4453 54.7237C25.1653 50.7637 26.5538 45.7679 30.4475 43.5189L37.8229 39.2605Z" fill="#FFAC00"/>
<path d="M31.1061 15.9367L37.1995 24.0608C37.8077 24.8729 38.137 25.8595 38.137 26.8732V27.6548H2.98254V26.8732C2.98254 25.8595 3.31184 24.8729 3.92004 24.0608L10.0134 15.9367V11.2494H31.1061V15.9367Z" fill="#FFAC00"/>
<path d="M33.4498 3.51539V8.90578C33.4498 10.2006 32.4009 11.2494 31.1061 11.2494H10.0134C8.71863 11.2494 7.6698 10.2006 7.6698 8.90578V3.51539C7.6698 2.22058 8.71863 1.17175 10.0134 1.17175H31.1061C32.4009 1.17175 33.4498 2.22058 33.4498 3.51539Z" fill="#797E88"/>
<path d="M27.0832 47.2254L27.082 47.2242H2.98254V49.5679C2.98254 52.1564 5.08125 54.2551 7.66981 54.2551H27.1934L27.1945 54.254L27.0832 47.2254Z" fill="#FFAC00"/>
<path d="M14.73 17.1085C15.3769 17.1085 15.9017 16.5835 15.9017 15.9368C15.9017 15.2899 15.3767 14.765 14.73 14.765C14.0831 14.765 13.5582 15.29 13.5582 15.9368C13.5581 16.5835 14.0831 17.1085 14.73 17.1085Z" fill="#1F1F1F"/>
<path d="M25.2763 36.6779H21.7609V33.1625C21.7609 32.5154 21.2361 31.9907 20.5891 31.9907C19.9421 31.9907 19.4174 32.5155 19.4174 33.1625V36.6779H15.902C15.2549 36.6779 14.7302 37.2026 14.7302 37.8497C14.7302 38.4969 15.255 39.0215 15.902 39.0215H19.4174V42.5369C19.4174 43.184 19.9421 43.7087 20.5891 43.7087C21.2361 43.7087 21.7609 43.1839 21.7609 42.5369V39.0215H25.2763C25.9234 39.0215 26.448 38.4967 26.448 37.8497C26.4482 37.2026 25.9235 36.6779 25.2763 36.6779Z" fill="#1F1F1F"/>
<path d="M44.098 34.3014L39.3381 37.0494V26.8733C39.3381 25.6153 38.9221 24.3669 38.1662 23.3579L32.3072 15.5461V12.2196C33.671 11.7359 34.6508 10.4334 34.6508 8.90566V3.51539C34.6508 1.57699 33.0738 0 31.1354 0H10.0427C8.10435 0 6.52724 1.57699 6.52724 3.51539V8.90578C6.52724 10.4333 7.50704 11.736 8.87087 12.2197V15.5462L3.01138 23.3585C2.25599 24.367 1.84009 25.6153 1.84009 26.8733V49.5679C1.84009 52.7986 4.46849 55.4269 7.69911 55.4269H26.5314C29.1588 59.8311 34.8244 61.305 39.2654 58.7408L53.4727 50.538C57.9205 47.9695 59.5071 42.2436 56.9036 37.7325C54.3133 33.2459 48.5855 31.7102 44.098 34.3014ZM26.3929 46.0523H4.1836V28.8267H36.9945V38.4023L29.8907 42.5041C28.4095 43.3597 27.2124 44.5777 26.3929 46.0523ZM8.87087 3.51539C8.87087 2.86922 9.39657 2.34363 10.0426 2.34363H31.1353C31.7815 2.34363 32.3072 2.86934 32.3072 3.51539V8.90578C32.3072 9.55195 31.7815 10.0775 31.1353 10.0775H10.0427C9.39657 10.0775 8.87099 9.55184 8.87099 8.90578L8.87087 3.51539ZM10.9801 16.6398C11.1322 16.4371 11.2145 16.1903 11.2145 15.9367V12.4213H29.9636V14.7649H19.4173C18.7702 14.7649 18.2455 15.2897 18.2455 15.9367C18.2455 16.5838 18.7703 17.1084 19.4173 17.1084H30.5495L36.2909 24.7634C36.6661 25.2643 36.8992 25.8638 36.9696 26.483H4.20856C4.27888 25.8638 4.51196 25.2645 4.88685 24.7639L10.9801 16.6398ZM4.1836 49.5679V48.3844H25.4736C25.102 49.9037 25.1045 51.5265 25.53 53.0834H7.69911C5.76071 53.0832 4.1836 51.5063 4.1836 49.5679ZM38.0937 56.7111C34.7308 58.653 30.4335 57.5046 28.4903 54.1393C26.5378 50.7416 27.7211 46.4638 31.0628 44.5336L37.4234 40.8612L44.4543 53.0387L38.0937 56.7111ZM52.3008 48.5085L46.484 51.867L39.4529 39.6892L45.2699 36.3309C48.6351 34.3882 52.9308 35.5386 54.874 38.904C56.8258 42.2864 55.6389 46.5809 52.3008 48.5085Z" fill="#1F1F1F"/>
</g>
<defs>
<clipPath id="clip0_52_319">
<rect width="60" height="60" fill="white"/>
</clipPath>
</defs>
</svg>
