<svg width="60" height="60" viewBox="0 0 60 60" fill="none" xmlns="http://www.w3.org/2000/svg">
<path d="M51.6865 14.6136V35.2247C51.6865 36.85 50.6966 38.3414 49.1679 38.8936C36.6732 43.4069 24.1783 43.4069 11.6835 38.8936C10.1548 38.3414 9.16492 36.8501 9.16492 35.2247V14.6136H51.6865Z" fill="#1A685B"/>
<path d="M46.8526 50.2516V54.7993C46.8526 56.4171 45.5412 57.7286 43.9233 57.7286C42.3055 57.7286 40.994 56.4172 40.994 54.7993V50.2516C40.994 48.6338 42.3054 47.3223 43.9233 47.3223C45.5412 47.3223 46.8526 48.6337 46.8526 50.2516Z" fill="#FFAC00"/>
<path d="M57.6562 11.9723L32.2944 2.57301C30.6892 1.97817 28.9222 1.98954 27.3249 2.60512L2.99712 11.9806C1.45037 12.5767 1.45669 14.7674 3.00685 15.3545L27.3622 24.5788C28.9372 25.1753 30.674 25.1865 32.2564 24.61L57.6466 15.3625C59.2257 14.7873 59.232 12.5562 57.6562 11.9723Z" fill="#D8DDE1"/>
<path d="M57.9038 11.3041L32.5421 1.90503C30.7736 1.24878 28.8294 1.26109 27.0687 1.94066L2.74081 11.3157C1.75819 11.6942 1.12538 12.6191 1.12843 13.6728C1.13124 14.7258 1.76956 15.6475 2.75452 16.0204L8.45276 18.1785V35.2246C8.45276 37.1743 9.65382 38.9181 11.4416 39.5637C22.2568 43.47 32.875 43.9296 43.2566 41.4085V46.6735C41.5663 46.9879 40.2817 48.471 40.2817 50.2512V54.799C40.2817 56.8071 41.9153 58.4407 43.9234 58.4407C45.9316 58.4407 47.5652 56.8071 47.5652 54.799V50.2512C47.5652 48.5031 46.3268 47.04 44.6815 46.6901V41.0559C46.2602 40.6294 47.8367 40.1322 49.4103 39.5637C51.198 38.9181 52.3991 37.1743 52.3991 35.2246V18.0325L57.8907 16.0322C58.8937 15.6666 59.5439 14.7403 59.5468 13.6729C59.5498 12.6048 58.905 11.6753 57.9038 11.3041ZM46.1402 50.2513V54.7991C46.1402 56.0214 45.1456 57.016 43.9233 57.016C42.701 57.016 41.7065 56.0214 41.7065 54.7991V50.2513C41.7065 49.0291 42.701 48.0345 43.9233 48.0345C45.1456 48.0345 46.1402 49.0292 46.1402 50.2513ZM11.9257 38.2237C10.7007 37.7812 9.87753 36.5762 9.87753 35.2248V18.7183L27.1098 25.2447C28.8442 25.9019 30.7567 25.9141 32.5003 25.2797L43.2565 21.3621V39.9407C32.8291 42.541 22.3153 41.9772 11.9257 38.2237ZM50.974 35.2248C50.974 36.5762 50.1509 37.7812 48.9258 38.2237C47.5131 38.734 46.0981 39.1787 44.6813 39.5717V20.8432L50.974 18.5514V35.2248ZM57.4028 14.6931L44.0123 19.5702L30.6538 12.946C30.301 12.7717 29.8732 12.9154 29.6993 13.2677C29.5243 13.6205 29.6684 14.048 30.021 14.2227L42.163 20.2437L32.0127 23.9406C30.5918 24.4588 29.0295 24.4483 27.6147 23.9123L3.25925 14.6881C2.60605 14.4403 2.55355 13.8454 2.55296 13.6684C2.55273 13.4919 2.60171 12.8964 3.25339 12.6449L27.5813 3.26992C28.9736 2.73355 30.5623 2.69054 32.0467 3.24097L57.4084 12.64C57.9364 12.8359 58.123 13.2995 58.122 13.6686C58.121 14.0375 57.9316 14.5006 57.4028 14.6931Z" fill="#1F1F1F"/>
</svg>
