<svg width="60" height="60" viewBox="0 0 60 60" fill="none" xmlns="http://www.w3.org/2000/svg">
<g clip-path="url(#clip0_52_244)">
<path d="M59.0956 21.7998C58.637 9.85007 49.0549 3.3909 41.0834 1.65489C31.5736 -0.41614 21.573 1.39967 18.5309 10.5944C15.5187 19.6988 4.17253 20.8994 1.32601 31.136C-0.231191 36.7356 2.08346 44.5397 11.4965 47.719C21.8444 51.2141 22.2459 57.2171 29.9883 58.7744C35.5161 59.8863 39.8312 58.2286 43.231 55.2417L51.2538 43.1126C55.1797 34.0058 59.4646 31.4129 59.0956 21.7998Z" fill="#FAF3DA"/>
<path d="M30.9381 42.2141C37.6822 42.2141 43.1494 36.7469 43.1494 30.0028C43.1494 23.2587 37.6822 17.7915 30.9381 17.7915C24.194 17.7915 18.7268 23.2587 18.7268 30.0028C18.7268 36.7469 24.194 42.2141 30.9381 42.2141Z" fill="#FFAC00"/>
<path d="M59.0956 21.7998C58.8416 15.1793 55.7851 10.247 51.7555 6.86658C54.0126 9.82606 55.5227 13.4973 55.7029 17.9232C56.0949 27.5429 51.5434 30.1377 47.3735 39.2509C43.4415 47.8439 36.8182 57.2041 24.7852 54.9238C23.6601 54.7105 22.6844 54.4116 21.8041 54.0497C24.13 56.1505 26.1637 58.005 29.9882 58.7743C41.3165 61.053 47.5522 51.6995 51.2537 43.1125C55.1797 34.0058 59.4646 31.4129 59.0956 21.7998Z" fill="#FDE8C5"/>
<path d="M38.2958 20.2734C39.8468 22.321 40.7777 24.8643 40.7777 27.631C40.7777 34.3751 35.3105 39.8423 28.5664 39.8423C25.7997 39.8423 23.2564 38.9113 21.2088 37.3603C23.4384 40.3039 26.9608 42.214 30.9381 42.214C37.6821 42.214 43.1494 36.7469 43.1494 30.0027C43.1494 26.0255 41.2393 22.5031 38.2958 20.2734Z" fill="#FFA95B"/>
<path d="M22.1066 21.5241C21.7334 21.2137 21.1793 21.2646 20.869 21.6379C18.9209 23.9804 17.8481 26.9511 17.8481 30.0027C17.8481 37.2206 23.7203 43.0927 30.9381 43.0927C38.1559 43.0927 44.0281 37.2205 44.0281 30.0027C44.0281 22.7849 38.156 16.9127 30.9381 16.9127C28.4588 16.9127 26.0454 17.6092 23.9584 18.9268C23.548 19.1859 23.4254 19.7288 23.6846 20.1391C23.9436 20.5495 24.4863 20.6722 24.8969 20.413C26.7025 19.2729 28.7915 18.6703 30.9381 18.6703C37.1868 18.6703 42.2704 23.754 42.2704 30.0026C42.2704 36.2512 37.1867 41.3349 30.9381 41.3349C24.6895 41.3349 19.6058 36.2512 19.6058 30.0026C19.6058 27.3608 20.5343 24.7892 22.2204 22.7616C22.5308 22.3885 22.4798 21.8344 22.1066 21.5241Z" fill="#1F1F1F"/>
<path d="M59.9739 21.7662C59.758 16.1437 57.5253 11.1292 53.5168 7.26452C50.2324 4.09798 45.8831 1.8008 41.2704 0.796216C36.0068 -0.350268 31.1088 -0.256993 27.1061 1.06549C22.4434 2.60605 19.1895 5.80564 17.6966 10.3183C16.3399 14.4192 13.1573 16.8368 9.78776 19.3965C5.97978 22.2893 2.0422 25.2804 0.479256 30.9006C-0.415292 34.1177 -0.0377397 37.7024 1.51512 40.7357C3.35343 44.3265 6.7077 47.0293 11.2152 48.5517C16.3118 50.2731 18.9409 52.6479 21.2605 54.7432C23.5839 56.8419 25.7784 58.8241 29.8149 59.636C31.0221 59.8788 32.1989 60 33.3451 60C37.9822 60 42.1105 58.0154 45.653 54.0734C45.9775 53.7124 45.9477 53.1567 45.5868 52.8322C45.2257 52.5078 44.6701 52.5375 44.3456 52.8984C42.4788 54.9758 40.4305 56.4646 38.2575 57.3232C35.7894 58.2985 33.0656 58.4968 30.1615 57.9128C26.5983 57.196 24.6706 55.4548 22.4386 53.4388C19.9922 51.229 17.2194 48.7244 11.7776 46.8864C3.03518 43.9336 0.670259 36.774 2.17262 31.3714C3.57678 26.3219 7.11009 23.6378 10.8508 20.7961C14.2855 18.1868 17.8372 15.4889 19.3652 10.8704C20.6953 6.85018 23.4852 4.11286 27.6574 2.73436C31.3618 1.51054 35.9398 1.43402 40.8962 2.51348C45.195 3.44963 49.2436 5.58628 52.2967 8.52983C55.9719 12.0732 58.0193 16.6736 58.2173 21.8334C58.4581 28.1082 56.6794 31.1964 54.2175 35.4708C53.0502 37.4977 51.727 39.7951 50.4468 42.7646C49.1948 45.669 47.9026 48.0814 46.4967 50.1396C46.223 50.5403 46.3258 51.0872 46.7266 51.3609C47.1272 51.6347 47.6742 51.5318 47.948 51.131C49.4183 48.9787 50.7637 46.4696 52.0608 43.4606C53.3008 40.5844 54.597 38.3338 55.7406 36.3481C58.2512 31.9895 60.2341 28.5468 59.9739 21.7662Z" fill="#1F1F1F"/>
</g>
<defs>
<clipPath id="clip0_52_244">
<rect width="60" height="60" fill="white"/>
</clipPath>
</defs>
</svg>
