<svg width="40" height="40" viewBox="0 0 40 40" fill="none" xmlns="http://www.w3.org/2000/svg">
<g clip-path="url(#clip0_194_507)">
<path d="M37.9287 27.1647C38.4083 26.669 38.6763 26.0062 38.6761 25.3165C38.6758 24.6267 38.4073 23.9641 37.9274 23.4687C37.4474 22.9734 36.7936 22.6841 36.1043 22.6621C35.4149 22.64 34.7439 22.887 34.2333 23.3507L29.982 20.5034C29.9933 20.2954 30 20.0814 30 19.8594C30.0374 17.8993 29.5706 15.9625 28.6442 14.2348C27.7179 12.5071 26.3632 11.0463 24.71 9.9927C24.8858 9.98695 25.0522 9.91159 25.1725 9.78319C25.2927 9.65479 25.3571 9.48387 25.3513 9.30803C25.3456 9.13219 25.2702 8.96584 25.1418 8.84556C25.0134 8.72529 24.8425 8.66095 24.6667 8.6667H23.4493L26.0667 5.61603C26.1871 5.47578 26.2774 5.31228 26.332 5.13567C26.3866 4.95905 26.4043 4.7731 26.384 4.58936C26.3641 4.40717 26.3066 4.23109 26.2152 4.07227C26.1237 3.91344 26.0003 3.77534 25.8527 3.6667C25.1508 3.17719 24.389 2.77973 23.586 2.48403L23.6933 2.21403C23.763 2.04537 23.7971 1.86419 23.7937 1.68177C23.7902 1.49934 23.7493 1.31957 23.6734 1.15366C23.5974 0.987745 23.4882 0.839237 23.3524 0.717381C23.2166 0.595525 23.0571 0.50293 22.884 0.445362C21.0053 -0.149756 18.9887 -0.149756 17.11 0.445362C16.9379 0.50305 16.7795 0.595362 16.6444 0.716611C16.5094 0.83786 16.4006 0.985478 16.3248 1.15037C16.249 1.31526 16.2077 1.49393 16.2036 1.67537C16.1994 1.85681 16.2325 2.03718 16.3007 2.20536L16.4113 2.48336C15.6082 2.77981 14.8464 3.17818 14.1447 3.66869C13.9988 3.77753 13.8769 3.91528 13.7866 4.07335C13.6963 4.23141 13.6396 4.40639 13.62 4.58736C13.5991 4.77072 13.6161 4.95642 13.67 5.13293C13.7239 5.30943 13.8136 5.47296 13.9333 5.61336L16.5507 8.6667H15.3333C15.1577 8.66095 14.9869 8.72522 14.8586 8.84537C14.7304 8.96552 14.6551 9.1317 14.6493 9.30736C14.6436 9.48302 14.7079 9.65377 14.828 9.78205C14.9482 9.91032 15.1143 9.98562 15.29 9.99136C13.6366 11.0451 12.2818 12.5061 11.3554 14.2341C10.4291 15.9621 9.96236 17.8991 10 19.8594C10 20.0814 10.0067 20.2954 10.018 20.5034L5.76667 23.3507C5.2551 22.8926 4.58606 22.6503 3.8998 22.6747C3.21353 22.699 2.56334 22.9881 2.08551 23.4812C1.60767 23.9744 1.33931 24.6334 1.33667 25.3201C1.33402 26.0068 1.59731 26.6679 2.07133 27.1647C1.44437 27.5098 0.921467 28.0167 0.557142 28.6327C0.192816 29.2486 0.000414788 29.9511 0 30.6667L0 33.3334C0 33.687 0.140476 34.0261 0.390524 34.2762C0.640573 34.5262 0.979711 34.6667 1.33333 34.6667H6.66667C7.02029 34.6667 7.35943 34.5262 7.60948 34.2762C7.85952 34.0261 8 33.687 8 33.3334V30.6667C7.99959 29.9511 7.80718 29.2486 7.44286 28.6327C7.07853 28.0167 6.55563 27.5098 5.92867 27.1647C6.27099 26.8146 6.50705 26.3746 6.60947 25.8958C6.71189 25.4169 6.67648 24.9189 6.50733 24.4594L10.2193 21.9734C10.4233 23.0106 10.9295 23.9644 11.6742 24.7147C12.419 25.465 13.3689 25.9783 14.4047 26.19L14.0913 28.0667C13.63 28.1668 13.2037 28.3881 12.8564 28.7079C12.5091 29.0276 12.2533 29.4341 12.1155 29.8856C11.9776 30.3371 11.9626 30.8171 12.072 31.2763C12.1814 31.7355 12.4113 32.1573 12.738 32.498C12.111 32.8431 11.5881 33.35 11.2238 33.966C10.8595 34.582 10.6671 35.2844 10.6667 36V38.6667C10.6667 39.0203 10.8071 39.3595 11.0572 39.6095C11.3072 39.8596 11.6464 40 12 40H17.3333C17.687 40 18.0261 39.8596 18.2761 39.6095C18.5262 39.3595 18.6667 39.0203 18.6667 38.6667V36C18.6663 35.2844 18.4739 34.582 18.1095 33.966C17.7452 33.35 17.2223 32.8431 16.5953 32.498C16.9103 32.1701 17.1355 31.7666 17.2491 31.3263C17.3628 30.8861 17.3611 30.424 17.2443 29.9846C17.1275 29.5452 16.8994 29.1433 16.5821 28.8176C16.2648 28.492 15.8689 28.2535 15.4327 28.1254L15.7113 26.4587C17.134 26.6311 18.5673 26.7006 20 26.6667C21.4327 26.7008 22.866 26.6316 24.2887 26.4594L24.5673 28.126C24.1311 28.2542 23.7352 28.4926 23.4179 28.8183C23.1006 29.1439 22.8725 29.5458 22.7557 29.9852C22.6389 30.4246 22.6372 30.8867 22.7509 31.327C22.8645 31.7672 23.0897 32.1708 23.4047 32.4987C22.7778 32.8437 22.255 33.3505 21.8906 33.9664C21.5263 34.5822 21.3339 35.2845 21.3333 36V38.6667C21.3333 39.0203 21.4738 39.3595 21.7239 39.6095C21.9739 39.8596 22.313 40 22.6667 40H28C28.3536 40 28.6928 39.8596 28.9428 39.6095C29.1929 39.3595 29.3333 39.0203 29.3333 38.6667V36C29.3329 35.2844 29.1405 34.582 28.7762 33.966C28.4119 33.35 27.889 32.8431 27.262 32.498C27.5887 32.1573 27.8186 31.7355 27.928 31.2763C28.0374 30.8171 28.0224 30.3371 27.8845 29.8856C27.7467 29.4341 27.4909 29.0276 27.1436 28.7079C26.7963 28.3881 26.37 28.1668 25.9087 28.0667L25.5953 26.19C26.6311 25.9783 27.5811 25.465 28.3258 24.7147C29.0705 23.9644 29.5767 23.0106 29.7807 21.9734L33.4927 24.4594C33.3235 24.9189 33.2881 25.4169 33.3905 25.8958C33.493 26.3746 33.729 26.8146 34.0713 27.1647C33.4444 27.5098 32.9215 28.0167 32.5571 28.6327C32.1928 29.2486 32.0004 29.9511 32 30.6667V33.3334C32 33.687 32.1405 34.0261 32.3905 34.2762C32.6406 34.5262 32.9797 34.6667 33.3333 34.6667H38.6667C39.0203 34.6667 39.3594 34.5262 39.6095 34.2762C39.8595 34.0261 40 33.687 40 33.3334V30.6667C39.9996 29.9511 39.8072 29.2486 39.4429 28.6327C39.0785 28.0167 38.5556 27.5098 37.9287 27.1647ZM6.66667 33.3334H1.33333V30.6667C1.33333 29.9595 1.61428 29.2812 2.11438 28.7811C2.61448 28.281 3.29276 28 4 28C4.70724 28 5.38552 28.281 5.88562 28.7811C6.38572 29.2812 6.66667 29.9595 6.66667 30.6667V33.3334ZM2.66667 25.3334C2.66667 25.0697 2.74487 24.8119 2.89137 24.5926C3.03788 24.3733 3.24612 24.2024 3.48976 24.1015C3.73339 24.0006 4.00148 23.9742 4.26012 24.0256C4.51876 24.0771 4.75634 24.2041 4.94281 24.3906C5.12928 24.577 5.25627 24.8146 5.30771 25.0732C5.35916 25.3319 5.33276 25.6 5.23184 25.8436C5.13092 26.0872 4.96003 26.2955 4.74076 26.442C4.52149 26.5885 4.26371 26.6667 4 26.6667C3.64638 26.6667 3.30724 26.5262 3.05719 26.2762C2.80714 26.0261 2.66667 25.687 2.66667 25.3334ZM17.3333 38.6667H12V36C12 35.2928 12.281 34.6145 12.781 34.1144C13.2811 33.6143 13.9594 33.3334 14.6667 33.3334C15.3739 33.3334 16.0522 33.6143 16.5523 34.1144C17.0524 34.6145 17.3333 35.2928 17.3333 36V38.6667ZM16 30.6667C16 30.9304 15.9218 31.1882 15.7753 31.4075C15.6288 31.6267 15.4205 31.7976 15.1769 31.8985C14.9333 31.9995 14.6652 32.0259 14.4065 31.9744C14.1479 31.923 13.9103 31.796 13.7239 31.6095C13.5374 31.423 13.4104 31.1855 13.359 30.9268C13.3075 30.6682 13.3339 30.4001 13.4348 30.1565C13.5357 29.9128 13.7066 29.7046 13.9259 29.5581C14.1452 29.4116 14.403 29.3334 14.6667 29.3334C15.0203 29.3334 15.3594 29.4738 15.6095 29.7239C15.8595 29.9739 16 30.3131 16 30.6667ZM28 38.6667H22.6667V36C22.6667 35.2928 22.9476 34.6145 23.4477 34.1144C23.9478 33.6143 24.6261 33.3334 25.3333 33.3334C26.0406 33.3334 26.7189 33.6143 27.219 34.1144C27.719 34.6145 28 35.2928 28 36V38.6667ZM26.6667 30.6667C26.6667 30.9304 26.5885 31.1882 26.442 31.4075C26.2955 31.6267 26.0872 31.7976 25.8436 31.8985C25.5999 31.9995 25.3319 32.0259 25.0732 31.9744C24.8146 31.923 24.577 31.796 24.3905 31.6095C24.2041 31.423 24.0771 31.1855 24.0256 30.9268C23.9742 30.6682 24.0006 30.4001 24.1015 30.1565C24.2024 29.9128 24.3733 29.7046 24.5926 29.5581C24.8118 29.4116 25.0696 29.3334 25.3333 29.3334C25.687 29.3334 26.0261 29.4738 26.2761 29.7239C26.5262 29.9739 26.6667 30.3131 26.6667 30.6667ZM14.9333 4.7447C15.5459 4.32314 16.2091 3.98044 16.9073 3.72469L17.382 4.91403C17.4314 5.03763 17.5166 5.14362 17.6268 5.21836C17.7369 5.29309 17.8669 5.33314 18 5.33336C18.0847 5.33362 18.1687 5.31755 18.2473 5.28603C18.3287 5.25357 18.4028 5.2054 18.4656 5.14428C18.5283 5.08315 18.5784 5.01026 18.6129 4.92978C18.6475 4.84929 18.6658 4.76279 18.6669 4.67521C18.668 4.58763 18.6518 4.50069 18.6193 4.41936L17.9053 2.63269L17.5253 1.71536C18.3256 1.46129 19.1604 1.33244 20 1.33336C20.835 1.33094 21.6653 1.45916 22.4607 1.71336L22.0953 2.63203L21.3813 4.41869C21.3488 4.50002 21.3327 4.58696 21.3338 4.67454C21.3349 4.76212 21.3532 4.84862 21.3878 4.92911C21.4223 5.00959 21.4724 5.08248 21.5351 5.14361C21.5978 5.20474 21.672 5.25291 21.7533 5.28536C21.8317 5.31703 21.9155 5.33332 22 5.33336C22.1333 5.33341 22.2636 5.29348 22.374 5.21873C22.4844 5.14398 22.5699 5.03784 22.6193 4.91403L23.094 3.72469C23.7885 3.97897 24.4471 4.32228 25.0533 4.74603L21.6933 8.6667H18.306L14.9333 4.7447ZM20 25.3334C14.7647 25.3334 11.3333 24.9527 11.3333 19.8594C11.3333 14.4234 15.2213 10 20 10C24.7787 10 28.6667 14.4234 28.6667 19.8594C28.6667 24.9527 25.2353 25.3334 20 25.3334ZM34.6667 25.3334C34.6667 25.0697 34.7449 24.8119 34.8914 24.5926C35.0379 24.3733 35.2461 24.2024 35.4898 24.1015C35.7334 24.0006 36.0015 23.9742 36.2601 24.0256C36.5188 24.0771 36.7563 24.2041 36.9428 24.3906C37.1293 24.577 37.2563 24.8146 37.3077 25.0732C37.3592 25.3319 37.3328 25.6 37.2318 25.8436C37.1309 26.0872 36.96 26.2955 36.7408 26.442C36.5215 26.5885 36.2637 26.6667 36 26.6667C35.6464 26.6667 35.3072 26.5262 35.0572 26.2762C34.8071 26.0261 34.6667 25.687 34.6667 25.3334ZM33.3333 33.3334V30.6667C33.3333 29.9595 33.6143 29.2812 34.1144 28.7811C34.6145 28.281 35.2928 28 36 28C36.7072 28 37.3855 28.281 37.8856 28.7811C38.3857 29.2812 38.6667 29.9595 38.6667 30.6667V33.3334H33.3333Z" fill="white"/>
<path d="M20.0001 17.3333C19.8831 17.3332 19.7682 17.3023 19.6669 17.2437C19.5656 17.1851 19.4816 17.1009 19.4232 16.9996C19.3647 16.8982 19.334 16.7833 19.3341 16.6663C19.3341 16.5493 19.365 16.4343 19.4236 16.3331C19.4821 16.2318 19.5663 16.1477 19.6676 16.0892C19.769 16.0307 19.8839 16 20.0009 16C20.1179 16 20.2328 16.0308 20.3341 16.0894C20.4355 16.1479 20.5196 16.232 20.5781 16.3333C20.6693 16.4807 20.8143 16.5868 20.9824 16.6291C21.1505 16.6714 21.3284 16.6466 21.4785 16.5599C21.6286 16.4731 21.739 16.3314 21.7864 16.1647C21.8337 15.9979 21.8142 15.8193 21.7321 15.6667C21.4907 15.2608 21.1132 14.9537 20.6668 14.8V14.6667C20.6668 14.4899 20.5965 14.3203 20.4715 14.1953C20.3465 14.0702 20.1769 14 20.0001 14C19.8233 14 19.6537 14.0702 19.5287 14.1953C19.4037 14.3203 19.3334 14.4899 19.3334 14.6667V14.7893C18.889 14.9459 18.5143 15.2547 18.2757 15.661C18.0371 16.0674 17.95 16.545 18.0298 17.0095C18.1097 17.4739 18.3513 17.895 18.7119 18.1983C19.0725 18.5017 19.5289 18.6676 20.0001 18.6667C20.1171 18.6668 20.232 18.6977 20.3333 18.7563C20.4345 18.8149 20.5186 18.8991 20.577 19.0004C20.6355 19.1018 20.6662 19.2167 20.6661 19.3337C20.666 19.4507 20.6352 19.5657 20.5766 19.6669C20.5181 19.7682 20.4339 19.8523 20.3326 19.9108C20.2312 19.9693 20.1163 20 19.9993 20C19.8823 20 19.7674 19.9692 19.666 19.9106C19.5647 19.8521 19.4806 19.768 19.4221 19.6667C19.3309 19.5193 19.1859 19.4132 19.0178 19.3709C18.8497 19.3286 18.6718 19.3534 18.5217 19.4401C18.3716 19.5269 18.2612 19.6686 18.2138 19.8353C18.1665 20.0021 18.186 20.1807 18.2681 20.3333C18.5098 20.7394 18.8878 21.0465 19.3348 21.2V21.3333C19.3348 21.5101 19.405 21.6797 19.53 21.8047C19.655 21.9298 19.8246 22 20.0014 22C20.1782 22 20.3478 21.9298 20.4728 21.8047C20.5979 21.6797 20.6681 21.5101 20.6681 21.3333V21.2107C21.1127 21.0541 21.4874 20.7452 21.726 20.3387C21.9646 19.9322 22.0516 19.4544 21.9716 18.9899C21.8916 18.5254 21.6497 18.1042 21.2888 17.801C20.928 17.4978 20.4714 17.3321 20.0001 17.3333Z" fill="white"/>
</g>
<defs>
<clipPath id="clip0_194_507">
<rect width="40" height="40" fill="white"/>
</clipPath>
</defs>
</svg>
