<svg width="40" height="40" viewBox="0 0 40 40" fill="none" xmlns="http://www.w3.org/2000/svg">
<g clip-path="url(#clip0_194_503)">
<path d="M20 0.46875C9.21711 0.46875 0.46875 9.21719 0.46875 20C0.46875 30.7828 9.21711 39.5312 20 39.5312C30.7828 39.5312 39.5312 30.7829 39.5312 20C39.5312 9.21711 30.7828 0.46875 20 0.46875ZM34.0956 31.1432C32.3373 30.1242 30.3549 29.3773 28.3815 28.858C28.9763 26.3767 29.3148 23.6325 29.3672 20.7812H37.9515C37.7872 24.5526 36.4368 28.1839 34.0956 31.1432ZM5.90445 31.1432C3.56328 28.1839 2.21289 24.5526 2.04852 20.7812H10.6328C10.6852 23.6325 11.0237 26.3767 11.6185 28.858C9.63055 29.3908 7.69906 30.1018 5.90445 31.1432ZM5.90437 8.8568C7.65648 9.87055 9.62187 10.6162 11.6185 11.142C11.0236 13.6233 10.6852 16.3675 10.6328 19.2188H2.04852C2.21289 15.4473 3.56328 11.8161 5.90437 8.8568ZM20.7812 27.822V20.7812H27.8045C27.7527 23.5155 27.429 26.1387 26.8618 28.501C25.0055 28.1143 22.9405 27.8701 20.7812 27.822ZM13.1382 28.501C12.571 26.1387 12.2473 23.5155 12.1955 20.7812H19.2188V27.822C17.0854 27.8695 15.0339 28.1067 13.1382 28.501ZM19.2188 12.178V19.2188H12.1955C12.2473 16.4845 12.571 13.8613 13.1382 11.4991C15.0408 11.8931 17.0684 12.1301 19.2188 12.178ZM20.7812 19.2188V12.178C22.8816 12.1312 24.9227 11.9013 26.8618 11.4991C27.4291 13.8613 27.7527 16.4845 27.8045 19.2188H20.7812ZM20.7812 10.6152V2.13023C22.4593 2.54914 24.0963 4.29602 25.3665 7.06727C25.7791 7.96742 26.1427 8.94703 26.4554 9.98961C24.5851 10.371 22.6664 10.5727 20.7812 10.6152ZM19.2188 2.13023V10.6152C17.2933 10.5718 15.3742 10.363 13.5446 9.98961C13.8573 8.94703 14.2209 7.96742 14.6335 7.06727C15.9037 4.29594 17.5406 2.54906 19.2188 2.13023ZM19.2188 29.3848V37.8698C17.5406 37.4509 15.9037 35.704 14.6335 32.9327C14.2209 32.0326 13.8573 31.053 13.5446 30.0104C15.3853 29.6367 17.2836 29.4284 19.2188 29.3848ZM20.7812 37.8698V29.3848C22.8067 29.4304 24.6898 29.6517 26.4554 30.0104C26.1427 31.053 25.7791 32.0326 25.3665 32.9327C24.0963 35.7041 22.4593 37.4509 20.7812 37.8698ZM29.3672 19.2188C29.3148 16.3675 28.9763 13.6233 28.3815 11.142C30.3586 10.6187 32.334 9.87859 34.0956 8.8568C36.4368 11.8161 37.7872 15.4473 37.9515 19.2188H29.3672ZM33.052 7.65164C31.4791 8.52844 29.7418 9.17109 27.9791 9.63523C27.248 7.16336 26.0622 4.41562 24.2816 2.54906C27.6106 3.36516 30.6592 5.12273 33.052 7.65164ZM15.7182 2.54906C13.9377 4.41562 12.752 7.16344 12.0208 9.63523C10.2669 9.17367 8.53281 8.53375 6.94789 7.65164C9.34086 5.12273 12.3893 3.36516 15.7182 2.54906ZM6.94797 32.3484C8.54359 31.4619 10.2689 30.8239 12.0209 30.3648C12.752 32.8364 13.9377 35.5845 15.7183 37.4509C12.3892 36.6348 9.34086 34.8773 6.94797 32.3484ZM24.2817 37.4509C26.0602 35.5866 27.2466 32.8414 27.9792 30.3648C29.7114 30.8193 31.4621 31.4633 33.0521 32.3484C30.6592 34.8773 27.6107 36.6348 24.2817 37.4509Z" fill="white"/>
</g>
<defs>
<clipPath id="clip0_194_503">
<rect width="40" height="40" fill="white"/>
</clipPath>
</defs>
</svg>
